;Coverted using MIDI2ASM
;Code by TriteHexagon
;Version 5.2.0 (16-Nov-2022)
;Visit github.com/TriteHexagon/Midi2ASM-Converter for up-to-date versions.

; ============================================================================================================

Music_BalladOfTheWindfish:
	channel_count 2
	channel 1, Music_BalladOfTheWindfish_Ch1
	channel 2, Music_BalladOfTheWindfish_Ch2

Music_BalladOfTheWindfish_Ch1:
	volume 7, 7
	duty_cycle 2
	note_type 12, 10, 7
	tempo 151
;Bar 1
	octave 4
	note B_, 2
	octave 5
	note C#, 2
	note D_, 8
	rest 4
;Bar 2
	octave 4
	note B_, 2
	octave 5
	note C#, 2
	note D_, 8
	rest 4
;Bar 3
	note C#, 2
	octave 4
	note B_, 2
	note F#, 2
	note A_, 6
	note B_, 16
;Bar 4
	rest 4
;Bar 5
	note B_, 2
	octave 5
	note C#, 2
	note D_, 8
	rest 4
;Bar 6
	octave 4
	note A_, 2
	octave 5
	note D_, 2
	note G_, 8
	rest 4
;Bar 7
	note F#, 2
	note E_, 2
	note_type 3, 10, 7
	note F#, 16
	note F#, 16
	note F#, 16
	note F#, 16
	note F#, 11
;Bar 8
	rest 16
	rest 16
	rest 16
	rest 16
	rest 5
;Bar 9
	note_type 12, 10, 7
	octave 6
	note C#, 4
	octave 5
	note B_, 4
;Bar 10
	note F#, 4
	note F#, 6
	note G_, 11
;Bar 11
	rest 3
	octave 6
	note E_, 2
	note D_, 2
	note C#, 2
	octave 5
	note B_, 2
;Bar 12
	note F#, 2
	note E_, 2
	note F#, 2
	note B_, 2
	note G_, 4
	rest 2
	note G_, 2
;Bar 13
	note A_, 8
	rest 2
	note C_, 2
	note E_, 2
	note A_, 2
;Bar 14
	note F#, 8
	rest 6
	note D_, 2
;Bar 15
	note B_, 16
;Bar 16
	rest 2
	note A#, 6
	octave 6
	note G_, 6
	note F#, 6
	sound_ret

; ============================================================================================================

Music_BalladOfTheWindfish_Ch2:
	duty_cycle 1
	note_type 12, 10, 7
;Bar 1
	rest 1
	octave 4
	note B_, 2
	octave 5
	note C#, 2
	note D_, 8
	rest 4
;Bar 2
	octave 4
	note B_, 2
	octave 5
	note C#, 2
	note D_, 8
	rest 4
;Bar 3
	note C#, 2
	octave 4
	note B_, 2
	note F#, 2
	note A_, 6
	note B_, 16
;Bar 4
	rest 4
;Bar 5
	note B_, 2
	octave 5
	note C#, 2
	note D_, 8
	rest 4
;Bar 6
	octave 4
	note A_, 2
	octave 5
	note D_, 2
	note G_, 8
	rest 4
;Bar 7
	note F#, 2
	note E_, 2
	note_type 3, 10, 7
	note F#, 16
	note F#, 16
	note F#, 16
	note F#, 16
	note F#, 11
;Bar 8
	rest 16
	rest 16
	rest 16
	rest 16
	rest 5
;Bar 9
	note_type 12, 10, 7
	octave 6
	note C#, 4
	octave 5
	note B_, 1
	rest 3
;Bar 10
	note F#, 4
	note F#, 6
	note G_, 11
;Bar 11
	rest 3
	octave 6
	note E_, 2
	note D_, 2
	note C#, 2
	octave 5
	note B_, 2
;Bar 12
	note F#, 2
	note E_, 2
	note F#, 2
	note B_, 2
	note G_, 4
	rest 2
	note G_, 2
;Bar 13
	note A_, 8
	rest 2
	note C_, 2
	note E_, 2
	note A_, 2
;Bar 14
	note F#, 8
	rest 6
	note D_, 2
;Bar 15
	note B_, 16
;Bar 16
	rest 2
	note A#, 6
	octave 6
	note G_, 6
	note F#, 6
	sound_ret

; ============================================================================================================

