;Coverted using MIDI2ASM
;Code by TriteHexagon
;Version 5.2.0 (16-Nov-2022)
;Visit github.com/TriteHexagon/Midi2ASM-Converter for up-to-date versions.

; ============================================================================================================

Music_BarrelVolcano:
	channel_count 4
	channel 1, Music_BarrelVolcano_Ch1
	channel 2, Music_BarrelVolcano_Ch2
	channel 3, Music_BarrelVolcano_Ch3
	channel 4, Music_BarrelVolcano_Ch4

Music_BarrelVolcano_Ch1:
	volume 7, 7
	duty_cycle 2
	note_type 12, 10, 7
	tempo 119
;Bar 1
	octave 1
	note C_, 4
	note C_, 1
	rest 1
	note D#, 4
	note G_, 1
	rest 1
	note A#, 4
;Bar 2
	octave 1
	note C_, 2
	note A#, 2
	octave 1
	note C_, 1
	rest 1
	note D#, 4
	note G_, 1
	rest 1
	note A#, 4
;Bar 3
	octave 1
	note C_, 4
	note C_, 1
	rest 1
	note D#, 4
	note G_, 1
	rest 1
	note A#, 4
;Bar 4
	octave 1
	note C_, 2
	note A#, 2
	octave 1
	note C_, 1
	rest 1
	note D#, 4
	note G_, 1
	rest 1
	note A#, 4
;Bar 5
	note A#, 4
	note A#, 1
	rest 1
	octave 1
	note C#, 4
	note F_, 1
	rest 1
	note G#, 4
;Bar 6
	note A#, 2
	note G#, 2
	note A#, 1
	rest 1
	octave 1
	note C#, 4
	note F_, 1
	rest 1
	note G#, 4
;Bar 7
	note A#, 4
	note A#, 1
	rest 1
	octave 1
	note C#, 4
	note F_, 1
	rest 1
	note G#, 4
;Bar 8
	note A#, 2
	note G#, 2
	note A#, 1
	rest 1
	octave 1
	note C#, 4
	note F_, 1
	rest 1
	note G#, 4
;Bar 9
	octave 1
	note C_, 4
	note C_, 1
	rest 1
	note D#, 4
	note G_, 1
	rest 1
	note A#, 4
;Bar 10
	octave 1
	note C_, 2
	note A#, 2
	octave 1
	note C_, 1
	rest 1
	note D#, 4
	note G_, 1
	rest 1
	note A#, 4
;Bar 11
	octave 1
	note C_, 4
	note C_, 1
	rest 1
	note D#, 4
	note G_, 1
	rest 1
	note A#, 4
;Bar 12
	octave 1
	note C_, 2
	note A#, 2
	octave 1
	note C_, 1
	rest 1
	note D#, 4
	note G_, 1
	rest 1
	note A#, 4
;Bar 13
	note A#, 4
	note A#, 1
	rest 1
	octave 1
	note C#, 4
	note F_, 1
	rest 1
	note G#, 4
;Bar 14
	note A#, 2
	note G#, 2
	note A#, 1
	rest 1
	octave 1
	note C#, 4
	note F_, 1
	rest 1
	note G#, 4
;Bar 15
	note A#, 4
	note A#, 1
	rest 1
	octave 1
	note C#, 4
	note F_, 1
	rest 1
	note G#, 4
;Bar 16
	note A#, 2
	note G#, 2
	note A#, 1
	rest 1
	octave 1
	note C#, 4
	note F_, 1
	rest 1
	note G#, 4
;Bar 17
	octave 1
	note C_, 4
	note C_, 1
	rest 1
	note D#, 4
	note G_, 1
	rest 1
	note A#, 4
;Bar 18
	octave 1
	note C_, 2
	note A#, 2
	octave 1
	note C_, 1
	rest 1
	note D#, 4
	note G_, 1
	rest 1
	note A#, 4
;Bar 19
	note A#, 4
	note A#, 1
	rest 1
	octave 1
	note C#, 4
	note F_, 1
	rest 1
	note G#, 4
;Bar 20
	note A#, 2
	note G#, 2
	note A#, 1
	rest 1
	octave 1
	note C#, 4
	note F_, 1
	rest 1
	note_type 8, 10, 7
	note G#, 5
	rest 16
	rest 16
	rest 16
	rest 16
	rest 16
	rest 16
	rest 16
	rest 16
	rest 16
	rest 16
	rest 16
	rest 16
	rest 16
	rest 1
;Bar 29
	note_type 12, 10, 7
	octave 1
	note C_, 4
	note C_, 1
	rest 1
	note D#, 4
	note G_, 1
	rest 1
	note A#, 4
;Bar 30
	octave 1
	note C_, 2
	note A#, 2
	octave 1
	note C_, 1
	rest 1
	note D#, 4
	note G_, 1
	rest 1
	note A#, 4
;Bar 31
	octave 1
	note C_, 4
	note C_, 1
	rest 1
	note D#, 4
	note G_, 1
	rest 1
	note A#, 4
;Bar 32
	octave 1
	note C_, 2
	note A#, 2
	octave 1
	note C_, 1
	rest 1
	note D#, 4
	note G_, 1
	rest 1
	note A#, 4
;Bar 33
	note A#, 4
	note A#, 1
	rest 1
	octave 1
	note C#, 4
	note F_, 1
	rest 1
	note G#, 4
;Bar 34
	note A#, 2
	note G#, 2
	note A#, 1
	rest 1
	octave 1
	note C#, 4
	note F_, 1
	rest 1
	note G#, 4
;Bar 35
	note A#, 4
	note A#, 1
	rest 1
	octave 1
	note C#, 4
	note F_, 1
	rest 1
	note G#, 4
;Bar 36
	note A#, 2
	note G#, 2
	note A#, 1
	rest 1
	octave 1
	note C#, 4
	note F_, 1
	rest 1
	note G#, 4
;Bar 37
	octave 1
	note C_, 4
	note C_, 1
	rest 1
	note D#, 4
	note G_, 1
	rest 1
	note A#, 4
;Bar 38
	octave 1
	note C_, 2
	note A#, 2
	octave 1
	note C_, 1
	rest 1
	note D#, 4
	note G_, 1
	rest 1
	note A#, 4
;Bar 39
	octave 1
	note C_, 4
	note C_, 1
	rest 1
	note D#, 4
	note G_, 1
	rest 1
	note A#, 4
;Bar 40
	octave 1
	note C_, 2
	note A#, 2
	octave 1
	note C_, 1
	rest 1
	note D#, 4
	note G_, 1
	rest 1
	note A#, 4
;Bar 41
	note A#, 4
	note A#, 1
	rest 1
	octave 1
	note C#, 4
	note F_, 1
	rest 1
	note G#, 4
;Bar 42
	note A#, 2
	note G#, 2
	note A#, 1
	rest 1
	octave 1
	note C#, 4
	note F_, 1
	rest 1
	note G#, 4
;Bar 43
	note A#, 4
	note A#, 1
	rest 1
	octave 1
	note C#, 4
	note F_, 1
	rest 1
	note G#, 4
;Bar 44
	note A#, 2
	note G#, 2
	note A#, 1
	rest 1
	octave 1
	note C#, 4
	note F_, 1
	rest 1
	note G#, 4
;Bar 45
	octave 1
	note C_, 4
	note C_, 1
	rest 1
	note D#, 4
	note G_, 1
	rest 1
	note A#, 4
;Bar 46
	octave 1
	note C_, 2
	note A#, 2
	octave 1
	note C_, 1
	rest 1
	note D#, 4
	note G_, 1
	rest 1
	note A#, 4
;Bar 47
	note A#, 4
	note A#, 1
	rest 1
	octave 1
	note C#, 4
	note F_, 1
	rest 1
	note G#, 4
;Bar 48
	note A#, 2
	note G#, 2
	note A#, 1
	rest 1
	octave 1
	note C#, 4
	note F_, 1
	rest 1
	note_type 8, 10, 7
	note G#, 5
	rest 16
	rest 16
	rest 16
	rest 16
	rest 16
	rest 16
	rest 16
	rest 16
	rest 16
	rest 16
	rest 16
	rest 16
	rest 16
	rest 1
;Bar 57
	note_type 12, 10, 7
	octave 1
	note C_, 4
	note C_, 1
	rest 1
	note D#, 4
	note G_, 1
	rest 1
	note A#, 4
;Bar 58
	octave 1
	note C_, 2
	note A#, 2
	octave 1
	note C_, 1
	rest 1
	note D#, 4
	note G_, 1
	rest 1
	note A#, 4
;Bar 59
	octave 1
	note C_, 4
	note C_, 1
	rest 1
	note D#, 4
	note G_, 1
	rest 1
	note A#, 4
;Bar 60
	octave 1
	note C_, 2
	note A#, 2
	octave 1
	note C_, 1
	rest 1
	note D#, 4
	note G_, 1
	rest 1
	note A#, 4
;Bar 61
	note A#, 4
	note A#, 1
	rest 1
	octave 1
	note C#, 4
	note F_, 1
	rest 1
	note G#, 4
;Bar 62
	note A#, 2
	note G#, 2
	note A#, 1
	rest 1
	octave 1
	note C#, 4
	note F_, 1
	rest 1
	note G#, 4
;Bar 63
	note A#, 4
	note A#, 1
	rest 1
	octave 1
	note C#, 4
	note F_, 1
	rest 1
	note G#, 4
;Bar 64
	note A#, 2
	note G#, 2
	note A#, 1
	rest 1
	octave 1
	note C#, 4
	note F_, 1
	rest 1
	note G#, 4
;Bar 65
	octave 1
	note C_, 4
	note C_, 1
	rest 1
	note D#, 4
	note G_, 1
	rest 1
	note A#, 4
;Bar 66
	octave 1
	note C_, 2
	note A#, 2
	octave 1
	note C_, 1
	rest 1
	note D#, 4
	note G_, 1
	rest 1
	note A#, 4
;Bar 67
	octave 1
	note C_, 4
	note C_, 1
	rest 1
	note D#, 4
	note G_, 1
	rest 1
	note A#, 4
;Bar 68
	octave 1
	note C_, 2
	note A#, 2
	octave 1
	note C_, 1
	rest 1
	note D#, 4
	note G_, 1
	rest 1
	note A#, 4
;Bar 69
	note A#, 4
	note A#, 1
	rest 1
	octave 1
	note C#, 4
	note F_, 1
	rest 1
	note G#, 4
;Bar 70
	note A#, 2
	note G#, 2
	note A#, 1
	rest 1
	octave 1
	note C#, 4
	note F_, 1
	rest 1
	note G#, 4
;Bar 71
	note A#, 4
	note A#, 1
	rest 1
	octave 1
	note C#, 4
	note F_, 1
	rest 1
	note G#, 4
;Bar 72
	note A#, 2
	note G#, 2
	note A#, 1
	rest 1
	octave 1
	note C#, 4
	note F_, 1
	rest 1
	note G#, 4
;Bar 73
	octave 1
	note C_, 4
	note C_, 1
	rest 1
	note D#, 4
	note G_, 1
	rest 1
	note A#, 4
;Bar 74
	octave 1
	note C_, 2
	note A#, 2
	octave 1
	note C_, 1
	rest 1
	note D#, 4
	note G_, 1
	rest 1
	note A#, 4
;Bar 75
	note A#, 4
	note A#, 1
	rest 1
	octave 1
	note C#, 4
	note F_, 1
	rest 1
	note G#, 4
;Bar 76
	note A#, 2
	note G#, 2
	note A#, 1
	rest 1
	octave 1
	note C#, 4
	note F_, 1
	rest 1
	note_type 8, 10, 7
	note G#, 5
	sound_ret

; ============================================================================================================

Music_BarrelVolcano_Ch2:
	duty_cycle 3
	note_type 8, 10, -5
;Bar 1
	note_type 12, 10, 7
	rest 16
	rest 16
	rest 16
	rest 16
	rest 16
	rest 16
	rest 16
	rest 16
;Bar 9
	octave 2
	note A#, 2
	octave 3
	note C_, 2
	octave 2
	note G_, 2
	note A#, 2
	octave 3
	note C_, 2
	octave 2
	note G_, 2
	note A#, 2
;Bar 10
	octave 3
	note C_, 2
	octave 2
	note G_, 2
	note A#, 2
	octave 3
	note C_, 2
	octave 2
	note G_, 2
	note A#, 2
	octave 3
	note C_, 2
	octave 2
	note G_, 2
;Bar 11
	rest 2
	note A#, 2
	octave 3
	note C_, 2
	octave 2
	note G_, 2
	note A#, 2
	octave 3
	note C_, 2
	octave 2
	note G_, 2
	note A#, 2
;Bar 12
	octave 3
	note C_, 2
	octave 2
	note G_, 2
	note A#, 2
	octave 3
	note C_, 2
	octave 2
	note G_, 2
	note A#, 2
	octave 3
	note C_, 2
	octave 2
	note G_, 2
;Bar 13
	rest 2
	note G#, 2
	note A#, 2
	note F_, 2
	note G#, 2
	note A#, 2
	note F_, 2
	note G#, 2
;Bar 14
	note A#, 2
	note F_, 2
	note G#, 2
	note A#, 2
	note F_, 2
	note G#, 2
	note A#, 2
	note F_, 2
;Bar 15
	rest 2
	note G#, 2
	note A#, 2
	note F_, 2
	note G#, 2
	note A#, 2
	note F_, 2
	note G#, 2
;Bar 16
	note A#, 2
	note F_, 2
	note G#, 2
	note A#, 2
	note F_, 2
	note G#, 2
	note A#, 2
	note F_, 2
;Bar 17
	rest 16
	rest 16
	rest 16
	rest 16
	rest 16
	rest 16
	rest 16
	rest 16
	rest 16
	rest 16
	rest 16
	rest 16
	rest 16
	rest 16
	rest 16
	rest 16
	rest 16
	rest 16
	rest 16
	rest 16
	rest 15
;Bar 37
	note A#, 2
	octave 3
	note C_, 2
	octave 2
	note G_, 2
	note A#, 2
	octave 3
	note C_, 2
	octave 2
	note G_, 2
	note A#, 2
;Bar 38
	octave 3
	note C_, 2
	octave 2
	note G_, 2
	note A#, 2
	octave 3
	note C_, 2
	octave 2
	note G_, 2
	note A#, 2
	octave 3
	note C_, 2
	octave 2
	note G_, 2
;Bar 39
	rest 2
	note A#, 2
	octave 3
	note C_, 2
	octave 2
	note G_, 2
	note A#, 2
	octave 3
	note C_, 2
	octave 2
	note G_, 2
	note A#, 2
;Bar 40
	octave 3
	note C_, 2
	octave 2
	note G_, 2
	note A#, 2
	octave 3
	note C_, 2
	octave 2
	note G_, 2
	note A#, 2
	octave 3
	note C_, 2
	octave 2
	note G_, 2
;Bar 41
	rest 2
	note G#, 2
	note A#, 2
	note F_, 2
	note G#, 2
	note A#, 2
	note F_, 2
	note G#, 2
;Bar 42
	note A#, 2
	note F_, 2
	note G#, 2
	note A#, 2
	note F_, 2
	note G#, 2
	note A#, 2
	note F_, 2
;Bar 43
	rest 2
	note G#, 2
	note A#, 2
	note F_, 2
	note G#, 2
	note A#, 2
	note F_, 2
	note G#, 2
;Bar 44
	note A#, 2
	note F_, 2
	note G#, 2
	note A#, 2
	note F_, 2
	note G#, 2
	note A#, 2
	note F_, 2
;Bar 45
	rest 16
	rest 16
	rest 16
	rest 16
	rest 16
	rest 16
	rest 16
	rest 16
	rest 16
	rest 16
	rest 16
	rest 16
	rest 16
	rest 16
	rest 16
	rest 16
	rest 16
	rest 16
	rest 16
	rest 16
	rest 16
;Bar 65
	note A#, 2
	octave 3
	note C_, 2
	octave 2
	note G_, 2
	note A#, 2
	octave 3
	note C_, 2
	octave 2
	note G_, 2
	note A#, 2
;Bar 66
	octave 3
	note C_, 2
	octave 2
	note G_, 2
	note A#, 2
	octave 3
	note C_, 2
	octave 2
	note G_, 2
	note A#, 2
	octave 3
	note C_, 2
	octave 2
	note G_, 2
;Bar 67
	rest 2
	note A#, 2
	octave 3
	note C_, 2
	octave 2
	note G_, 2
	note A#, 2
	octave 3
	note C_, 2
	octave 2
	note G_, 2
	note A#, 2
;Bar 68
	octave 3
	note C_, 2
	octave 2
	note G_, 2
	note A#, 2
	octave 3
	note C_, 2
	octave 2
	note G_, 2
	note A#, 2
	octave 3
	note C_, 2
	octave 2
	note G_, 2
;Bar 69
	rest 2
	note G#, 2
	note A#, 2
	note F_, 2
	note G#, 2
	note A#, 2
	note F_, 2
	note G#, 2
;Bar 70
	note A#, 2
	note F_, 2
	note G#, 2
	note A#, 2
	note F_, 2
	note G#, 2
	note A#, 2
	note F_, 2
;Bar 71
	rest 2
	note G#, 2
	note A#, 2
	note F_, 2
	note G#, 2
	note A#, 2
	note F_, 2
	note G#, 2
;Bar 72
	note A#, 2
	note F_, 2
	note G#, 2
	note A#, 2
	note F_, 2
	note G#, 2
	note A#, 2
	note F_, 2
	sound_ret

; ============================================================================================================

Music_BarrelVolcano_Ch3:
	note_type 12, 1, 2
;Bar 1
	rest 16
	rest 16
	rest 16
	rest 16
	rest 16
	rest 16
	rest 16
	rest 16
	rest 16
	rest 16
	rest 16
	rest 16
	rest 16
	rest 16
	rest 16
	rest 16
;Bar 17
	octave 3
	;note D#, 0
	note G_, 2
	;note F_, 0
	note A#, 2
	;note G_, 0
	octave 4
	note C_, 2
	octave 3
	;note D#, 0
	note G_, 2
	;note F_, 0
	note A#, 2
	;note G_, 0
	octave 4
	note C_, 2
	octave 3
	;note D#, 0
	note G_, 2
	;note F_, 0
	note A#, 2
;Bar 18
	;note G_, 0
	octave 4
	note C_, 2
	octave 3
	;note D#, 0
	note G_, 2
	;note F_, 0
	note A#, 2
	;note G_, 0
	octave 4
	note C_, 2
	octave 3
	;note D#, 0
	note G_, 2
	;note F_, 0
	note A#, 2
	;note G_, 0
	octave 4
	note C_, 2
	octave 3
	;note D#, 0
	note G_, 2
;Bar 19
	;note C#, 0
	note F_, 2
	;note D#, 0
	note G#, 2
	;note F_, 0
	note A#, 2
	;note C#, 0
	note F_, 2
	;note D#, 0
	note G#, 2
	;note F_, 0
	note A#, 2
	;note C#, 0
	note F_, 2
	;note D#, 0
	note G#, 2
;Bar 20
	;note F_, 0
	note A#, 2
	;note C#, 0
	note F_, 2
	;note D#, 0
	note G#, 2
	;note F_, 0
	note A#, 2
	;note C#, 0
	note F_, 2
	;note D#, 0
	note G#, 2
	;note F_, 0
	note A#, 2
	;note C#, 0
	note F_, 2
;Bar 21
	octave 4
	;note D#, 0
	note G_, 1
	;note D#, 0
	note G_, 1
	;note D#, 0
	note G_, 1
	;note C_, 0
	note D#, 2
	octave 3
	;note A#, 0
	octave 4
	note D_, 2
	;note C_, 0
	note D#, 2
	octave 3
	;note G_, 0
	octave 4
	note C_, 2
	octave 3
	;note A#, 0
	octave 4
	note D_, 2
	;note C_, 0
	note D#, 2
	;note D_, 0
	note F_, 1
	;note D_, 0
	note F_, 1
	;note D_, 0
	note F_, 1
;Bar 22
	;note D#, 0
	note G_, 2
	;note C_, 0
	note D#, 2
	octave 3
	;note A#, 0
	octave 4
	note D_, 2
	;note C_, 0
	note D#, 2
	octave 3
	;note G_, 0
	octave 4
	note C_, 1
	octave 3
	;note G_, 0
	octave 4
	note C_, 1
	octave 3
	;note G_, 0
	octave 4
	note C_, 1
	octave 3
	;note A#, 0
	octave 4
	note D_, 2
	;note C_, 0
	note D#, 2
	octave 3
	;note G_, 0
	octave 4
	note C_, 2
;Bar 23
	;note D#, 0
	note G_, 1
	;note D#, 0
	note G_, 1
	;note D#, 0
	note G_, 1
	;note C_, 0
	note D#, 2
	octave 3
	;note A#, 0
	octave 4
	note D_, 2
	;note C_, 0
	note D#, 2
	octave 3
	;note G_, 0
	octave 4
	note C_, 2
	octave 3
	;note A#, 0
	octave 4
	note D_, 2
	;note C_, 0
	note D#, 2
	;note D_, 0
	note F_, 1
	;note D_, 0
	note F_, 1
	;note D_, 0
	note F_, 1
;Bar 24
	;note D#, 0
	note G_, 2
	;note C_, 0
	note D#, 2
	octave 3
	;note A#, 0
	octave 4
	note D_, 2
	;note C_, 0
	note D#, 2
	octave 3
	;note G_, 0
	octave 4
	note C_, 1
	octave 3
	;note G_, 0
	octave 4
	note C_, 1
	octave 3
	;note G_, 0
	octave 4
	note C_, 1
	octave 3
	;note A#, 0
	octave 4
	note D_, 2
	;note C_, 0
	note D#, 2
	octave 3
	;note G_, 0
	octave 4
	note C_, 2
;Bar 25
	;note C#, 0
	note F_, 1
	;note C#, 0
	note F_, 1
	;note C#, 0
	note F_, 1
	octave 3
	;note A#, 0
	octave 4
	note C#, 2
	octave 3
	;note G#, 0
	octave 4
	note C_, 2
	octave 3
	;note A#, 0
	octave 4
	note C#, 2
	octave 3
	;note F_, 0
	note A#, 2
	;note G#, 0
	octave 4
	note C_, 2
	octave 3
	;note A#, 0
	octave 4
	note C#, 2
	;note C_, 0
	note D#, 1
	;note C_, 0
	note D#, 1
	;note C_, 0
	note D#, 1
;Bar 26
	;note C#, 0
	note F_, 2
	octave 3
	;note A#, 0
	octave 4
	note C#, 2
	octave 3
	;note G#, 0
	octave 4
	note C_, 2
	octave 3
	;note A#, 0
	octave 4
	note C#, 2
	octave 3
	;note F_, 0
	note A#, 1
	;note F_, 0
	note A#, 1
	;note F_, 0
	note A#, 1
	;note G#, 0
	octave 4
	note C_, 2
	octave 3
	;note A#, 0
	octave 4
	note C#, 2
	octave 3
	;note F_, 0
	note A#, 2
;Bar 27
	octave 4
	;note C#, 0
	note F_, 1
	;note C#, 0
	note F_, 1
	;note C#, 0
	note F_, 1
	octave 3
	;note A#, 0
	octave 4
	note C#, 2
	octave 3
	;note G#, 0
	octave 4
	note C_, 2
	octave 3
	;note A#, 0
	octave 4
	note C#, 2
	octave 3
	;note F_, 0
	note A#, 2
	;note G#, 0
	octave 4
	note C_, 2
	octave 3
	;note A#, 0
	octave 4
	note C#, 2
	;note C_, 0
	note D#, 1
	;note C_, 0
	note D#, 1
	;note C_, 0
	note D#, 1
;Bar 28
	;note C#, 0
	note F_, 2
	octave 3
	;note A#, 0
	octave 4
	note C#, 2
	octave 3
	;note G#, 0
	octave 4
	note C_, 2
	octave 3
	;note A#, 0
	octave 4
	note C#, 2
	octave 3
	;note F_, 0
	note A#, 1
	;note F_, 0
	note A#, 1
	;note F_, 0
	note A#, 1
	;note G#, 0
	octave 4
	note C_, 2
	octave 3
	;note A#, 0
	octave 4
	note C#, 2
	octave 3
	;note F_, 0
	note A#, 2
;Bar 29
	rest 16
	rest 16
	rest 16
	rest 16
	rest 16
	rest 16
	rest 16
	rest 16
	rest 16
	rest 16
	rest 16
	rest 16
	rest 16
	rest 16
	rest 16
	rest 16
;Bar 45
	;note D#, 0
	note G_, 2
	;note F_, 0
	note A#, 2
	;note G_, 0
	octave 4
	note C_, 2
	octave 3
	;note D#, 0
	note G_, 2
	;note F_, 0
	note A#, 2
	;note G_, 0
	octave 4
	note C_, 2
	octave 3
	;note D#, 0
	note G_, 2
	;note F_, 0
	note A#, 2
;Bar 46
	;note G_, 0
	octave 4
	note C_, 2
	octave 3
	;note D#, 0
	note G_, 2
	;note F_, 0
	note A#, 2
	;note G_, 0
	octave 4
	note C_, 2
	octave 3
	;note D#, 0
	note G_, 2
	;note F_, 0
	note A#, 2
	;note G_, 0
	octave 4
	note C_, 2
	octave 3
	;note D#, 0
	note G_, 2
;Bar 47
	;note C#, 0
	note F_, 2
	;note D#, 0
	note G#, 2
	;note F_, 0
	note A#, 2
	;note C#, 0
	note F_, 2
	;note D#, 0
	note G#, 2
	;note F_, 0
	note A#, 2
	;note C#, 0
	note F_, 2
	;note D#, 0
	note G#, 2
;Bar 48
	;note F_, 0
	note A#, 2
	;note C#, 0
	note F_, 2
	;note D#, 0
	note G#, 2
	;note F_, 0
	note A#, 2
	;note C#, 0
	note F_, 2
	;note D#, 0
	note G#, 2
	;note F_, 0
	note A#, 2
	;note C#, 0
	note F_, 2
;Bar 49
	octave 4
	;note D#, 0
	note G_, 1
	;note D#, 0
	note G_, 1
	;note D#, 0
	note G_, 1
	;note C_, 0
	note D#, 2
	octave 3
	;note A#, 0
	octave 4
	note D_, 2
	;note C_, 0
	note D#, 2
	octave 3
	;note G_, 0
	octave 4
	note C_, 2
	octave 3
	;note A#, 0
	octave 4
	note D_, 2
	;note C_, 0
	note D#, 2
	;note D_, 0
	note F_, 1
	;note D_, 0
	note F_, 1
	;note D_, 0
	note F_, 1
;Bar 50
	;note D#, 0
	note G_, 2
	;note C_, 0
	note D#, 2
	octave 3
	;note A#, 0
	octave 4
	note D_, 2
	;note C_, 0
	note D#, 2
	octave 3
	;note G_, 0
	octave 4
	note C_, 1
	octave 3
	;note G_, 0
	octave 4
	note C_, 1
	octave 3
	;note G_, 0
	octave 4
	note C_, 1
	octave 3
	;note A#, 0
	octave 4
	note D_, 2
	;note C_, 0
	note D#, 2
	octave 3
	;note G_, 0
	octave 4
	note C_, 2
;Bar 51
	;note D#, 0
	note G_, 1
	;note D#, 0
	note G_, 1
	;note D#, 0
	note G_, 1
	;note C_, 0
	note D#, 2
	octave 3
	;note A#, 0
	octave 4
	note D_, 2
	;note C_, 0
	note D#, 2
	octave 3
	;note G_, 0
	octave 4
	note C_, 2
	octave 3
	;note A#, 0
	octave 4
	note D_, 2
	;note C_, 0
	note D#, 2
	;note D_, 0
	note F_, 1
	;note D_, 0
	note F_, 1
	;note D_, 0
	note F_, 1
;Bar 52
	;note D#, 0
	note G_, 2
	;note C_, 0
	note D#, 2
	octave 3
	;note A#, 0
	octave 4
	note D_, 2
	;note C_, 0
	note D#, 2
	octave 3
	;note G_, 0
	octave 4
	note C_, 1
	octave 3
	;note G_, 0
	octave 4
	note C_, 1
	octave 3
	;note G_, 0
	octave 4
	note C_, 1
	octave 3
	;note A#, 0
	octave 4
	note D_, 2
	;note C_, 0
	note D#, 2
	octave 3
	;note G_, 0
	octave 4
	note C_, 2
;Bar 53
	;note C#, 0
	note F_, 1
	;note C#, 0
	note F_, 1
	;note C#, 0
	note F_, 1
	octave 3
	;note A#, 0
	octave 4
	note C#, 2
	octave 3
	;note G#, 0
	octave 4
	note C_, 2
	octave 3
	;note A#, 0
	octave 4
	note C#, 2
	octave 3
	;note F_, 0
	note A#, 2
	;note G#, 0
	octave 4
	note C_, 2
	octave 3
	;note A#, 0
	octave 4
	note C#, 2
	;note C_, 0
	note D#, 1
	;note C_, 0
	note D#, 1
	;note C_, 0
	note D#, 1
;Bar 54
	;note C#, 0
	note F_, 2
	octave 3
	;note A#, 0
	octave 4
	note C#, 2
	octave 3
	;note G#, 0
	octave 4
	note C_, 2
	octave 3
	;note A#, 0
	octave 4
	note C#, 2
	octave 3
	;note F_, 0
	note A#, 1
	;note F_, 0
	note A#, 1
	;note F_, 0
	note A#, 1
	;note G#, 0
	octave 4
	note C_, 2
	octave 3
	;note A#, 0
	octave 4
	note C#, 2
	octave 3
	;note F_, 0
	note A#, 2
;Bar 55
	octave 4
	;note C#, 0
	note F_, 1
	;note C#, 0
	note F_, 1
	;note C#, 0
	note F_, 1
	octave 3
	;note A#, 0
	octave 4
	note C#, 2
	octave 3
	;note G#, 0
	octave 4
	note C_, 2
	octave 3
	;note A#, 0
	octave 4
	note C#, 2
	octave 3
	;note F_, 0
	note A#, 2
	;note G#, 0
	octave 4
	note C_, 2
	octave 3
	;note A#, 0
	octave 4
	note C#, 2
	;note C_, 0
	note D#, 1
	;note C_, 0
	note D#, 1
	;note C_, 0
	note D#, 1
;Bar 56
	;note C#, 0
	note F_, 2
	octave 3
	;note A#, 0
	octave 4
	note C#, 2
	octave 3
	;note G#, 0
	octave 4
	note C_, 2
	octave 3
	;note A#, 0
	octave 4
	note C#, 2
	octave 3
	;note F_, 0
	note A#, 1
	;note F_, 0
	note A#, 1
	;note F_, 0
	note A#, 1
	;note G#, 0
	octave 4
	note C_, 2
	octave 3
	;note A#, 0
	octave 4
	note C#, 2
	octave 3
	;note F_, 0
	note A#, 2
;Bar 57
	rest 16
	rest 16
	rest 16
	rest 16
	rest 16
	rest 16
	rest 16
	rest 16
	rest 16
	rest 16
	rest 16
	rest 16
	rest 16
	rest 16
	rest 16
	rest 16
;Bar 73
	;note D#, 0
	note G_, 2
	;note F_, 0
	note A#, 2
	;note G_, 0
	octave 4
	note C_, 2
	octave 3
	;note D#, 0
	note G_, 2
	;note F_, 0
	note A#, 2
	;note G_, 0
	octave 4
	note C_, 2
	octave 3
	;note D#, 0
	note G_, 2
	;note F_, 0
	note A#, 2
;Bar 74
	;note G_, 0
	octave 4
	note C_, 2
	octave 3
	;note D#, 0
	note G_, 2
	;note F_, 0
	note A#, 2
	;note G_, 0
	octave 4
	note C_, 2
	octave 3
	;note D#, 0
	note G_, 2
	;note F_, 0
	note A#, 2
	;note G_, 0
	octave 4
	note C_, 2
	octave 3
	;note D#, 0
	note G_, 2
;Bar 75
	;note C#, 0
	note F_, 2
	;note D#, 0
	note G#, 2
	;note F_, 0
	note A#, 2
	;note C#, 0
	note F_, 2
	;note D#, 0
	note G#, 2
	;note F_, 0
	note A#, 2
	;note C#, 0
	note F_, 2
	;note D#, 0
	note G#, 2
;Bar 76
	;note F_, 0
	note A#, 2
	;note C#, 0
	note F_, 2
	;note D#, 0
	note G#, 2
	;note F_, 0
	note A#, 2
	;note C#, 0
	note F_, 2
	;note D#, 0
	note G#, 2
	;note F_, 0
	note A#, 2
	;note C#, 0
	note F_, 2
;Bar 77
	octave 4
	;note D#, 0
	note G_, 1
	;note D#, 0
	note G_, 1
	;note D#, 0
	note G_, 1
	;note C_, 0
	note D#, 2
	octave 3
	;note A#, 0
	octave 4
	note D_, 2
	;note C_, 0
	note D#, 2
	octave 3
	;note G_, 0
	octave 4
	note C_, 2
	octave 3
	;note A#, 0
	octave 4
	note D_, 2
	;note C_, 0
	note D#, 2
	;note D_, 0
	note F_, 1
	;note D_, 0
	note F_, 1
	;note D_, 0
	note F_, 1
;Bar 78
	;note D#, 0
	note G_, 2
	;note C_, 0
	note D#, 2
	octave 3
	;note A#, 0
	octave 4
	note D_, 2
	;note C_, 0
	note D#, 2
	octave 3
	;note G_, 0
	octave 4
	note C_, 1
	octave 3
	;note G_, 0
	octave 4
	note C_, 1
	octave 3
	;note G_, 0
	octave 4
	note C_, 1
	octave 3
	;note A#, 0
	octave 4
	note D_, 2
	;note C_, 0
	note D#, 2
	octave 3
	;note G_, 0
	octave 4
	note C_, 2
;Bar 79
	;note D#, 0
	note G_, 1
	;note D#, 0
	note G_, 1
	;note D#, 0
	note G_, 1
	;note C_, 0
	note D#, 2
	octave 3
	;note A#, 0
	octave 4
	note D_, 2
	;note C_, 0
	note D#, 2
	octave 3
	;note G_, 0
	octave 4
	note C_, 2
	octave 3
	;note A#, 0
	octave 4
	note D_, 2
	;note C_, 0
	note D#, 2
	;note D_, 0
	note F_, 1
	;note D_, 0
	note F_, 1
	;note D_, 0
	note F_, 1
;Bar 80
	;note D#, 0
	note G_, 2
	;note C_, 0
	note D#, 2
	octave 3
	;note A#, 0
	octave 4
	note D_, 2
	;note C_, 0
	note D#, 2
	octave 3
	;note G_, 0
	octave 4
	note C_, 1
	octave 3
	;note G_, 0
	octave 4
	note C_, 1
	octave 3
	;note G_, 0
	octave 4
	note C_, 1
	octave 3
	;note A#, 0
	octave 4
	note D_, 2
	;note C_, 0
	note D#, 2
	octave 3
	;note G_, 0
	octave 4
	note C_, 2
;Bar 81
	;note C#, 0
	note F_, 1
	;note C#, 0
	note F_, 1
	;note C#, 0
	note F_, 1
	octave 3
	;note A#, 0
	octave 4
	note C#, 2
	octave 3
	;note G#, 0
	octave 4
	note C_, 2
	octave 3
	;note A#, 0
	octave 4
	note C#, 2
	octave 3
	;note F_, 0
	note A#, 2
	;note G#, 0
	octave 4
	note C_, 2
	octave 3
	;note A#, 0
	octave 4
	note C#, 2
	;note C_, 0
	note D#, 1
	;note C_, 0
	note D#, 1
	;note C_, 0
	note D#, 1
;Bar 82
	;note C#, 0
	note F_, 2
	octave 3
	;note A#, 0
	octave 4
	note C#, 2
	octave 3
	;note G#, 0
	octave 4
	note C_, 2
	octave 3
	;note A#, 0
	octave 4
	note C#, 2
	octave 3
	;note F_, 0
	note A#, 1
	;note F_, 0
	note A#, 1
	;note F_, 0
	note A#, 1
	;note G#, 0
	octave 4
	note C_, 2
	octave 3
	;note A#, 0
	octave 4
	note C#, 2
	octave 3
	;note F_, 0
	note A#, 2
;Bar 83
	octave 4
	;note C#, 0
	note F_, 1
	;note C#, 0
	note F_, 1
	;note C#, 0
	note F_, 1
	octave 3
	;note A#, 0
	octave 4
	note C#, 2
	octave 3
	;note G#, 0
	octave 4
	note C_, 2
	octave 3
	;note A#, 0
	octave 4
	note C#, 2
	octave 3
	;note F_, 0
	note A#, 2
	;note G#, 0
	octave 4
	note C_, 2
	octave 3
	;note A#, 0
	octave 4
	note C#, 2
	;note C_, 0
	note D#, 1
	;note C_, 0
	note D#, 1
	;note C_, 0
	note D#, 1
;Bar 84
	;note C#, 0
	note F_, 2
	octave 3
	;note A#, 0
	octave 4
	note C#, 2
	octave 3
	;note G#, 0
	octave 4
	note C_, 2
	octave 3
	;note A#, 0
	octave 4
	note C#, 2
	octave 3
	;note F_, 0
	note A#, 1
	;note F_, 0
	note A#, 1
	;note F_, 0
	note A#, 1
	;note G#, 0
	octave 4
	note C_, 2
	octave 3
	;note A#, 0
	octave 4
	note C#, 2
	octave 3
	;note F_, 0
	note A#, 2
	sound_ret

; ============================================================================================================

Music_BarrelVolcano_Ch4:
	toggle_noise 2
	drum_speed 12
;Bar 1
	rest 4
	drum_note 4, 5
	drum_note 4, 3
	drum_note 4, 1
	drum_note 4, 1
	drum_note 4, 1
	drum_note 4, 5
;Bar 2
	drum_note 4, 5
	drum_note 4, 1
	drum_note 4, 2
	drum_note 4, 1
	drum_note 4, 1
	drum_note 4, 1
	drum_note 4, 5
;Bar 3
	drum_note 4, 5
	drum_note 4, 3
	drum_note 4, 1
	drum_note 4, 1
	drum_note 4, 1
	drum_note 4, 5
;Bar 4
	drum_note 4, 5
	drum_note 4, 1
	drum_note 4, 2
	drum_note 4, 1
	drum_note 4, 1
	drum_note 4, 1
	drum_note 4, 5
;Bar 5
	drum_note 4, 5
	drum_note 4, 3
	drum_note 4, 1
	drum_note 4, 1
	drum_note 4, 1
	drum_note 4, 5
;Bar 6
	drum_note 4, 5
	drum_note 4, 1
	drum_note 4, 2
	drum_note 4, 1
	drum_note 4, 1
	drum_note 4, 1
	drum_note 4, 5
;Bar 7
	drum_note 4, 5
	drum_note 4, 3
	drum_note 4, 1
	drum_note 4, 1
	drum_note 4, 1
	drum_note 4, 5
;Bar 8
	drum_note 4, 5
	drum_note 4, 1
	drum_note 4, 2
	drum_note 4, 1
	drum_note 4, 1
	drum_note 4, 1
	drum_note 4, 5
;Bar 9
	drum_note 4, 5
	drum_note 4, 3
	drum_note 4, 1
	drum_note 4, 1
	drum_note 4, 1
	drum_note 4, 5
;Bar 10
	drum_note 4, 5
	drum_note 4, 1
	drum_note 4, 2
	drum_note 4, 1
	drum_note 4, 1
	drum_note 4, 1
	drum_note 4, 5
;Bar 11
	drum_note 4, 5
	drum_note 4, 3
	drum_note 4, 1
	drum_note 4, 1
	drum_note 4, 1
	drum_note 4, 5
;Bar 12
	drum_note 4, 5
	drum_note 4, 1
	drum_note 4, 2
	drum_note 4, 1
	drum_note 4, 1
	drum_note 4, 1
	drum_note 4, 5
;Bar 13
	drum_note 4, 5
	drum_note 4, 3
	drum_note 4, 1
	drum_note 4, 1
	drum_note 4, 1
	drum_note 4, 5
;Bar 14
	drum_note 4, 5
	drum_note 4, 1
	drum_note 4, 2
	drum_note 4, 1
	drum_note 4, 1
	drum_note 4, 1
	drum_note 4, 5
;Bar 15
	drum_note 4, 5
	drum_note 4, 3
	drum_note 4, 1
	drum_note 4, 1
	drum_note 4, 1
	drum_note 4, 5
;Bar 16
	drum_note 4, 5
	drum_note 4, 1
	drum_note 4, 2
	drum_note 4, 1
	drum_note 4, 1
	drum_note 4, 1
	drum_note 4, 5
;Bar 17
	drum_note 4, 5
	drum_note 4, 3
	drum_note 4, 1
	drum_note 4, 1
	drum_note 4, 1
	drum_note 4, 5
;Bar 18
	drum_note 4, 5
	drum_note 4, 1
	drum_note 4, 2
	drum_note 4, 1
	drum_note 4, 1
	drum_note 4, 1
	drum_note 4, 5
;Bar 19
	drum_note 4, 5
	drum_note 4, 3
	drum_note 4, 1
	drum_note 4, 1
	drum_note 4, 1
	drum_note 4, 5
;Bar 20
	drum_note 4, 5
	drum_note 4, 1
	drum_note 4, 2
	drum_note 4, 1
	drum_note 4, 1
	drum_note 4, 1
	drum_note 4, 5
;Bar 21
	drum_note 4, 5
	drum_note 4, 3
	drum_note 4, 1
	drum_note 4, 1
	drum_note 4, 1
	drum_note 4, 5
;Bar 22
	drum_note 4, 5
	drum_note 4, 1
	drum_note 4, 2
	drum_note 4, 1
	drum_note 4, 1
	drum_note 4, 1
	drum_note 4, 5
;Bar 23
	drum_note 4, 5
	drum_note 4, 3
	drum_note 4, 1
	drum_note 4, 1
	drum_note 4, 1
	drum_note 4, 5
;Bar 24
	drum_note 4, 5
	drum_note 4, 1
	drum_note 4, 2
	drum_note 4, 1
	drum_note 4, 1
	drum_note 4, 1
	drum_note 4, 5
;Bar 25
	drum_note 4, 5
	drum_note 4, 3
	drum_note 4, 1
	drum_note 4, 1
	drum_note 4, 1
	drum_note 4, 5
;Bar 26
	drum_note 4, 5
	drum_note 4, 1
	drum_note 4, 2
	drum_note 4, 1
	drum_note 4, 1
	drum_note 4, 1
	drum_note 4, 5
;Bar 27
	drum_note 4, 5
	drum_note 4, 3
	drum_note 4, 1
	drum_note 4, 1
	drum_note 4, 1
	drum_note 4, 5
;Bar 28
	drum_note 4, 5
	drum_note 4, 1
	drum_note 4, 2
	drum_note 4, 1
	drum_note 4, 1
	drum_note 4, 1
	drum_note 4, 5
;Bar 29
	drum_note 4, 5
	drum_note 4, 3
	drum_note 4, 1
	drum_note 4, 1
	drum_note 4, 1
	drum_note 4, 5
;Bar 30
	drum_note 4, 5
	drum_note 4, 1
	drum_note 4, 2
	drum_note 4, 1
	drum_note 4, 1
	drum_note 4, 1
	drum_note 4, 5
;Bar 31
	drum_note 4, 5
	drum_note 4, 3
	drum_note 4, 1
	drum_note 4, 1
	drum_note 4, 1
	drum_note 4, 5
;Bar 32
	drum_note 4, 5
	drum_note 4, 1
	drum_note 4, 2
	drum_note 4, 1
	drum_note 4, 1
	drum_note 4, 1
	drum_note 4, 5
;Bar 33
	drum_note 4, 5
	drum_note 4, 3
	drum_note 4, 1
	drum_note 4, 1
	drum_note 4, 1
	drum_note 4, 5
;Bar 34
	drum_note 4, 5
	drum_note 4, 1
	drum_note 4, 2
	drum_note 4, 1
	drum_note 4, 1
	drum_note 4, 1
	drum_note 4, 5
;Bar 35
	drum_note 4, 5
	drum_note 4, 3
	drum_note 4, 1
	drum_note 4, 1
	drum_note 4, 1
	drum_note 4, 5
;Bar 36
	drum_note 4, 5
	drum_note 4, 1
	drum_note 4, 2
	drum_note 4, 1
	drum_note 4, 1
	drum_note 4, 1
	drum_note 4, 5
;Bar 37
	drum_note 4, 5
	drum_note 4, 3
	drum_note 4, 1
	drum_note 4, 1
	drum_note 4, 1
	drum_note 4, 5
;Bar 38
	drum_note 4, 5
	drum_note 4, 1
	drum_note 4, 2
	drum_note 4, 1
	drum_note 4, 1
	drum_note 4, 1
	drum_note 4, 5
;Bar 39
	drum_note 4, 5
	drum_note 4, 3
	drum_note 4, 1
	drum_note 4, 1
	drum_note 4, 1
	drum_note 4, 5
;Bar 40
	drum_note 4, 5
	drum_note 4, 1
	drum_note 4, 2
	drum_note 4, 1
	drum_note 4, 1
	drum_note 4, 1
	drum_note 4, 5
;Bar 41
	drum_note 4, 5
	drum_note 4, 3
	drum_note 4, 1
	drum_note 4, 1
	drum_note 4, 1
	drum_note 4, 5
;Bar 42
	drum_note 4, 5
	drum_note 4, 1
	drum_note 4, 2
	drum_note 4, 1
	drum_note 4, 1
	drum_note 4, 1
	drum_note 4, 5
;Bar 43
	drum_note 4, 5
	drum_note 4, 3
	drum_note 4, 1
	drum_note 4, 1
	drum_note 4, 1
	drum_note 4, 5
;Bar 44
	drum_note 4, 5
	drum_note 4, 1
	drum_note 4, 2
	drum_note 4, 1
	drum_note 4, 1
	drum_note 4, 1
	drum_note 4, 5
;Bar 45
	drum_note 4, 5
	drum_note 4, 3
	drum_note 4, 1
	drum_note 4, 1
	drum_note 4, 1
	drum_note 4, 5
;Bar 46
	drum_note 4, 5
	drum_note 4, 1
	drum_note 4, 2
	drum_note 4, 1
	drum_note 4, 1
	drum_note 4, 1
	drum_note 4, 5
;Bar 47
	drum_note 4, 5
	drum_note 4, 3
	drum_note 4, 1
	drum_note 4, 1
	drum_note 4, 1
	drum_note 4, 5
;Bar 48
	drum_note 4, 5
	drum_note 4, 1
	drum_note 4, 2
	drum_note 4, 1
	drum_note 4, 1
	drum_note 4, 1
	drum_note 4, 5
;Bar 49
	drum_note 4, 5
	drum_note 4, 3
	drum_note 4, 1
	drum_note 4, 1
	drum_note 4, 1
	drum_note 4, 5
;Bar 50
	drum_note 4, 5
	drum_note 4, 1
	drum_note 4, 2
	drum_note 4, 1
	drum_note 4, 1
	drum_note 4, 1
	drum_note 4, 5
;Bar 51
	drum_note 4, 5
	drum_note 4, 3
	drum_note 4, 1
	drum_note 4, 1
	drum_note 4, 1
	drum_note 4, 5
;Bar 52
	drum_note 4, 5
	drum_note 4, 1
	drum_note 4, 2
	drum_note 4, 1
	drum_note 4, 1
	drum_note 4, 1
	drum_note 4, 5
;Bar 53
	drum_note 4, 5
	drum_note 4, 3
	drum_note 4, 1
	drum_note 4, 1
	drum_note 4, 1
	drum_note 4, 5
;Bar 54
	drum_note 4, 5
	drum_note 4, 1
	drum_note 4, 2
	drum_note 4, 1
	drum_note 4, 1
	drum_note 4, 1
	drum_note 4, 5
;Bar 55
	drum_note 4, 5
	drum_note 4, 3
	drum_note 4, 1
	drum_note 4, 1
	drum_note 4, 1
	drum_note 4, 5
;Bar 56
	drum_note 4, 5
	drum_note 4, 1
	drum_note 4, 2
	drum_note 4, 1
	drum_note 4, 1
	drum_note 4, 1
	drum_note 4, 5
;Bar 57
	drum_note 4, 5
	drum_note 4, 3
	drum_note 4, 1
	drum_note 4, 1
	drum_note 4, 1
	drum_note 4, 5
;Bar 58
	drum_note 4, 5
	drum_note 4, 1
	drum_note 4, 2
	drum_note 4, 1
	drum_note 4, 1
	drum_note 4, 1
	drum_note 4, 5
;Bar 59
	drum_note 4, 5
	drum_note 4, 3
	drum_note 4, 1
	drum_note 4, 1
	drum_note 4, 1
	drum_note 4, 5
;Bar 60
	drum_note 4, 5
	drum_note 4, 1
	drum_note 4, 2
	drum_note 4, 1
	drum_note 4, 1
	drum_note 4, 1
	drum_note 4, 5
;Bar 61
	drum_note 4, 5
	drum_note 4, 3
	drum_note 4, 1
	drum_note 4, 1
	drum_note 4, 1
	drum_note 4, 5
;Bar 62
	drum_note 4, 5
	drum_note 4, 1
	drum_note 4, 2
	drum_note 4, 1
	drum_note 4, 1
	drum_note 4, 1
	drum_note 4, 5
;Bar 63
	drum_note 4, 5
	drum_note 4, 3
	drum_note 4, 1
	drum_note 4, 1
	drum_note 4, 1
	drum_note 4, 5
;Bar 64
	drum_note 4, 5
	drum_note 4, 1
	drum_note 4, 2
	drum_note 4, 1
	drum_note 4, 1
	drum_note 4, 1
	drum_note 4, 5
;Bar 65
	drum_note 4, 5
	drum_note 4, 3
	drum_note 4, 1
	drum_note 4, 1
	drum_note 4, 1
	drum_note 4, 5
;Bar 66
	drum_note 4, 5
	drum_note 4, 1
	drum_note 4, 2
	drum_note 4, 1
	drum_note 4, 1
	drum_note 4, 1
	drum_note 4, 5
;Bar 67
	drum_note 4, 5
	drum_note 4, 3
	drum_note 4, 1
	drum_note 4, 1
	drum_note 4, 1
	drum_note 4, 5
;Bar 68
	drum_note 4, 5
	drum_note 4, 1
	drum_note 4, 2
	drum_note 4, 1
	drum_note 4, 1
	drum_note 4, 1
	drum_note 4, 5
;Bar 69
	drum_note 4, 5
	drum_note 4, 3
	drum_note 4, 1
	drum_note 4, 1
	drum_note 4, 1
	drum_note 4, 5
;Bar 70
	drum_note 4, 5
	drum_note 4, 1
	drum_note 4, 2
	drum_note 4, 1
	drum_note 4, 1
	drum_note 4, 1
	drum_note 4, 5
;Bar 71
	drum_note 4, 5
	drum_note 4, 3
	drum_note 4, 1
	drum_note 4, 1
	drum_note 4, 1
	drum_note 4, 5
;Bar 72
	drum_note 4, 5
	drum_note 4, 1
	drum_note 4, 2
	drum_note 4, 1
	drum_note 4, 1
	drum_note 4, 1
	drum_note 4, 5
;Bar 73
	drum_note 4, 5
	drum_note 4, 3
	drum_note 4, 1
	drum_note 4, 1
	drum_note 4, 1
	drum_note 4, 5
;Bar 74
	drum_note 4, 5
	drum_note 4, 1
	drum_note 4, 2
	drum_note 4, 1
	drum_note 4, 1
	drum_note 4, 1
	drum_note 4, 5
;Bar 75
	drum_note 4, 5
	drum_note 4, 3
	drum_note 4, 1
	drum_note 4, 1
	drum_note 4, 1
	drum_note 4, 5
;Bar 76
	drum_note 4, 5
	drum_note 4, 1
	drum_note 4, 2
	drum_note 4, 1
	drum_note 4, 1
	drum_note 4, 1
	drum_note 4, 5
;Bar 77
	drum_note 4, 5
	drum_note 4, 3
	drum_note 4, 1
	drum_note 4, 1
	drum_note 4, 1
	drum_note 4, 5
;Bar 78
	drum_note 4, 5
	drum_note 4, 1
	drum_note 4, 2
	drum_note 4, 1
	drum_note 4, 1
	drum_note 4, 1
	drum_note 4, 5
;Bar 79
	drum_note 4, 5
	drum_note 4, 3
	drum_note 4, 1
	drum_note 4, 1
	drum_note 4, 1
	drum_note 4, 5
;Bar 80
	drum_note 4, 5
	drum_note 4, 1
	drum_note 4, 2
	drum_note 4, 1
	drum_note 4, 1
	drum_note 4, 1
	drum_note 4, 5
;Bar 81
	drum_note 4, 5
	drum_note 4, 3
	drum_note 4, 1
	drum_note 4, 1
	drum_note 4, 1
	drum_note 4, 5
;Bar 82
	drum_note 4, 5
	drum_note 4, 1
	drum_note 4, 2
	drum_note 4, 1
	drum_note 4, 1
	drum_note 4, 1
	drum_note 4, 5
;Bar 83
	drum_note 4, 5
	drum_note 4, 3
	drum_note 4, 1
	drum_note 4, 1
	drum_note 4, 1
	drum_note 4, 5
;Bar 84
	drum_note 4, 5
	drum_note 4, 1
	drum_note 4, 2
	drum_note 4, 1
	drum_note 4, 1
	drum_note 4, 1
	drum_note 4, 1
	sound_ret
; ============================================================================================================
