;Coverted using MIDI2ASM
;Code by TriteHexagon
;Version 5.2.0 (16-Nov-2022)
;Visit github.com/TriteHexagon/Midi2ASM-Converter for up-to-date versions.

; ============================================================================================================

Music_Zelda1Cave:
	channel_count 3
	channel 1, Music_Zelda1Cave_Ch1
	channel 2, Music_Zelda1Cave_Ch2
	channel 3, Music_Zelda1Cave_Ch3

Music_Zelda1Cave_Ch1:
	volume 7, 7
	duty_cycle 2
	note_type 12, 10, 7
	tempo 239
;Bar 1
	rest 2
	octave 3
	volume_envelope 11, 7
	note A#, 1
	octave 4
	note D#, 2
	octave 3
	note A#, 2
	octave 4
	note D#, 1
	octave 3
	note A#, 2
	octave 4
	note D#, 2
	octave 3
	note A#, 1
	octave 4
	note D#, 2
	octave 3
	note A_, 2
;Bar 2
	octave 4
	note D#, 1
	octave 3
	note A_, 2
	octave 4
	note D#, 2
	octave 3
	note A_, 1
	octave 4
	note D#, 2
	octave 3
	note A_, 2
	octave 4
	note D#, 1
	octave 3
	note G#, 2
	octave 4
	note D#, 2
;Bar 3
	octave 3
	note G#, 1
	octave 4
	note D#, 2
	octave 3
	note G#, 2
	octave 4
	note D#, 1
	octave 3
	note G#, 2
	octave 4
	note D#, 2
	octave 3
	note G_, 1
	octave 4
	note D#, 2
	octave 3
	note G_, 2
	octave 4
	note D#, 1
;Bar 4
	octave 3
	note G_, 2
	octave 4
	note D#, 2
	octave 3
	note G_, 1
	octave 4
	note D#, 2
	octave 3
	note G_, 2
	octave 4
	note D_, 1
	octave 3
	note G_, 2
	octave 4
	note D_, 2
	octave 3
	note G_, 1
	octave 4
	note D_, 2
;Bar 5
	octave 3
	note G_, 2
	octave 4
	note D_, 1
	octave 3
	note G_, 2
	octave 4
	note D_, 2
	octave 3
	note G_, 1
	octave 4
	note D_, 2
	octave 3
	note G_, 2
	octave 4
	note D_, 1
	octave 3
	note G_, 2
;Bar 6
	octave 4
	note D_, 2
	octave 3
	note F#, 1
	octave 4
	note C_, 2
	octave 3
	note A_, 2
	octave 4
	note D#, 1
	note C_, 2
	note C_, 2
	note F#, 1
	note F#, 2
	note F#, 2
;Bar 7
	octave 5
	note C_, 1
	octave 3
	note A#, 2
	octave 4
	note D#, 2
	octave 3
	note A#, 1
	octave 4
	note D#, 2
	octave 3
	note A#, 2
	octave 4
	note D#, 1
	octave 3
	note A#, 2
	octave 4
	note D#, 2
;Bar 8
	octave 3
	note A_, 1
	octave 4
	note D#, 2
	octave 3
	note A_, 2
	octave 4
	note D#, 1
	octave 3
	note A_, 2
	octave 4
	note D#, 2
	octave 3
	note A_, 1
	octave 4
	note D#, 2
	octave 3
	note G#, 2
	octave 4
	note D#, 1
;Bar 9
	octave 3
	note G#, 2
	octave 4
	note D#, 2
	octave 3
	note G#, 1
	octave 4
	note D#, 2
	octave 3
	note G#, 2
	octave 4
	note D#, 1
	octave 3
	note G_, 2
	octave 4
	note D#, 2
	octave 3
	note G_, 1
	octave 4
	note D#, 2
;Bar 10
	octave 3
	note G_, 2
	octave 4
	note D#, 1
	octave 3
	note G_, 2
	octave 4
	note D#, 2
	octave 3
	note G_, 1
	octave 4
	note D_, 2
	octave 3
	note G_, 2
	octave 4
	note D_, 1
	octave 3
	note G_, 2
;Bar 11
	octave 4
	note D_, 2
	octave 3
	note G_, 1
	octave 4
	note D_, 2
	octave 3
	note G_, 2
	octave 4
	note D_, 1
	octave 3
	note G_, 2
	octave 4
	note D_, 2
	octave 3
	note G_, 1
	octave 4
	note D_, 2
	octave 3
	note G_, 2
;Bar 12
	octave 4
	note D_, 1
	octave 3
	note F#, 2
	octave 4
	note C_, 2
	octave 3
	note A_, 1
	octave 4
	note D#, 2
	note C_, 2
	note C_, 1
	note F#, 2
	note F#, 2
;Bar 13
	note F#, 1
	octave 5
	note C_, 2
	octave 3
	note A#, 2
	octave 4
	note D#, 1
	octave 3
	note A#, 2
	octave 4
	note D#, 2
	octave 3
	note A#, 1
	octave 4
	note D#, 2
	octave 3
	note A#, 2
	octave 4
	note D#, 1
;Bar 14
	octave 3
	note A_, 2
	octave 4
	note D#, 2
	octave 3
	note A_, 1
	octave 4
	note D#, 2
	octave 3
	note A_, 2
	octave 4
	note D#, 1
	octave 3
	note A_, 2
	octave 4
	note D#, 2
	octave 3
	note G#, 1
	octave 4
	note D#, 2
;Bar 15
	octave 3
	note G#, 2
	octave 4
	note D#, 1
	octave 3
	note G#, 2
	octave 4
	note D#, 2
	octave 3
	note G#, 1
	octave 4
	note D#, 2
	octave 3
	note G_, 2
	octave 4
	note D#, 1
	octave 3
	note G_, 2
;Bar 16
	octave 4
	note D#, 2
	octave 3
	note G_, 1
	octave 4
	note D#, 2
	octave 3
	note G_, 2
	octave 4
	note D#, 1
	octave 3
	note G_, 2
	octave 4
	note D_, 2
	octave 3
	note G_, 1
	octave 4
	note D_, 2
	octave 3
	note G_, 2
;Bar 17
	octave 4
	note D_, 1
	octave 3
	note G_, 2
	octave 4
	note D_, 2
	octave 3
	note G_, 1
	octave 4
	note D_, 2
	octave 3
	note G_, 2
	octave 4
	note D_, 1
	octave 3
	note G_, 2
	octave 4
	note D_, 2
;Bar 18
	octave 3
	note G_, 1
	octave 4
	note D_, 2
	octave 3
	note F#, 2
	octave 4
	note C_, 1
	octave 3
	note A_, 2
	octave 4
	note D#, 2
	note C_, 1
	note C_, 2
	note F#, 2
	note F#, 1
;Bar 19
	note F#, 2
	octave 5
	note C_, 2
	octave 3
	note A#, 1
	octave 4
	note D#, 2
	octave 3
	note A#, 2
	octave 4
	note D#, 1
	octave 3
	note A#, 2
	octave 4
	note D#, 2
	octave 3
	note A#, 1
	octave 4
	note D#, 2
;Bar 20
	octave 3
	note A_, 2
	octave 4
	note D#, 1
	octave 3
	note A_, 2
	octave 4
	note D#, 2
	octave 3
	note A_, 1
	octave 4
	note D#, 2
	octave 3
	note A_, 2
	octave 4
	note D#, 1
	octave 3
	note G#, 2
;Bar 21
	octave 4
	note D#, 2
	octave 3
	note G#, 1
	octave 4
	note D#, 2
	octave 3
	note G#, 2
	octave 4
	note D#, 1
	octave 3
	note G#, 2
	octave 4
	note D#, 2
	octave 3
	note G_, 1
	octave 4
	note D#, 2
	octave 3
	note G_, 2
;Bar 22
	octave 4
	note D#, 1
	octave 3
	note G_, 2
	octave 4
	note D#, 2
	octave 3
	note G_, 1
	octave 4
	note D#, 2
	octave 3
	note G_, 2
	octave 4
	note D_, 1
	octave 3
	note G_, 2
	octave 4
	note D_, 2
;Bar 23
	octave 3
	note G_, 1
	octave 4
	note D_, 2
	octave 3
	note G_, 2
	octave 4
	note D_, 1
	octave 3
	note G_, 2
	octave 4
	note D_, 2
	octave 3
	note G_, 1
	octave 4
	note D_, 2
	octave 3
	note G_, 2
	octave 4
	note D_, 1
;Bar 24
	octave 3
	note G_, 2
	octave 4
	note D_, 2
	octave 3
	note F#, 1
	octave 4
	note C_, 2
	octave 3
	note A_, 2
	octave 4
	note D#, 1
	note C_, 2
	note C_, 2
	note F#, 1
	note F#, 2
;Bar 25
	note F#, 2
	octave 5
	note C_, 1
	octave 3
	note A#, 2
	octave 4
	note D#, 2
	octave 3
	note A#, 1
	octave 4
	note D#, 2
	octave 3
	note A#, 2
	octave 4
	note D#, 1
	octave 3
	note A#, 2
;Bar 26
	octave 4
	note D#, 2
	octave 3
	note A_, 1
	octave 4
	note D#, 2
	octave 3
	note A_, 2
	octave 4
	note D#, 1
	octave 3
	note A_, 2
	octave 4
	note D#, 2
	octave 3
	note A_, 1
	octave 4
	note D#, 2
	octave 3
	note G#, 2
;Bar 27
	octave 4
	note D#, 1
	octave 3
	note G#, 2
	octave 4
	note D#, 2
	octave 3
	note G#, 1
	octave 4
	note D#, 2
	octave 3
	note G#, 2
	octave 4
	note D#, 1
	octave 3
	note G_, 2
	octave 4
	note D#, 2
;Bar 28
	octave 3
	note G_, 1
	octave 4
	note D#, 2
	octave 3
	note G_, 2
	octave 4
	note D#, 1
	octave 3
	note G_, 2
	octave 4
	note D#, 2
	octave 3
	note G_, 1
	octave 4
	note D_, 2
	octave 3
	note G_, 2
	octave 4
	note D_, 1
;Bar 29
	octave 3
	note G_, 2
	octave 4
	note D_, 2
	octave 3
	note G_, 1
	octave 4
	note D_, 2
	octave 3
	note G_, 2
	octave 4
	note D_, 1
	octave 3
	note G_, 2
	octave 4
	note D_, 2
	octave 3
	note G_, 1
	octave 4
	note D_, 2
;Bar 30
	octave 3
	note G_, 2
	octave 4
	note D_, 1
	octave 3
	note F#, 2
	octave 4
	note C_, 2
	octave 3
	note A_, 1
	octave 4
	note D#, 2
	note C_, 2
	note C_, 1
	note F#, 2
;Bar 31
	note F#, 2
	note F#, 1
	octave 5
	note C_, 2
	octave 3
	note A#, 2
	octave 4
	note D#, 1
	octave 3
	note A#, 2
	octave 4
	note D#, 2
	octave 3
	note A#, 1
	octave 4
	note D#, 2
	octave 3
	note A#, 2
;Bar 32
	octave 4
	note D#, 1
	octave 3
	note A_, 2
	octave 4
	note D#, 2
	octave 3
	note A_, 1
	octave 4
	note D#, 2
	octave 3
	note A_, 2
	octave 4
	note D#, 1
	octave 3
	note A_, 2
	octave 4
	note D#, 2
;Bar 33
	octave 3
	note G#, 1
	octave 4
	note D#, 2
	octave 3
	note G#, 2
	octave 4
	note D#, 1
	octave 3
	note G#, 2
	octave 4
	note D#, 2
	octave 3
	note G#, 1
	octave 4
	note D#, 2
	octave 3
	note G_, 2
	octave 4
	note D#, 1
;Bar 34
	octave 3
	note G_, 2
	octave 4
	note D#, 2
	octave 3
	note G_, 1
	octave 4
	note D#, 2
	octave 3
	note G_, 2
	octave 4
	note D#, 1
	octave 3
	note G_, 2
	octave 4
	note D_, 2
	octave 3
	note G_, 1
	octave 4
	note D_, 2
;Bar 35
	octave 3
	note G_, 2
	octave 4
	note D_, 1
	octave 3
	note G_, 2
	octave 4
	note D_, 2
	octave 3
	note G_, 1
	octave 4
	note D_, 2
	octave 3
	note G_, 2
	octave 4
	note D_, 1
	octave 3
	note G_, 2
;Bar 36
	octave 4
	note D_, 2
	octave 3
	note G_, 1
	octave 4
	note D_, 2
	octave 3
	note F#, 2
	octave 4
	note C_, 1
	octave 3
	note A_, 2
	octave 4
	note D#, 2
	note C_, 1
	note C_, 2
	note F#, 2
;Bar 37
	note F#, 1
	note F#, 2
	octave 5
	note C_, 2
	sound_ret

; ============================================================================================================

Music_Zelda1Cave_Ch2:
	duty_cycle 1
	note_type 12, 10, 7
;Bar 1
	volume_envelope 11, 7
	rest 1
	octave 3
	note G_, 1
	octave 4
	note D_, 2
	octave 3
	note G_, 2
	octave 4
	note D_, 1
	octave 3
	note G_, 2
	octave 4
	note D_, 2
	octave 3
	note G_, 1
	octave 4
	note D_, 2
	octave 3
	note F#, 2
;Bar 2
	octave 4
	note D_, 1
	octave 3
	note F#, 2
	octave 4
	note D_, 2
	octave 3
	note F#, 1
	octave 4
	note D_, 2
	octave 3
	note F#, 2
	octave 4
	note D_, 1
	octave 3
	note F_, 2
	octave 4
	note D_, 2
	octave 3
	note F_, 1
;Bar 3
	octave 4
	note D_, 2
	octave 3
	note F_, 2
	octave 4
	note D_, 1
	octave 3
	note F_, 2
	octave 4
	note D_, 2
	octave 3
	note E_, 1
	octave 4
	note D_, 2
	octave 3
	note E_, 2
	octave 4
	note D_, 1
	octave 3
	note E_, 2
;Bar 4
	octave 4
	note D_, 2
	octave 3
	note E_, 1
	octave 4
	note D_, 2
	octave 3
	note D#, 2
	octave 4
	note C_, 1
	octave 3
	note D#, 2
	octave 4
	note C_, 2
	octave 3
	note D#, 1
	octave 4
	note C_, 2
;Bar 5
	octave 3
	note D#, 2
	octave 4
	note C_, 1
	octave 3
	note D_, 2
	octave 4
	note C_, 2
	octave 3
	note D_, 1
	octave 4
	note C_, 2
	octave 3
	note D_, 2
	octave 4
	note C_, 1
	octave 3
	note D_, 2
	octave 4
	note C_, 2
;Bar 6
	octave 3
	note C_, 1
	note A_, 2
	note F#, 2
	octave 4
	note C_, 1
	octave 3
	note A_, 2
	octave 4
	note D#, 2
	note D#, 1
	note D#, 2
	note A_, 2
;Bar 7
	note A_, 1
	octave 3
	note G_, 2
	octave 4
	note D_, 2
	octave 3
	note G_, 1
	octave 4
	note D_, 2
	octave 3
	note G_, 2
	octave 4
	note D_, 1
	octave 3
	note G_, 2
	octave 4
	note D_, 2
	octave 3
	note F#, 1
;Bar 8
	octave 4
	note D_, 2
	octave 3
	note F#, 2
	octave 4
	note D_, 1
	octave 3
	note F#, 2
	octave 4
	note D_, 2
	octave 3
	note F#, 1
	octave 4
	note D_, 2
	octave 3
	note F_, 2
	octave 4
	note D_, 1
	octave 3
	note F_, 2
;Bar 9
	octave 4
	note D_, 2
	octave 3
	note F_, 1
	octave 4
	note D_, 2
	octave 3
	note F_, 2
	octave 4
	note D_, 1
	octave 3
	note E_, 2
	octave 4
	note D_, 2
	octave 3
	note E_, 1
	octave 4
	note D_, 2
;Bar 10
	octave 3
	note E_, 2
	octave 4
	note D_, 1
	octave 3
	note E_, 2
	octave 4
	note D_, 2
	octave 3
	note D#, 1
	octave 4
	note C_, 2
	octave 3
	note D#, 2
	octave 4
	note C_, 1
	octave 3
	note D#, 2
	octave 4
	note C_, 2
;Bar 11
	octave 3
	note D#, 1
	octave 4
	note C_, 2
	octave 3
	note D_, 2
	octave 4
	note C_, 1
	octave 3
	note D_, 2
	octave 4
	note C_, 2
	octave 3
	note D_, 1
	octave 4
	note C_, 2
	octave 3
	note D_, 2
;Bar 12
	octave 4
	note C_, 1
	octave 3
	note C_, 2
	note A_, 2
	note F#, 1
	octave 4
	note C_, 2
	octave 3
	note A_, 2
	octave 4
	note D#, 1
	note D#, 2
	note D#, 2
	note A_, 1
;Bar 13
	note A_, 2
	octave 3
	note G_, 2
	octave 4
	note D_, 1
	octave 3
	note G_, 2
	octave 4
	note D_, 2
	octave 3
	note G_, 1
	octave 4
	note D_, 2
	octave 3
	note G_, 2
	octave 4
	note D_, 1
	octave 3
	note F#, 2
;Bar 14
	octave 4
	note D_, 2
	octave 3
	note F#, 1
	octave 4
	note D_, 2
	octave 3
	note F#, 2
	octave 4
	note D_, 1
	octave 3
	note F#, 2
	octave 4
	note D_, 2
	octave 3
	note F_, 1
	octave 4
	note D_, 2
;Bar 15
	octave 3
	note F_, 2
	octave 4
	note D_, 1
	octave 3
	note F_, 2
	octave 4
	note D_, 2
	octave 3
	note F_, 1
	octave 4
	note D_, 2
	octave 3
	note E_, 2
	octave 4
	note D_, 1
	octave 3
	note E_, 2
	octave 4
	note D_, 2
;Bar 16
	octave 3
	note E_, 1
	octave 4
	note D_, 2
	octave 3
	note E_, 2
	octave 4
	note D_, 1
	octave 3
	note D#, 2
	octave 4
	note C_, 2
	octave 3
	note D#, 1
	octave 4
	note C_, 2
	octave 3
	note D#, 2
;Bar 17
	octave 4
	note C_, 1
	octave 3
	note D#, 2
	octave 4
	note C_, 2
	octave 3
	note D_, 1
	octave 4
	note C_, 2
	octave 3
	note D_, 2
	octave 4
	note C_, 1
	octave 3
	note D_, 2
	octave 4
	note C_, 2
	octave 3
	note D_, 1
;Bar 18
	octave 4
	note C_, 2
	octave 3
	note C_, 2
	note A_, 1
	note F#, 2
	octave 4
	note C_, 2
	octave 3
	note A_, 1
	octave 4
	note D#, 2
	note D#, 2
	note D#, 1
	note A_, 2
;Bar 19
	note A_, 2
	octave 3
	note G_, 1
	octave 4
	note D_, 2
	octave 3
	note G_, 2
	octave 4
	note D_, 1
	octave 3
	note G_, 2
	octave 4
	note D_, 2
	octave 3
	note G_, 1
	octave 4
	note D_, 2
;Bar 20
	octave 3
	note F#, 2
	octave 4
	note D_, 1
	octave 3
	note F#, 2
	octave 4
	note D_, 2
	octave 3
	note F#, 1
	octave 4
	note D_, 2
	octave 3
	note F#, 2
	octave 4
	note D_, 1
	octave 3
	note F_, 2
	octave 4
	note D_, 2
;Bar 21
	octave 3
	note F_, 1
	octave 4
	note D_, 2
	octave 3
	note F_, 2
	octave 4
	note D_, 1
	octave 3
	note F_, 2
	octave 4
	note D_, 2
	octave 3
	note E_, 1
	octave 4
	note D_, 2
	octave 3
	note E_, 2
;Bar 22
	octave 4
	note D_, 1
	octave 3
	note E_, 2
	octave 4
	note D_, 2
	octave 3
	note E_, 1
	octave 4
	note D_, 2
	octave 3
	note D#, 2
	octave 4
	note C_, 1
	octave 3
	note D#, 2
	octave 4
	note C_, 2
	octave 3
	note D#, 1
;Bar 23
	octave 4
	note C_, 2
	octave 3
	note D#, 2
	octave 4
	note C_, 1
	octave 3
	note D_, 2
	octave 4
	note C_, 2
	octave 3
	note D_, 1
	octave 4
	note C_, 2
	octave 3
	note D_, 2
	octave 4
	note C_, 1
	octave 3
	note D_, 2
;Bar 24
	octave 4
	note C_, 2
	octave 3
	note C_, 1
	note A_, 2
	note F#, 2
	octave 4
	note C_, 1
	octave 3
	note A_, 2
	octave 4
	note D#, 2
	note D#, 1
	note D#, 2
;Bar 25
	note A_, 2
	note A_, 1
	octave 3
	note G_, 2
	octave 4
	note D_, 2
	octave 3
	note G_, 1
	octave 4
	note D_, 2
	octave 3
	note G_, 2
	octave 4
	note D_, 1
	octave 3
	note G_, 2
	octave 4
	note D_, 2
;Bar 26
	octave 3
	note F#, 1
	octave 4
	note D_, 2
	octave 3
	note F#, 2
	octave 4
	note D_, 1
	octave 3
	note F#, 2
	octave 4
	note D_, 2
	octave 3
	note F#, 1
	octave 4
	note D_, 2
	octave 3
	note F_, 2
;Bar 27
	octave 4
	note D_, 1
	octave 3
	note F_, 2
	octave 4
	note D_, 2
	octave 3
	note F_, 1
	octave 4
	note D_, 2
	octave 3
	note F_, 2
	octave 4
	note D_, 1
	octave 3
	note E_, 2
	octave 4
	note D_, 2
	octave 3
	note E_, 1
;Bar 28
	octave 4
	note D_, 2
	octave 3
	note E_, 2
	octave 4
	note D_, 1
	octave 3
	note E_, 2
	octave 4
	note D_, 2
	octave 3
	note D#, 1
	octave 4
	note C_, 2
	octave 3
	note D#, 2
	octave 4
	note C_, 1
	octave 3
	note D#, 2
;Bar 29
	octave 4
	note C_, 2
	octave 3
	note D#, 1
	octave 4
	note C_, 2
	octave 3
	note D_, 2
	octave 4
	note C_, 1
	octave 3
	note D_, 2
	octave 4
	note C_, 2
	octave 3
	note D_, 1
	octave 4
	note C_, 2
;Bar 30
	octave 3
	note D_, 2
	octave 4
	note C_, 1
	octave 3
	note C_, 2
	note A_, 2
	note F#, 1
	octave 4
	note C_, 2
	octave 3
	note A_, 2
	octave 4
	note D#, 1
	note D#, 2
	note D#, 2
;Bar 31
	note A_, 1
	note A_, 2
	octave 3
	note G_, 2
	octave 4
	note D_, 1
	octave 3
	note G_, 2
	octave 4
	note D_, 2
	octave 3
	note G_, 1
	octave 4
	note D_, 2
	octave 3
	note G_, 2
;Bar 32
	octave 4
	note D_, 1
	octave 3
	note F#, 2
	octave 4
	note D_, 2
	octave 3
	note F#, 1
	octave 4
	note D_, 2
	octave 3
	note F#, 2
	octave 4
	note D_, 1
	octave 3
	note F#, 2
	octave 4
	note D_, 2
	octave 3
	note F_, 1
;Bar 33
	octave 4
	note D_, 2
	octave 3
	note F_, 2
	octave 4
	note D_, 1
	octave 3
	note F_, 2
	octave 4
	note D_, 2
	octave 3
	note F_, 1
	octave 4
	note D_, 2
	octave 3
	note E_, 2
	octave 4
	note D_, 1
	octave 3
	note E_, 2
;Bar 34
	octave 4
	note D_, 2
	octave 3
	note E_, 1
	octave 4
	note D_, 2
	octave 3
	note E_, 2
	octave 4
	note D_, 1
	octave 3
	note D#, 2
	octave 4
	note C_, 2
	octave 3
	note D#, 1
	octave 4
	note C_, 2
;Bar 35
	octave 3
	note D#, 2
	octave 4
	note C_, 1
	octave 3
	note D#, 2
	octave 4
	note C_, 2
	octave 3
	note D_, 1
	octave 4
	note C_, 2
	octave 3
	note D_, 2
	octave 4
	note C_, 1
	octave 3
	note D_, 2
	octave 4
	note C_, 2
;Bar 36
	octave 3
	note D_, 1
	octave 4
	note C_, 2
	octave 3
	note C_, 2
	note A_, 1
	note F#, 2
	octave 4
	note C_, 2
	octave 3
	note A_, 1
	octave 4
	note D#, 2
	note D#, 2
;Bar 37
	note D#, 1
	note A_, 2
	note A_, 2
	sound_ret

; ============================================================================================================

Music_Zelda1Cave_Ch3:
	note_type 12, 1, 0
;Bar 1
	volume_envelope 1, 0
	rest 1
	octave 3
	note G_, 6
	note A#, 4
	octave 4
	note D_, 3
	note C#, 3
;Bar 2
	octave 3
	note F#, 10
	note F_, 7
;Bar 3
	note F_, 3
	note G#, 2
	octave 4
	note C#, 2
	note C_, 3
	octave 3
	note E_, 10
;Bar 4
	note D#, 1
	note D_, 1
	note D#, 5
	note G_, 2
	octave 4
	note D#, 3
;Bar 5
	note D_, 1
	octave 3
	note D_, 1
	note C#, 1
	note D_, 5
	note G_, 3
	octave 4
	note D_, 2
	note C#, 2
;Bar 6
	octave 3
	note D_, 1
	;note F#, 0 | WARNING: Rounded down to 0
	note A_, 1
	note F#, 1
	note A_, 1
	octave 4
	note C_, 1
	octave 3
	note A_, 1
	octave 4
	;note C_, 0 | WARNING: Rounded down to 0
	note D#, 1
	note C_, 1
	note D#, 1
	note F#, 1
	note A_, 1
	;note F#, 0 | WARNING: Rounded down to 0
	note D#, 1
	note C_, 1
	note D#, 1
	note C_, 1
;Bar 7
	octave 3
	note A_, 1
	;note F#, 0 | WARNING: Rounded down to 0
	note G_, 7
	note A#, 3
	octave 4
	note D_, 4
	note C#, 3
;Bar 8
	octave 3
	note F#, 10
	note F_, 7
;Bar 9
	note F_, 2
	note G#, 3
	octave 4
	note C#, 1
	note C_, 4
	octave 3
	note E_, 10
;Bar 10
	note D#, 1
	;note D_, 0 | WARNING: Rounded down to 0
	note D#, 5
	note G_, 3
;Bar 11
	octave 4
	note D#, 2
	note D_, 2
	octave 3
	note D_, 1
	note C#, 1
	note D_, 5
	note G_, 2
	octave 4
	note D_, 3
;Bar 12
	note C#, 1
	octave 3
	note D_, 1
	note F#, 1
	note A_, 1
	note F#, 1
	note A_, 1
	octave 4
	;note C_, 0 | WARNING: Rounded down to 0
	octave 3
	note A_, 1
	octave 4
	note C_, 1
	note D#, 1
	note C_, 1
	note D#, 1
	;note F#, 0 | WARNING: Rounded down to 0
	note A_, 1
	note F#, 1
	note D#, 1
	note C_, 1
	note D#, 1
;Bar 13
	;note C_, 0 | WARNING: Rounded down to 0
	octave 3
	note A_, 1
	note F#, 1
	note G_, 7
	note A#, 3
	octave 4
	note D_, 3
	note C#, 4
;Bar 14
	octave 3
	note F#, 10
	note F_, 6
;Bar 15
	note F_, 3
	note G#, 2
	octave 4
	note C#, 2
	note C_, 3
	octave 3
	note E_, 10
;Bar 16
	note D#, 1
	note D_, 1
	note D#, 5
	note G_, 3
;Bar 17
	octave 4
	note D#, 2
	note D_, 2
	octave 3
	note D_, 1
	note D_, 5
	note G_, 3
	octave 4
	note D_, 2
;Bar 18
	octave 3
	;note C#, 0 | WARNING: Rounded down to 0
	octave 4
	note C#, 2
	octave 3
	note D_, 1
	note F#, 1
	note A_, 1
	;note F#, 0 | WARNING: Rounded down to 0
	note A_, 1
	octave 4
	note C_, 1
	octave 3
	note A_, 1
	octave 4
	note C_, 1
	note D#, 1
	;note C_, 0 | WARNING: Rounded down to 0
	note D#, 1
	note F#, 1
	note A_, 1
	note F#, 1
	note D#, 1
	;note C_, 0 | WARNING: Rounded down to 0
	note D#, 1
;Bar 19
	note C_, 1
	octave 3
	note A_, 1
	note F#, 1
	note G_, 6
	note A#, 4
	octave 4
	note D_, 3
;Bar 20
	note C#, 3
	octave 3
	note F#, 10
	note F_, 7
;Bar 21
	note F_, 3
	note G#, 2
	octave 4
	note C#, 2
	note C_, 3
	octave 3
	note E_, 10
;Bar 22
	note D#, 1
	note D_, 1
	note D#, 5
	note G_, 2
;Bar 23
	octave 4
	note D#, 3
	note D_, 1
	octave 3
	note D_, 2
	note D_, 5
	note G_, 3
	octave 4
	note D_, 1
;Bar 24
	octave 3
	note C#, 1
	octave 4
	note C#, 2
	octave 3
	note D_, 1
	;note F#, 0 | WARNING: Rounded down to 0
	note A_, 1
	note F#, 1
	note A_, 1
	octave 4
	note C_, 1
	octave 3
	note A_, 1
	octave 4
	;note C_, 0 | WARNING: Rounded down to 0
	note D#, 1
	note C_, 1
	note D#, 1
	note F#, 1
	note A_, 1
	;note F#, 0 | WARNING: Rounded down to 0
	note D#, 1
	note C_, 1
;Bar 25
	note D#, 1
	note C_, 1
	octave 3
	note A_, 1
	;note F#, 0 | WARNING: Rounded down to 0
	note G_, 7
	note A#, 3
	octave 4
	note D_, 4
;Bar 26
	note C#, 3
	octave 3
	note F#, 10
	note F_, 7
;Bar 27
	note F_, 2
	note G#, 3
	octave 4
	note C#, 1
	note C_, 4
	octave 3
	note E_, 10
;Bar 28
	note D#, 1
	;note D_, 0 | WARNING: Rounded down to 0
	note D#, 5
	note G_, 3
;Bar 29
	octave 4
	note D#, 2
	note D_, 2
	octave 3
	note D_, 2
	note D_, 5
	note G_, 2
	octave 4
	note D_, 2
;Bar 30
	octave 3
	note C#, 1
	octave 4
	note C#, 1
	octave 3
	note D_, 1
	note F#, 1
	note A_, 1
	note F#, 1
	note A_, 1
	octave 4
	;note C_, 0 | WARNING: Rounded down to 0
	octave 3
	note A_, 1
	octave 4
	note C_, 1
	note D#, 1
	note C_, 1
	note D#, 1
	;note F#, 0 | WARNING: Rounded down to 0
	note A_, 1
	note F#, 1
	note D#, 1
;Bar 31
	note C_, 1
	note D#, 1
	;note C_, 0 | WARNING: Rounded down to 0
	octave 3
	note A_, 1
	note F#, 1
	note G_, 7
	note A#, 3
	octave 4
	note D_, 3
;Bar 32
	note C#, 4
	octave 3
	note F#, 10
	note F_, 6
;Bar 33
	note F_, 3
	note G#, 2
	octave 4
	note C#, 2
	note C_, 3
	octave 3
	note E_, 10
;Bar 34
	note D#, 1
	note D_, 1
	note D#, 5
;Bar 35
	note G_, 3
	octave 4
	note D#, 2
	note D_, 2
	octave 3
	note D_, 1
	note D_, 5
	note G_, 3
;Bar 36
	octave 4
	note D_, 2
	octave 3
	;note C#, 0 | WARNING: Rounded down to 0
	octave 4
	note C#, 2
	octave 3
	note D_, 1
	note F#, 1
	note A_, 1
	;note F#, 0 | WARNING: Rounded down to 0
	note A_, 1
	octave 4
	note C_, 1
	octave 3
	note A_, 1
	octave 4
	note C_, 1
	note D#, 1
	;note C_, 0 | WARNING: Rounded down to 0
	note D#, 1
	note F#, 1
	note A_, 1
	note F#, 1
;Bar 37
	note D#, 1
	;note C_, 0 | WARNING: Rounded down to 0
	note D#, 1
	note C_, 1
	octave 3
	note A_, 1
	note F#, 1
	;note G_, 0 | WARNING: Rounded down to 0
	sound_ret

; ============================================================================================================

