;Coverted using MIDI2ASM
;Code by TriteHexagon
;Version 5.2.0 (16-Nov-2022)
;Visit github.com/TriteHexagon/Midi2ASM-Converter for up-to-date versions.

; ============================================================================================================

Music_KommSusserTod:
	channel_count 4
	channel 1, Music_KommSusserTod_Ch1
	channel 2, Music_KommSusserTod_Ch2
	channel 3, Music_KommSusserTod_Ch3
	channel 4, Music_KommSusserTod_Ch4

Music_KommSusserTod_Ch1:
	volume 7, 7
	duty_cycle 2
	note_type 12, 10, 7
	tempo 120
;Bar 1
	octave 2
	volume_envelope 9, 7
	;note A#, 0 | WARNING: Rounded down to 0
	octave 3
	;note D_, 0 | WARNING: Rounded down to 0
	octave 2
	note F_, 4
	;note F_, 0 | WARNING: Rounded down to 0
	;note A#, 0 | WARNING: Rounded down to 0
	octave 3
	note D_, 3
	octave 2
	;note F_, 0 | WARNING: Rounded down to 0
	;note A#, 0 | WARNING: Rounded down to 0
	octave 3
	note D_, 1
	octave 2
	;note F_, 0 | WARNING: Rounded down to 0
	;note A#, 0 | WARNING: Rounded down to 0
	octave 3
	note D_, 3
	octave 2
	;note F_, 0 | WARNING: Rounded down to 0
	;note A#, 0 | WARNING: Rounded down to 0
	octave 3
	note D_, 1
	octave 2
	;note F_, 0 | WARNING: Rounded down to 0
	;note A#, 0 | WARNING: Rounded down to 0
	octave 3
	note D_, 4
;Bar 2
	octave 2
	;note F_, 0 | WARNING: Rounded down to 0
	;note A_, 0 | WARNING: Rounded down to 0
	octave 3
	note D_, 8
	octave 2
	;note F_, 0 | WARNING: Rounded down to 0
	;note A_, 0 | WARNING: Rounded down to 0
	octave 3
	note C_, 8
;Bar 3
	octave 2
	;note G_, 0 | WARNING: Rounded down to 0
	note A#, 8
	;note G_, 0 | WARNING: Rounded down to 0
	note A#, 8
;Bar 4
	;note F_, 0 | WARNING: Rounded down to 0
	note A_, 8
	octave 3
	;note D_, 0 | WARNING: Rounded down to 0
	octave 2
	;note A_, 0 | WARNING: Rounded down to 0
	note F_, 8
;Bar 5
	;note D#, 0 | WARNING: Rounded down to 0
	;note G_, 0 | WARNING: Rounded down to 0
	note A#, 8
	;note D#, 0 | WARNING: Rounded down to 0
	;note G_, 0 | WARNING: Rounded down to 0
	note A#, 8
;Bar 6
	;note D_, 0 | WARNING: Rounded down to 0
	;note F_, 0 | WARNING: Rounded down to 0
	note A#, 8
	;note D_, 0 | WARNING: Rounded down to 0
	;note F_, 0 | WARNING: Rounded down to 0
	note A#, 8
;Bar 7
	;note C_, 0 | WARNING: Rounded down to 0
	;note D#, 0 | WARNING: Rounded down to 0
	note A#, 8
	;note C_, 0 | WARNING: Rounded down to 0
	;note D#, 0 | WARNING: Rounded down to 0
	note A#, 8
;Bar 8
	;note C_, 0 | WARNING: Rounded down to 0
	;note D#, 0 | WARNING: Rounded down to 0
	note A#, 8
	;note F_, 0 | WARNING: Rounded down to 0
	;note A_, 0 | WARNING: Rounded down to 0
	octave 3
	note C_, 8
;Bar 9
	octave 2
	;note A#, 0 | WARNING: Rounded down to 0
	octave 3
	;note D_, 0 | WARNING: Rounded down to 0
	octave 2
	note F_, 4
	;note F_, 0 | WARNING: Rounded down to 0
	;note A#, 0 | WARNING: Rounded down to 0
	octave 3
	note D_, 3
	octave 2
	;note F_, 0 | WARNING: Rounded down to 0
	;note A#, 0 | WARNING: Rounded down to 0
	octave 3
	note D_, 1
	octave 2
	;note F_, 0 | WARNING: Rounded down to 0
	;note A#, 0 | WARNING: Rounded down to 0
	octave 3
	note D_, 3
	octave 2
	;note F_, 0 | WARNING: Rounded down to 0
	;note A#, 0 | WARNING: Rounded down to 0
	octave 3
	note D_, 1
	;note D_, 0 | WARNING: Rounded down to 0
	octave 2
	;note A#, 0 | WARNING: Rounded down to 0
	note F_, 4
;Bar 10
	;note F_, 0 | WARNING: Rounded down to 0
	;note A_, 0 | WARNING: Rounded down to 0
	octave 3
	note D_, 8
	octave 2
	;note F_, 0 | WARNING: Rounded down to 0
	;note A_, 0 | WARNING: Rounded down to 0
	octave 3
	note C_, 8
;Bar 11
	octave 2
	;note G_, 0 | WARNING: Rounded down to 0
	note A#, 8
	;note G_, 0 | WARNING: Rounded down to 0
	note A#, 8
;Bar 12
	;note F_, 0 | WARNING: Rounded down to 0
	note A_, 8
	octave 3
	;note D_, 0 | WARNING: Rounded down to 0
	octave 2
	;note A_, 0 | WARNING: Rounded down to 0
	note F_, 8
;Bar 13
	;note D#, 0 | WARNING: Rounded down to 0
	;note G_, 0 | WARNING: Rounded down to 0
	note A#, 8
	;note D#, 0 | WARNING: Rounded down to 0
	;note G_, 0 | WARNING: Rounded down to 0
	note A#, 8
;Bar 14
	;note D_, 0 | WARNING: Rounded down to 0
	;note F_, 0 | WARNING: Rounded down to 0
	note A#, 8
	;note D_, 0 | WARNING: Rounded down to 0
	;note F_, 0 | WARNING: Rounded down to 0
	note A#, 8
;Bar 15
	;note C_, 0 | WARNING: Rounded down to 0
	;note D#, 0 | WARNING: Rounded down to 0
	note A#, 8
	;note C_, 0 | WARNING: Rounded down to 0
	;note D#, 0 | WARNING: Rounded down to 0
	note A#, 8
;Bar 16
	;note D_, 0 | WARNING: Rounded down to 0
	;note F_, 0 | WARNING: Rounded down to 0
	note A#, 4
	rest 12
;Bar 17
	;note A#, 0 | WARNING: Rounded down to 0
	octave 3
	;note D_, 0 | WARNING: Rounded down to 0
	octave 2
	note F_, 4
	;note F_, 0 | WARNING: Rounded down to 0
	;note A#, 0 | WARNING: Rounded down to 0
	octave 3
	note D_, 3
	octave 2
	;note F_, 0 | WARNING: Rounded down to 0
	;note A#, 0 | WARNING: Rounded down to 0
	octave 3
	note D_, 1
	octave 2
	;note F_, 0 | WARNING: Rounded down to 0
	;note A#, 0 | WARNING: Rounded down to 0
	octave 3
	note D_, 3
	octave 2
	;note F_, 0 | WARNING: Rounded down to 0
	;note A#, 0 | WARNING: Rounded down to 0
	octave 3
	note D_, 1
	;note D_, 0 | WARNING: Rounded down to 0
	octave 2
	;note A#, 0 | WARNING: Rounded down to 0
	note F_, 4
;Bar 18
	;note F_, 0 | WARNING: Rounded down to 0
	;note A_, 0 | WARNING: Rounded down to 0
	octave 3
	note D_, 8
	octave 2
	;note F_, 0 | WARNING: Rounded down to 0
	;note A_, 0 | WARNING: Rounded down to 0
	octave 3
	note C_, 8
;Bar 19
	octave 2
	;note G_, 0 | WARNING: Rounded down to 0
	note A#, 8
	;note G_, 0 | WARNING: Rounded down to 0
	note A#, 8
;Bar 20
	;note F_, 0 | WARNING: Rounded down to 0
	note A_, 8
	octave 3
	;note D_, 0 | WARNING: Rounded down to 0
	octave 2
	;note A_, 0 | WARNING: Rounded down to 0
	note F_, 8
;Bar 21
	;note D#, 0 | WARNING: Rounded down to 0
	;note G_, 0 | WARNING: Rounded down to 0
	note A#, 8
	;note D#, 0 | WARNING: Rounded down to 0
	;note G_, 0 | WARNING: Rounded down to 0
	note A#, 8
;Bar 22
	;note D_, 0 | WARNING: Rounded down to 0
	;note F_, 0 | WARNING: Rounded down to 0
	note A#, 8
	;note D_, 0 | WARNING: Rounded down to 0
	;note F_, 0 | WARNING: Rounded down to 0
	note A#, 8
;Bar 23
	;note C_, 0 | WARNING: Rounded down to 0
	;note D#, 0 | WARNING: Rounded down to 0
	note A#, 8
	;note C_, 0 | WARNING: Rounded down to 0
	;note D#, 0 | WARNING: Rounded down to 0
	note A#, 8
;Bar 24
	;note C_, 0 | WARNING: Rounded down to 0
	;note D#, 0 | WARNING: Rounded down to 0
	note A#, 8
	;note F_, 0 | WARNING: Rounded down to 0
	;note A_, 0 | WARNING: Rounded down to 0
	octave 3
	note C_, 8
;Bar 25
	octave 2
	;note A#, 0 | WARNING: Rounded down to 0
	octave 3
	;note D_, 0 | WARNING: Rounded down to 0
	octave 2
	note F_, 4
	;note F_, 0 | WARNING: Rounded down to 0
	;note A#, 0 | WARNING: Rounded down to 0
	octave 3
	note D_, 3
	octave 2
	;note F_, 0 | WARNING: Rounded down to 0
	;note A#, 0 | WARNING: Rounded down to 0
	octave 3
	note D_, 1
	octave 2
	;note F_, 0 | WARNING: Rounded down to 0
	;note A#, 0 | WARNING: Rounded down to 0
	octave 3
	note D_, 3
	octave 2
	;note F_, 0 | WARNING: Rounded down to 0
	;note A#, 0 | WARNING: Rounded down to 0
	octave 3
	note D_, 1
	;note D_, 0 | WARNING: Rounded down to 0
	octave 2
	;note A#, 0 | WARNING: Rounded down to 0
	note F_, 4
;Bar 26
	;note F_, 0 | WARNING: Rounded down to 0
	;note A_, 0 | WARNING: Rounded down to 0
	octave 3
	note D_, 8
	octave 2
	;note F_, 0 | WARNING: Rounded down to 0
	;note A_, 0 | WARNING: Rounded down to 0
	octave 3
	note C_, 8
;Bar 27
	octave 2
	;note G_, 0 | WARNING: Rounded down to 0
	note A#, 8
	;note G_, 0 | WARNING: Rounded down to 0
	note A#, 8
;Bar 28
	;note F_, 0 | WARNING: Rounded down to 0
	note A_, 8
	octave 3
	;note D_, 0 | WARNING: Rounded down to 0
	octave 2
	;note A_, 0 | WARNING: Rounded down to 0
	note F_, 8
;Bar 29
	;note D#, 0 | WARNING: Rounded down to 0
	;note G_, 0 | WARNING: Rounded down to 0
	note A#, 8
	;note D#, 0 | WARNING: Rounded down to 0
	;note G_, 0 | WARNING: Rounded down to 0
	note A#, 8
;Bar 30
	;note D_, 0 | WARNING: Rounded down to 0
	;note F_, 0 | WARNING: Rounded down to 0
	note A#, 8
	;note D_, 0 | WARNING: Rounded down to 0
	;note F_, 0 | WARNING: Rounded down to 0
	note A#, 8
;Bar 31
	;note C_, 0 | WARNING: Rounded down to 0
	;note D#, 0 | WARNING: Rounded down to 0
	note A#, 8
	;note C_, 0 | WARNING: Rounded down to 0
	;note D#, 0 | WARNING: Rounded down to 0
	note A#, 8
;Bar 32
	;note D_, 0 | WARNING: Rounded down to 0
	;note F_, 0 | WARNING: Rounded down to 0
	note A#, 4
	rest 12
;Bar 33
	octave 3
	;note D_, 0 | WARNING: Rounded down to 0
	octave 2
	;note A#, 0 | WARNING: Rounded down to 0
	note F_, 4
	;note F_, 0 | WARNING: Rounded down to 0
	;note A#, 0 | WARNING: Rounded down to 0
	octave 3
	note D_, 3
	octave 2
	;note F_, 0 | WARNING: Rounded down to 0
	;note A#, 0 | WARNING: Rounded down to 0
	octave 3
	note D_, 1
	octave 2
	;note F_, 0 | WARNING: Rounded down to 0
	;note A#, 0 | WARNING: Rounded down to 0
	octave 3
	note D_, 3
	octave 2
	;note F_, 0 | WARNING: Rounded down to 0
	;note A#, 0 | WARNING: Rounded down to 0
	octave 3
	note D_, 1
	octave 2
	;note F_, 0 | WARNING: Rounded down to 0
	;note A#, 0 | WARNING: Rounded down to 0
	octave 3
	note D_, 4
;Bar 34
	;note D_, 0 | WARNING: Rounded down to 0
	octave 2
	;note A_, 0 | WARNING: Rounded down to 0
	note F_, 8
	;note F_, 0 | WARNING: Rounded down to 0
	;note A_, 0 | WARNING: Rounded down to 0
	octave 3
	note C_, 8
;Bar 35
	octave 2
	;note G_, 0 | WARNING: Rounded down to 0
	note A#, 8
	;note A#, 0 | WARNING: Rounded down to 0
	octave 3
	;note D_, 0 | WARNING: Rounded down to 0
	note A#, 8
;Bar 36
	;note D_, 0 | WARNING: Rounded down to 0
	;note F_, 0 | WARNING: Rounded down to 0
	note A_, 8
	;note D_, 0 | WARNING: Rounded down to 0
	note F_, 8
;Bar 37
	octave 2
	;note A#, 0 | WARNING: Rounded down to 0
	octave 3
	;note D#, 0 | WARNING: Rounded down to 0
	note G_, 8
	octave 2
	;note A#, 0 | WARNING: Rounded down to 0
	octave 3
	;note D#, 0 | WARNING: Rounded down to 0
	note G_, 8
;Bar 38
	octave 2
	;note A#, 0 | WARNING: Rounded down to 0
	octave 3
	;note D_, 0 | WARNING: Rounded down to 0
	note F_, 8
	octave 2
	;note A#, 0 | WARNING: Rounded down to 0
	octave 3
	;note D_, 0 | WARNING: Rounded down to 0
	note F_, 8
;Bar 39
	octave 2
	;note G_, 0 | WARNING: Rounded down to 0
	;note A#, 0 | WARNING: Rounded down to 0
	octave 3
	note D#, 8
	octave 2
	;note G_, 0 | WARNING: Rounded down to 0
	;note A#, 0 | WARNING: Rounded down to 0
	octave 3
	note D#, 8
;Bar 40
	octave 2
	;note G_, 0 | WARNING: Rounded down to 0
	;note A#, 0 | WARNING: Rounded down to 0
	octave 3
	note D#, 8
	octave 2
	;note A_, 0 | WARNING: Rounded down to 0
	octave 3
	;note C_, 0 | WARNING: Rounded down to 0
	note F_, 8
;Bar 41
	;note D_, 0 | WARNING: Rounded down to 0
	octave 2
	;note A#, 0 | WARNING: Rounded down to 0
	note F_, 4
	;note F_, 0 | WARNING: Rounded down to 0
	;note A#, 0 | WARNING: Rounded down to 0
	octave 3
	note D_, 3
	octave 2
	;note F_, 0 | WARNING: Rounded down to 0
	;note A#, 0 | WARNING: Rounded down to 0
	octave 3
	note D_, 1
	octave 2
	;note F_, 0 | WARNING: Rounded down to 0
	;note A#, 0 | WARNING: Rounded down to 0
	octave 3
	note D_, 3
	octave 2
	;note F_, 0 | WARNING: Rounded down to 0
	;note A#, 0 | WARNING: Rounded down to 0
	octave 3
	note D_, 1
	octave 2
	;note F_, 0 | WARNING: Rounded down to 0
	;note A#, 0 | WARNING: Rounded down to 0
	octave 3
	note D_, 4
;Bar 42
	;note D_, 0 | WARNING: Rounded down to 0
	octave 2
	;note F_, 0 | WARNING: Rounded down to 0
	note A_, 8
	;note F_, 0 | WARNING: Rounded down to 0
	;note A_, 0 | WARNING: Rounded down to 0
	octave 3
	note C_, 8
;Bar 43
	octave 2
	;note G_, 0 | WARNING: Rounded down to 0
	note A#, 8
	;note A#, 0 | WARNING: Rounded down to 0
	octave 3
	;note D_, 0 | WARNING: Rounded down to 0
	note A#, 8
;Bar 44
	;note D_, 0 | WARNING: Rounded down to 0
	;note F_, 0 | WARNING: Rounded down to 0
	note A_, 8
	;note D_, 0 | WARNING: Rounded down to 0
	note F_, 8
;Bar 45
	octave 2
	;note A#, 0 | WARNING: Rounded down to 0
	octave 3
	;note D#, 0 | WARNING: Rounded down to 0
	note G_, 8
	octave 2
	;note A#, 0 | WARNING: Rounded down to 0
	octave 3
	;note D#, 0 | WARNING: Rounded down to 0
	note G_, 8
;Bar 46
	octave 2
	;note A#, 0 | WARNING: Rounded down to 0
	octave 3
	;note D_, 0 | WARNING: Rounded down to 0
	note F_, 8
	octave 2
	;note A#, 0 | WARNING: Rounded down to 0
	octave 3
	;note D_, 0 | WARNING: Rounded down to 0
	note F_, 8
;Bar 47
	octave 2
	;note G_, 0 | WARNING: Rounded down to 0
	;note A#, 0 | WARNING: Rounded down to 0
	octave 3
	note D#, 8
	octave 2
	;note F_, 0 | WARNING: Rounded down to 0
	;note A_, 0 | WARNING: Rounded down to 0
	octave 3
	note D#, 8
;Bar 48
	rest 16
	rest 8
;Bar 49
	octave 2
	;note F_, 0 | WARNING: Rounded down to 0
	;note A#, 0 | WARNING: Rounded down to 0
	octave 3
	note D_, 8
;Bar 50
	note D#, 4
	note D_, 4
	note D_, 2
	note D_, 6
;Bar 51
	octave 2
	;note A#, 0 | WARNING: Rounded down to 0
	octave 3
	;note D#, 0 | WARNING: Rounded down to 0
	octave 2
	note G_, 8
	;note G_, 0 | WARNING: Rounded down to 0
	;note A#, 0 | WARNING: Rounded down to 0
	octave 3
	note D#, 8
;Bar 52
	octave 2
	;note F#, 0 | WARNING: Rounded down to 0
	;note A#, 0 | WARNING: Rounded down to 0
	octave 3
	note D#, 8
	octave 2
	;note F#, 0 | WARNING: Rounded down to 0
	;note A#, 0 | WARNING: Rounded down to 0
	octave 3
	note D#, 8
;Bar 53
	octave 2
	;note F_, 0 | WARNING: Rounded down to 0
	;note A#, 0 | WARNING: Rounded down to 0
	octave 3
	note D_, 8
	octave 2
	;note F_, 0 | WARNING: Rounded down to 0
	;note A#, 0 | WARNING: Rounded down to 0
	octave 3
	note D_, 8
;Bar 54
	octave 2
	;note G_, 0 | WARNING: Rounded down to 0
	;note A#, 0 | WARNING: Rounded down to 0
	octave 3
	;note C#, 0 | WARNING: Rounded down to 0
	note E_, 8
	octave 2
	;note G_, 0 | WARNING: Rounded down to 0
	;note A#, 0 | WARNING: Rounded down to 0
	octave 3
	;note C#, 0 | WARNING: Rounded down to 0
	note E_, 8
;Bar 55
	octave 2
	;note G_, 0 | WARNING: Rounded down to 0
	;note A#, 0 | WARNING: Rounded down to 0
	octave 3
	note D#, 8
	;note D#, 0 | WARNING: Rounded down to 0
	octave 2
	;note A#, 0 | WARNING: Rounded down to 0
	note G_, 8
;Bar 56
	;note F_, 0 | WARNING: Rounded down to 0
	;note A_, 0 | WARNING: Rounded down to 0
	octave 3
	note D#, 8
	octave 2
	;note F_, 0 | WARNING: Rounded down to 0
	;note A_, 0 | WARNING: Rounded down to 0
	octave 3
	note D#, 8
;Bar 57
	octave 2
	;note F_, 0 | WARNING: Rounded down to 0
	;note A#, 0 | WARNING: Rounded down to 0
	octave 3
	note D_, 8
	octave 2
	;note F_, 0 | WARNING: Rounded down to 0
	;note A#, 0 | WARNING: Rounded down to 0
	octave 3
	note D_, 8
;Bar 58
	octave 2
	;note F_, 0 | WARNING: Rounded down to 0
	;note B_, 0 | WARNING: Rounded down to 0
	octave 3
	note D#, 8
	;note D_, 0 | WARNING: Rounded down to 0
	octave 2
	;note B_, 0 | WARNING: Rounded down to 0
	note F_, 8
;Bar 59
	octave 3
	;note D#, 0 | WARNING: Rounded down to 0
	octave 2
	;note G_, 0 | WARNING: Rounded down to 0
	note A#, 8
	;note G_, 0 | WARNING: Rounded down to 0
	;note A#, 0 | WARNING: Rounded down to 0
	octave 3
	note D#, 8
;Bar 60
	octave 2
	;note F#, 0 | WARNING: Rounded down to 0
	;note A#, 0 | WARNING: Rounded down to 0
	octave 3
	note D#, 8
	octave 2
	;note F#, 0 | WARNING: Rounded down to 0
	;note A#, 0 | WARNING: Rounded down to 0
	octave 3
	note D#, 8
;Bar 61
	octave 2
	;note F_, 0 | WARNING: Rounded down to 0
	;note A#, 0 | WARNING: Rounded down to 0
	octave 3
	note D_, 8
	octave 2
	;note F_, 0 | WARNING: Rounded down to 0
	;note A#, 0 | WARNING: Rounded down to 0
	octave 3
	note D_, 8
;Bar 62
	octave 2
	;note G_, 0 | WARNING: Rounded down to 0
	octave 3
	note C_, 8
	octave 2
	;note G_, 0 | WARNING: Rounded down to 0
	octave 3
	note C_, 8
;Bar 63
	octave 2
	;note F_, 0 | WARNING: Rounded down to 0
	note A#, 8
	;note F_, 0 | WARNING: Rounded down to 0
	note A_, 8
;Bar 64
	;note F_, 0 | WARNING: Rounded down to 0
	note A#, 8
	;note F_, 0 | WARNING: Rounded down to 0
	;note A_, 0 | WARNING: Rounded down to 0
	octave 3
	note C_, 8
;Bar 65
	rest 16
	rest 16
;Bar 67
	octave 2
	;note F_, 0 | WARNING: Rounded down to 0
	octave 3
	;note D_, 0 | WARNING: Rounded down to 0
	octave 2
	note A#, 4
	;note F_, 0 | WARNING: Rounded down to 0
	;note A#, 0 | WARNING: Rounded down to 0
	octave 3
	note D_, 3
	octave 2
	;note F_, 0 | WARNING: Rounded down to 0
	;note A#, 0 | WARNING: Rounded down to 0
	octave 3
	note D_, 1
	octave 2
	;note F_, 0 | WARNING: Rounded down to 0
	;note A#, 0 | WARNING: Rounded down to 0
	octave 3
	note D_, 3
	octave 2
	;note F_, 0 | WARNING: Rounded down to 0
	;note A#, 0 | WARNING: Rounded down to 0
	octave 3
	note D_, 1
	octave 2
	;note F_, 0 | WARNING: Rounded down to 0
	;note A#, 0 | WARNING: Rounded down to 0
	octave 3
	note D_, 4
;Bar 68
	octave 2
	;note F_, 0 | WARNING: Rounded down to 0
	;note A_, 0 | WARNING: Rounded down to 0
	octave 3
	note D_, 8
	octave 2
	;note F_, 0 | WARNING: Rounded down to 0
	;note A_, 0 | WARNING: Rounded down to 0
	octave 3
	note C_, 8
;Bar 69
	octave 2
	;note G_, 0 | WARNING: Rounded down to 0
	note A#, 8
	octave 3
	;note A#, 0 | WARNING: Rounded down to 0
	;note D_, 0 | WARNING: Rounded down to 0
	octave 2
	note A#, 8
;Bar 70
	octave 3
	;note D_, 0 | WARNING: Rounded down to 0
	;note F_, 0 | WARNING: Rounded down to 0
	note A_, 8
	;note D_, 0 | WARNING: Rounded down to 0
	note F_, 8
;Bar 71
	octave 2
	;note A#, 0 | WARNING: Rounded down to 0
	octave 3
	;note D#, 0 | WARNING: Rounded down to 0
	note G_, 8
	octave 2
	;note A#, 0 | WARNING: Rounded down to 0
	octave 3
	;note D#, 0 | WARNING: Rounded down to 0
	note G_, 8
;Bar 72
	octave 2
	;note A#, 0 | WARNING: Rounded down to 0
	octave 3
	;note D_, 0 | WARNING: Rounded down to 0
	note F_, 8
	octave 2
	;note A#, 0 | WARNING: Rounded down to 0
	octave 3
	;note D_, 0 | WARNING: Rounded down to 0
	note F_, 8
;Bar 73
	octave 2
	;note G_, 0 | WARNING: Rounded down to 0
	;note A#, 0 | WARNING: Rounded down to 0
	octave 3
	note D#, 8
	octave 2
	;note G_, 0 | WARNING: Rounded down to 0
	;note A#, 0 | WARNING: Rounded down to 0
	octave 3
	note D#, 8
;Bar 74
	octave 1
	;note F_, 0 | WARNING: Rounded down to 0
	octave 3
	note C_, 8
	note F_, 8
;Bar 75
	octave 2
	;note F_, 0 | WARNING: Rounded down to 0
	;note A#, 0 | WARNING: Rounded down to 0
	octave 3
	note D_, 4
	octave 2
	;note F_, 0 | WARNING: Rounded down to 0
	;note A#, 0 | WARNING: Rounded down to 0
	octave 3
	note D_, 3
	octave 2
	;note F_, 0 | WARNING: Rounded down to 0
	;note A#, 0 | WARNING: Rounded down to 0
	octave 3
	note D_, 1
	octave 2
	;note F_, 0 | WARNING: Rounded down to 0
	;note A#, 0 | WARNING: Rounded down to 0
	octave 3
	note D_, 3
	octave 2
	;note F_, 0 | WARNING: Rounded down to 0
	;note A#, 0 | WARNING: Rounded down to 0
	octave 3
	note D_, 1
	octave 2
	;note F_, 0 | WARNING: Rounded down to 0
	;note A#, 0 | WARNING: Rounded down to 0
	octave 3
	note D_, 4
;Bar 76
	octave 2
	;note F_, 0 | WARNING: Rounded down to 0
	;note A_, 0 | WARNING: Rounded down to 0
	octave 3
	note D_, 8
	octave 2
	;note F_, 0 | WARNING: Rounded down to 0
	;note A_, 0 | WARNING: Rounded down to 0
	octave 3
	note C_, 8
;Bar 77
	octave 2
	;note G_, 0 | WARNING: Rounded down to 0
	note A#, 8
	;note A#, 0 | WARNING: Rounded down to 0
	octave 3
	;note D_, 0 | WARNING: Rounded down to 0
	note A#, 8
;Bar 78
	;note D_, 0 | WARNING: Rounded down to 0
	;note F_, 0 | WARNING: Rounded down to 0
	note A_, 8
	;note D_, 0 | WARNING: Rounded down to 0
	note F_, 8
;Bar 79
	octave 2
	;note A#, 0 | WARNING: Rounded down to 0
	octave 3
	;note D#, 0 | WARNING: Rounded down to 0
	note G_, 8
	octave 2
	;note A#, 0 | WARNING: Rounded down to 0
	octave 3
	;note D#, 0 | WARNING: Rounded down to 0
	note G_, 8
;Bar 80
	octave 2
	;note A#, 0 | WARNING: Rounded down to 0
	octave 3
	;note D_, 0 | WARNING: Rounded down to 0
	note F_, 8
	octave 2
	;note A#, 0 | WARNING: Rounded down to 0
	octave 3
	;note D_, 0 | WARNING: Rounded down to 0
	note F_, 8
;Bar 81
	octave 2
	;note G_, 0 | WARNING: Rounded down to 0
	;note A#, 0 | WARNING: Rounded down to 0
	octave 3
	note D#, 8
	octave 2
	;note F_, 0 | WARNING: Rounded down to 0
	;note A_, 0 | WARNING: Rounded down to 0
	octave 3
	note D#, 8
;Bar 82
	rest 16
	rest 16
	rest 16
	rest 16
	rest 16
	rest 16
	rest 16
	rest 16
	rest 16
	rest 16
	rest 16
	rest 16
	rest 16
;Bar 95
	;note G#, 0 | WARNING: Rounded down to 0
	octave 4
	note D#, 2
	note D_, 2
	note D#, 4
	note D_, 4
	octave 3
	;note G#, 0 | WARNING: Rounded down to 0
	octave 4
	note D_, 2
	note C_, 2
;Bar 96
	note D_, 4
	note C_, 4
	;note C_, 0 | WARNING: Rounded down to 0
	octave 3
	note G#, 2
	note A#, 2
	octave 4
	note C_, 4
;Bar 97
	octave 3
	;note F_, 0 | WARNING: Rounded down to 0
	note A#, 6
	note F_, 10
;Bar 98
	rest 16
	rest 16
	rest 16
	rest 16
	rest 16
;Bar 103
	;note G#, 0 | WARNING: Rounded down to 0
	octave 4
	note D#, 2
	note D_, 2
	note D#, 4
	note D_, 4
	octave 3
	;note G#, 0 | WARNING: Rounded down to 0
	octave 4
	note D_, 2
	note C_, 2
;Bar 104
	note D_, 4
	note C_, 4
	octave 3
	;note G#, 0 | WARNING: Rounded down to 0
	octave 4
	note C_, 2
	octave 3
	note A#, 2
	octave 4
	note C_, 4
;Bar 105
	octave 3
	note A#, 16
	note A#, 8
;Bar 106
	rest 8
;Bar 107
	octave 2
	;note G_, 0 | WARNING: Rounded down to 0
	octave 3
	;note C_, 0 | WARNING: Rounded down to 0
	note D#, 8
	octave 2
	;note G_, 0 | WARNING: Rounded down to 0
	octave 3
	;note C_, 0 | WARNING: Rounded down to 0
	note D#, 8
;Bar 108
	octave 2
	;note G_, 0 | WARNING: Rounded down to 0
	;note B_, 0 | WARNING: Rounded down to 0
	octave 3
	note D#, 8
	octave 2
	;note G_, 0 | WARNING: Rounded down to 0
	;note B_, 0 | WARNING: Rounded down to 0
	octave 3
	note D#, 8
;Bar 109
	octave 2
	;note G_, 0 | WARNING: Rounded down to 0
	;note A#, 0 | WARNING: Rounded down to 0
	octave 3
	note D#, 8
	octave 2
	;note G_, 0 | WARNING: Rounded down to 0
	;note A#, 0 | WARNING: Rounded down to 0
	octave 3
	note D#, 8
;Bar 110
	octave 2
	;note A_, 0 | WARNING: Rounded down to 0
	octave 3
	;note C_, 0 | WARNING: Rounded down to 0
	note D#, 8
	octave 2
	;note A_, 0 | WARNING: Rounded down to 0
	octave 3
	;note C_, 0 | WARNING: Rounded down to 0
	note D#, 8
;Bar 111
	octave 2
	;note G_, 0 | WARNING: Rounded down to 0
	;note A#, 0 | WARNING: Rounded down to 0
	octave 3
	note D#, 8
	octave 2
	;note G_, 0 | WARNING: Rounded down to 0
	;note A#, 0 | WARNING: Rounded down to 0
	octave 3
	note D#, 8
;Bar 112
	octave 2
	;note G_, 0 | WARNING: Rounded down to 0
	;note A#, 0 | WARNING: Rounded down to 0
	octave 3
	note D#, 8
	octave 2
	;note G_, 0 | WARNING: Rounded down to 0
	;note A#, 0 | WARNING: Rounded down to 0
	octave 3
	note D#, 8
;Bar 113
	octave 2
	;note G_, 0 | WARNING: Rounded down to 0
	;note A#, 0 | WARNING: Rounded down to 0
	octave 3
	note D#, 8
	octave 2
	;note G_, 0 | WARNING: Rounded down to 0
	;note A#, 0 | WARNING: Rounded down to 0
	octave 3
	note D#, 8
;Bar 114
	octave 2
	;note G_, 0 | WARNING: Rounded down to 0
	;note A#, 0 | WARNING: Rounded down to 0
	octave 3
	note D#, 8
	octave 2
	;note G_, 0 | WARNING: Rounded down to 0
	;note A#, 0 | WARNING: Rounded down to 0
	octave 3
	note D#, 8
;Bar 115
	rest 16
	rest 16
	rest 16
	rest 16
	rest 16
	rest 16
;Bar 121
	octave 2
	;note F_, 0 | WARNING: Rounded down to 0
	;note A#, 0 | WARNING: Rounded down to 0
	octave 3
	note D_, 4
	octave 2
	;note F_, 0 | WARNING: Rounded down to 0
	;note A#, 0 | WARNING: Rounded down to 0
	octave 3
	note D_, 3
	octave 2
	;note F_, 0 | WARNING: Rounded down to 0
	;note A#, 0 | WARNING: Rounded down to 0
	octave 3
	note D_, 1
	octave 2
	;note F_, 0 | WARNING: Rounded down to 0
	;note A#, 0 | WARNING: Rounded down to 0
	octave 3
	note D_, 3
	octave 2
	;note F_, 0 | WARNING: Rounded down to 0
	;note A#, 0 | WARNING: Rounded down to 0
	octave 3
	note D_, 1
	octave 2
	;note F_, 0 | WARNING: Rounded down to 0
	;note A#, 0 | WARNING: Rounded down to 0
	octave 3
	note D_, 4
;Bar 122
	octave 2
	;note F_, 0 | WARNING: Rounded down to 0
	;note A_, 0 | WARNING: Rounded down to 0
	octave 3
	note D_, 8
	octave 2
	;note F_, 0 | WARNING: Rounded down to 0
	;note A_, 0 | WARNING: Rounded down to 0
	octave 3
	note C_, 8
;Bar 123
	octave 2
	;note G_, 0 | WARNING: Rounded down to 0
	note A#, 8
	octave 3
	;note A#, 0 | WARNING: Rounded down to 0
	;note D_, 0 | WARNING: Rounded down to 0
	octave 2
	note A#, 8
;Bar 124
	octave 3
	;note D_, 0 | WARNING: Rounded down to 0
	;note F_, 0 | WARNING: Rounded down to 0
	note A_, 8
	;note D_, 0 | WARNING: Rounded down to 0
	note F_, 8
;Bar 125
	octave 2
	;note A#, 0 | WARNING: Rounded down to 0
	octave 3
	;note D#, 0 | WARNING: Rounded down to 0
	note G_, 8
	octave 2
	;note A#, 0 | WARNING: Rounded down to 0
	octave 3
	;note D#, 0 | WARNING: Rounded down to 0
	note G_, 8
;Bar 126
	octave 2
	;note A#, 0 | WARNING: Rounded down to 0
	octave 3
	;note D_, 0 | WARNING: Rounded down to 0
	note F_, 8
	octave 2
	;note A#, 0 | WARNING: Rounded down to 0
	octave 3
	;note D_, 0 | WARNING: Rounded down to 0
	note F_, 8
;Bar 127
	octave 2
	;note G_, 0 | WARNING: Rounded down to 0
	;note A#, 0 | WARNING: Rounded down to 0
	octave 3
	note D#, 8
	octave 2
	;note G_, 0 | WARNING: Rounded down to 0
	;note A#, 0 | WARNING: Rounded down to 0
	octave 3
	note D#, 8
;Bar 128
	octave 2
	;note G_, 0 | WARNING: Rounded down to 0
	;note A#, 0 | WARNING: Rounded down to 0
	octave 3
	note D#, 8
	octave 2
	;note A_, 0 | WARNING: Rounded down to 0
	octave 3
	;note C_, 0 | WARNING: Rounded down to 0
	note F_, 8
;Bar 129
	octave 2
	;note A#, 0 | WARNING: Rounded down to 0
	octave 3
	note D_, 4
	rest 16
	rest 4
;Bar 130
	;note A_, 0 | WARNING: Rounded down to 0
	octave 4
	;note C_, 0 | WARNING: Rounded down to 0
	note F_, 8
;Bar 131
	octave 3
	;note G_, 0 | WARNING: Rounded down to 0
	;note A#, 0 | WARNING: Rounded down to 0
	octave 4
	note D_, 8
	rest 16
;Bar 132
	octave 3
	;note F_, 0 | WARNING: Rounded down to 0
	;note A_, 0 | WARNING: Rounded down to 0
	octave 4
	note D_, 8
;Bar 133
	octave 2
	;note A#, 0 | WARNING: Rounded down to 0
	octave 3
	;note D#, 0 | WARNING: Rounded down to 0
	note G_, 8
	rest 16
;Bar 134
	octave 2
	;note A#, 0 | WARNING: Rounded down to 0
	octave 3
	;note D_, 0 | WARNING: Rounded down to 0
	note F_, 8
;Bar 135
	octave 2
	;note G_, 0 | WARNING: Rounded down to 0
	;note A#, 0 | WARNING: Rounded down to 0
	octave 3
	note D#, 8
	rest 16
	rest 8
;Bar 137
	octave 2
	;note C_, 0 | WARNING: Rounded down to 0
	note D#, 4
	;note C_, 0 | WARNING: Rounded down to 0
	note D#, 4
	;note C_, 0 | WARNING: Rounded down to 0
	note D#, 4
	;note C_, 0 | WARNING: Rounded down to 0
	note D#, 4
;Bar 138
	;note C_, 0 | WARNING: Rounded down to 0
	note D#, 4
	;note C_, 0 | WARNING: Rounded down to 0
	note D#, 4
	;note C_, 0 | WARNING: Rounded down to 0
	note D#, 4
	;note C_, 0 | WARNING: Rounded down to 0
	note D#, 4
;Bar 139
	;note D_, 0 | WARNING: Rounded down to 0
	note F_, 4
	;note D_, 0 | WARNING: Rounded down to 0
	note F_, 4
	;note D_, 0 | WARNING: Rounded down to 0
	note F_, 4
	;note D_, 0 | WARNING: Rounded down to 0
	note F_, 4
;Bar 140
	;note D_, 0 | WARNING: Rounded down to 0
	note F_, 4
	;note D_, 0 | WARNING: Rounded down to 0
	note F_, 4
	;note D_, 0 | WARNING: Rounded down to 0
	note F_, 4
	;note D_, 0 | WARNING: Rounded down to 0
	note F_, 4
;Bar 141
	;note D#, 0 | WARNING: Rounded down to 0
	note G#, 4
	;note D#, 0 | WARNING: Rounded down to 0
	note G#, 4
	;note D#, 0 | WARNING: Rounded down to 0
	note G#, 4
	;note D#, 0 | WARNING: Rounded down to 0
	note G#, 4
;Bar 142
	;note D#, 0 | WARNING: Rounded down to 0
	note G#, 4
	;note D#, 0 | WARNING: Rounded down to 0
	note G#, 4
	;note D#, 0 | WARNING: Rounded down to 0
	note G#, 4
	;note D#, 0 | WARNING: Rounded down to 0
	note G#, 4
;Bar 143
	;note F_, 0 | WARNING: Rounded down to 0
	note A#, 4
	;note F_, 0 | WARNING: Rounded down to 0
	note A#, 4
	;note F_, 0 | WARNING: Rounded down to 0
	note A#, 4
	;note F_, 0 | WARNING: Rounded down to 0
	note A#, 4
;Bar 144
	;note F_, 0 | WARNING: Rounded down to 0
	note A#, 4
	;note F_, 0 | WARNING: Rounded down to 0
	note A#, 4
	;note F_, 0 | WARNING: Rounded down to 0
	note A#, 4
	;note F_, 0 | WARNING: Rounded down to 0
	note A#, 4
;Bar 145
	;note F_, 0 | WARNING: Rounded down to 0
	;note G#, 0 | WARNING: Rounded down to 0
	octave 3
	note C_, 4
	octave 2
	;note F_, 0 | WARNING: Rounded down to 0
	;note G#, 0 | WARNING: Rounded down to 0
	octave 3
	note C_, 4
	octave 2
	;note F_, 0 | WARNING: Rounded down to 0
	;note G#, 0 | WARNING: Rounded down to 0
	octave 3
	note C_, 4
	octave 2
	;note F_, 0 | WARNING: Rounded down to 0
	;note G#, 0 | WARNING: Rounded down to 0
	octave 3
	note C_, 4
;Bar 146
	;note C_, 0 | WARNING: Rounded down to 0
	octave 2
	;note F_, 0 | WARNING: Rounded down to 0
	note G#, 4
	octave 3
	;note C_, 0 | WARNING: Rounded down to 0
	octave 2
	;note F_, 0 | WARNING: Rounded down to 0
	note G#, 4
	octave 3
	;note C_, 0 | WARNING: Rounded down to 0
	octave 2
	;note F_, 0 | WARNING: Rounded down to 0
	note G#, 4
	octave 3
	;note C_, 0 | WARNING: Rounded down to 0
	octave 2
	;note F_, 0 | WARNING: Rounded down to 0
	note G#, 4
;Bar 147
	;note F_, 0 | WARNING: Rounded down to 0
	;note A#, 0 | WARNING: Rounded down to 0
	octave 3
	note D_, 4
	octave 2
	;note F_, 0 | WARNING: Rounded down to 0
	;note A#, 0 | WARNING: Rounded down to 0
	octave 3
	note D_, 4
	octave 2
	;note F_, 0 | WARNING: Rounded down to 0
	;note A#, 0 | WARNING: Rounded down to 0
	octave 3
	note D_, 4
	octave 2
	;note F_, 0 | WARNING: Rounded down to 0
	;note A#, 0 | WARNING: Rounded down to 0
	octave 3
	note D_, 4
;Bar 148
	;note D_, 0 | WARNING: Rounded down to 0
	octave 2
	;note A#, 0 | WARNING: Rounded down to 0
	note F_, 4
	octave 3
	;note D_, 0 | WARNING: Rounded down to 0
	octave 2
	;note A#, 0 | WARNING: Rounded down to 0
	note F_, 4
	octave 3
	;note D_, 0 | WARNING: Rounded down to 0
	octave 2
	;note A#, 0 | WARNING: Rounded down to 0
	note F_, 4
	octave 3
	;note D_, 0 | WARNING: Rounded down to 0
	octave 2
	;note A#, 0 | WARNING: Rounded down to 0
	note F_, 4
;Bar 149
	octave 3
	;note C_, 0 | WARNING: Rounded down to 0
	octave 2
	;note F_, 0 | WARNING: Rounded down to 0
	note G#, 4
	octave 3
	;note C_, 0 | WARNING: Rounded down to 0
	octave 2
	;note F_, 0 | WARNING: Rounded down to 0
	note G#, 4
	octave 3
	;note C_, 0 | WARNING: Rounded down to 0
	octave 2
	;note F_, 0 | WARNING: Rounded down to 0
	note G#, 4
	octave 3
	;note C_, 0 | WARNING: Rounded down to 0
	octave 2
	;note F_, 0 | WARNING: Rounded down to 0
	note G#, 4
;Bar 150
	octave 3
	;note C_, 0 | WARNING: Rounded down to 0
	octave 2
	;note F_, 0 | WARNING: Rounded down to 0
	note G#, 4
	octave 3
	;note C_, 0 | WARNING: Rounded down to 0
	octave 2
	;note F_, 0 | WARNING: Rounded down to 0
	note G#, 4
	octave 3
	;note C_, 0 | WARNING: Rounded down to 0
	octave 2
	;note F_, 0 | WARNING: Rounded down to 0
	note G#, 4
	octave 3
	;note C_, 0 | WARNING: Rounded down to 0
	octave 2
	;note F_, 0 | WARNING: Rounded down to 0
	note G#, 4
;Bar 151
	;note F_, 0 | WARNING: Rounded down to 0
	;note A#, 0 | WARNING: Rounded down to 0
	octave 3
	note D_, 4
	octave 2
	;note F_, 0 | WARNING: Rounded down to 0
	;note A#, 0 | WARNING: Rounded down to 0
	octave 3
	note D_, 4
	octave 2
	;note F_, 0 | WARNING: Rounded down to 0
	;note A#, 0 | WARNING: Rounded down to 0
	octave 3
	note D_, 4
	octave 2
	;note F_, 0 | WARNING: Rounded down to 0
	;note A#, 0 | WARNING: Rounded down to 0
	octave 3
	note D_, 4
;Bar 152
	octave 1
	;note A#, 0 | WARNING: Rounded down to 0
	octave 2
	note A#, 3
	;note C_, 0 | WARNING: Rounded down to 0
	octave 3
	note C_, 2
	;note D_, 0 | WARNING: Rounded down to 0
	octave 2
	note D_, 3
	;note D#, 0 | WARNING: Rounded down to 0
	octave 3
	note D#, 3
	octave 2
	;note F_, 0 | WARNING: Rounded down to 0
	octave 3
	note F_, 2
	octave 2
	;note G_, 0 | WARNING: Rounded down to 0
	octave 3
	note G_, 3
;Bar 153
	;note C_, 0 | WARNING: Rounded down to 0
	octave 2
	;note F_, 0 | WARNING: Rounded down to 0
	note G#, 4
	octave 3
	;note C_, 0 | WARNING: Rounded down to 0
	octave 2
	;note F_, 0 | WARNING: Rounded down to 0
	note G#, 4
	octave 3
	;note C_, 0 | WARNING: Rounded down to 0
	octave 2
	;note F_, 0 | WARNING: Rounded down to 0
	note G#, 4
	octave 3
	;note C_, 0 | WARNING: Rounded down to 0
	octave 2
	;note F_, 0 | WARNING: Rounded down to 0
	note G#, 4
;Bar 154
	octave 3
	;note C_, 0 | WARNING: Rounded down to 0
	octave 2
	;note F_, 0 | WARNING: Rounded down to 0
	note G#, 4
	octave 3
	;note C_, 0 | WARNING: Rounded down to 0
	octave 2
	;note F_, 0 | WARNING: Rounded down to 0
	note G#, 4
	octave 3
	;note C_, 0 | WARNING: Rounded down to 0
	octave 2
	;note F_, 0 | WARNING: Rounded down to 0
	note G#, 4
	octave 3
	;note C_, 0 | WARNING: Rounded down to 0
	octave 2
	;note F_, 0 | WARNING: Rounded down to 0
	note G#, 4
;Bar 155
	;note F_, 0 | WARNING: Rounded down to 0
	;note A#, 0 | WARNING: Rounded down to 0
	octave 3
	note D_, 4
	octave 2
	;note F_, 0 | WARNING: Rounded down to 0
	;note A#, 0 | WARNING: Rounded down to 0
	octave 3
	note D_, 4
	octave 2
	;note F_, 0 | WARNING: Rounded down to 0
	;note A#, 0 | WARNING: Rounded down to 0
	octave 3
	note D_, 4
	octave 2
	;note F_, 0 | WARNING: Rounded down to 0
	;note A#, 0 | WARNING: Rounded down to 0
	octave 3
	note D_, 4
;Bar 156
	octave 2
	;note F_, 0 | WARNING: Rounded down to 0
	;note A#, 0 | WARNING: Rounded down to 0
	octave 3
	note D_, 4
	octave 2
	;note F_, 0 | WARNING: Rounded down to 0
	;note A#, 0 | WARNING: Rounded down to 0
	octave 3
	note D_, 4
	octave 2
	;note F_, 0 | WARNING: Rounded down to 0
	;note A#, 0 | WARNING: Rounded down to 0
	octave 3
	note D_, 4
	octave 2
	;note F_, 0 | WARNING: Rounded down to 0
	;note A#, 0 | WARNING: Rounded down to 0
	octave 3
	note D_, 4
;Bar 157
	;note C_, 0 | WARNING: Rounded down to 0
	octave 2
	;note F_, 0 | WARNING: Rounded down to 0
	note G#, 4
	octave 3
	;note C_, 0 | WARNING: Rounded down to 0
	octave 2
	;note F_, 0 | WARNING: Rounded down to 0
	note G#, 4
	octave 3
	;note C_, 0 | WARNING: Rounded down to 0
	octave 2
	;note F_, 0 | WARNING: Rounded down to 0
	note G#, 4
	octave 3
	;note C_, 0 | WARNING: Rounded down to 0
	octave 2
	;note F_, 0 | WARNING: Rounded down to 0
	note G#, 4
;Bar 158
	octave 3
	;note C_, 0 | WARNING: Rounded down to 0
	octave 2
	;note F_, 0 | WARNING: Rounded down to 0
	note G#, 4
	octave 3
	;note C_, 0 | WARNING: Rounded down to 0
	octave 2
	;note F_, 0 | WARNING: Rounded down to 0
	note G#, 4
	octave 3
	;note C_, 0 | WARNING: Rounded down to 0
	octave 2
	;note F_, 0 | WARNING: Rounded down to 0
	note G#, 4
	octave 3
	;note C_, 0 | WARNING: Rounded down to 0
	octave 2
	;note F_, 0 | WARNING: Rounded down to 0
	note G#, 4
;Bar 159
	;note F_, 0 | WARNING: Rounded down to 0
	;note A#, 0 | WARNING: Rounded down to 0
	octave 3
	note D_, 4
	octave 2
	;note F_, 0 | WARNING: Rounded down to 0
	;note A#, 0 | WARNING: Rounded down to 0
	octave 3
	note D_, 4
	octave 2
	;note F_, 0 | WARNING: Rounded down to 0
	;note A#, 0 | WARNING: Rounded down to 0
	octave 3
	note D_, 4
	octave 2
	;note E_, 0 | WARNING: Rounded down to 0
	;note A#, 0 | WARNING: Rounded down to 0
	octave 3
	note D_, 4
;Bar 160
	octave 2
	;note F_, 0 | WARNING: Rounded down to 0
	;note A#, 0 | WARNING: Rounded down to 0
	octave 3
	note D_, 4
	octave 2
	;note F_, 0 | WARNING: Rounded down to 0
	;note A#, 0 | WARNING: Rounded down to 0
	octave 3
	note D_, 4
	octave 2
	;note F_, 0 | WARNING: Rounded down to 0
	;note A#, 0 | WARNING: Rounded down to 0
	octave 3
	note D_, 4
	octave 2
	;note F_, 0 | WARNING: Rounded down to 0
	;note A#, 0 | WARNING: Rounded down to 0
	octave 3
	note D_, 4
;Bar 161
	;note C_, 0 | WARNING: Rounded down to 0
	octave 2
	;note F_, 0 | WARNING: Rounded down to 0
	note G#, 4
	octave 3
	;note C_, 0 | WARNING: Rounded down to 0
	octave 2
	;note F_, 0 | WARNING: Rounded down to 0
	note G#, 4
	octave 3
	;note C_, 0 | WARNING: Rounded down to 0
	octave 2
	;note F_, 0 | WARNING: Rounded down to 0
	note G#, 4
	octave 1
	note G#, 4
;Bar 162
	octave 2
	note C_, 4
	;note F_, 0 | WARNING: Rounded down to 0
	;note G#, 0 | WARNING: Rounded down to 0
	octave 3
	note C_, 4
	octave 2
	;note F_, 0 | WARNING: Rounded down to 0
	;note G#, 0 | WARNING: Rounded down to 0
	octave 3
	note C_, 4
	octave 2
	;note F_, 0 | WARNING: Rounded down to 0
	;note G#, 0 | WARNING: Rounded down to 0
	octave 3
	note C_, 4
;Bar 163
	octave 2
	;note F_, 0 | WARNING: Rounded down to 0
	;note A#, 0 | WARNING: Rounded down to 0
	octave 3
	note D_, 4
	octave 2
	;note F_, 0 | WARNING: Rounded down to 0
	;note A#, 0 | WARNING: Rounded down to 0
	octave 3
	note D_, 4
	octave 2
	;note F_, 0 | WARNING: Rounded down to 0
	;note A#, 0 | WARNING: Rounded down to 0
	octave 3
	note D_, 4
	octave 2
	;note E_, 0 | WARNING: Rounded down to 0
	;note A#, 0 | WARNING: Rounded down to 0
	octave 3
	note D_, 4
;Bar 164
	octave 2
	;note F_, 0 | WARNING: Rounded down to 0
	;note A#, 0 | WARNING: Rounded down to 0
	octave 3
	note D_, 4
	octave 2
	;note F_, 0 | WARNING: Rounded down to 0
	;note A#, 0 | WARNING: Rounded down to 0
	octave 3
	note D_, 4
	octave 2
	;note F_, 0 | WARNING: Rounded down to 0
	;note A#, 0 | WARNING: Rounded down to 0
	octave 3
	note D_, 4
	octave 2
	;note F_, 0 | WARNING: Rounded down to 0
	;note A#, 0 | WARNING: Rounded down to 0
	octave 3
	note D_, 4
;Bar 165
	octave 2
	;note F_, 0 | WARNING: Rounded down to 0
	;note G#, 0 | WARNING: Rounded down to 0
	octave 3
	note C_, 4
	octave 2
	;note F_, 0 | WARNING: Rounded down to 0
	;note G#, 0 | WARNING: Rounded down to 0
	octave 3
	note C_, 4
	octave 2
	;note F_, 0 | WARNING: Rounded down to 0
	;note G#, 0 | WARNING: Rounded down to 0
	octave 3
	note C_, 4
	octave 1
	note G#, 4
;Bar 166
	octave 2
	note C_, 4
	;note F_, 0 | WARNING: Rounded down to 0
	;note G#, 0 | WARNING: Rounded down to 0
	octave 3
	note C_, 4
	octave 2
	;note F_, 0 | WARNING: Rounded down to 0
	;note G#, 0 | WARNING: Rounded down to 0
	octave 3
	note C_, 4
	octave 2
	;note F_, 0 | WARNING: Rounded down to 0
	;note G#, 0 | WARNING: Rounded down to 0
	octave 3
	note C_, 4
;Bar 167
	octave 2
	;note F_, 0 | WARNING: Rounded down to 0
	;note A#, 0 | WARNING: Rounded down to 0
	octave 3
	note D_, 4
	octave 2
	;note F_, 0 | WARNING: Rounded down to 0
	;note A#, 0 | WARNING: Rounded down to 0
	octave 3
	note D_, 4
	octave 2
	;note F_, 0 | WARNING: Rounded down to 0
	;note A#, 0 | WARNING: Rounded down to 0
	octave 3
	note D_, 4
	octave 2
	;note F_, 0 | WARNING: Rounded down to 0
	;note A#, 0 | WARNING: Rounded down to 0
	octave 3
	note D_, 4
;Bar 168
	octave 1
	;note A#, 0 | WARNING: Rounded down to 0
	octave 2
	;note A#, 0 | WARNING: Rounded down to 0
	octave 3
	note A#, 3
	octave 2
	;note C_, 0 | WARNING: Rounded down to 0
	octave 3
	;note C_, 0 | WARNING: Rounded down to 0
	octave 4
	note C_, 2
	octave 3
	;note D_, 0 | WARNING: Rounded down to 0
	octave 2
	;note D_, 0 | WARNING: Rounded down to 0
	octave 4
	note D_, 3
	octave 2
	;note D#, 0 | WARNING: Rounded down to 0
	octave 3
	;note D#, 0 | WARNING: Rounded down to 0
	octave 4
	note D#, 3
	octave 2
	;note F_, 0 | WARNING: Rounded down to 0
	octave 3
	;note F_, 0 | WARNING: Rounded down to 0
	octave 4
	note F_, 2
	octave 2
	;note G_, 0 | WARNING: Rounded down to 0
	octave 3
	;note G_, 0 | WARNING: Rounded down to 0
	octave 4
	note G_, 3
;Bar 169
	octave 2
	;note F_, 0 | WARNING: Rounded down to 0
	;note G#, 0 | WARNING: Rounded down to 0
	octave 3
	note C_, 4
	octave 2
	;note F_, 0 | WARNING: Rounded down to 0
	;note G#, 0 | WARNING: Rounded down to 0
	octave 3
	note C_, 4
	octave 2
	;note F_, 0 | WARNING: Rounded down to 0
	;note G#, 0 | WARNING: Rounded down to 0
	octave 3
	note C_, 4
	octave 1
	note G#, 4
;Bar 170
	octave 2
	note C_, 4
	;note F_, 0 | WARNING: Rounded down to 0
	;note G#, 0 | WARNING: Rounded down to 0
	octave 3
	note C_, 4
	octave 2
	;note F_, 0 | WARNING: Rounded down to 0
	;note G#, 0 | WARNING: Rounded down to 0
	octave 3
	note C_, 4
	octave 2
	;note F_, 0 | WARNING: Rounded down to 0
	;note G#, 0 | WARNING: Rounded down to 0
	octave 3
	note C_, 4
;Bar 171
	octave 2
	;note F_, 0 | WARNING: Rounded down to 0
	;note A#, 0 | WARNING: Rounded down to 0
	octave 3
	note D_, 4
	octave 2
	;note F_, 0 | WARNING: Rounded down to 0
	;note A#, 0 | WARNING: Rounded down to 0
	octave 3
	note D_, 4
	octave 2
	;note F_, 0 | WARNING: Rounded down to 0
	;note A#, 0 | WARNING: Rounded down to 0
	octave 3
	note D_, 4
	octave 2
	;note E_, 0 | WARNING: Rounded down to 0
	;note A#, 0 | WARNING: Rounded down to 0
	octave 3
	note D_, 4
;Bar 172
	octave 2
	;note F_, 0 | WARNING: Rounded down to 0
	;note A#, 0 | WARNING: Rounded down to 0
	octave 3
	note D_, 4
	octave 2
	;note F_, 0 | WARNING: Rounded down to 0
	;note A#, 0 | WARNING: Rounded down to 0
	octave 3
	note D_, 4
	octave 2
	;note F_, 0 | WARNING: Rounded down to 0
	;note A#, 0 | WARNING: Rounded down to 0
	octave 3
	note D_, 4
	octave 2
	;note F_, 0 | WARNING: Rounded down to 0
	;note A#, 0 | WARNING: Rounded down to 0
	octave 3
	note D_, 4
;Bar 173
	octave 2
	;note F_, 0 | WARNING: Rounded down to 0
	;note G#, 0 | WARNING: Rounded down to 0
	octave 3
	note C_, 4
	octave 2
	;note F_, 0 | WARNING: Rounded down to 0
	;note G#, 0 | WARNING: Rounded down to 0
	octave 3
	note C_, 4
	octave 2
	;note F_, 0 | WARNING: Rounded down to 0
	;note G#, 0 | WARNING: Rounded down to 0
	octave 3
	note C_, 4
	octave 1
	note G#, 4
;Bar 174
	octave 2
	note C_, 4
	;note F_, 0 | WARNING: Rounded down to 0
	;note G#, 0 | WARNING: Rounded down to 0
	octave 3
	note C_, 4
	octave 2
	;note F_, 0 | WARNING: Rounded down to 0
	;note G#, 0 | WARNING: Rounded down to 0
	octave 3
	note C_, 4
	octave 2
	;note F_, 0 | WARNING: Rounded down to 0
	;note G#, 0 | WARNING: Rounded down to 0
	octave 3
	note C_, 4
;Bar 175
	octave 2
	;note F_, 0 | WARNING: Rounded down to 0
	;note A#, 0 | WARNING: Rounded down to 0
	octave 3
	note D_, 4
	octave 2
	;note F_, 0 | WARNING: Rounded down to 0
	;note A#, 0 | WARNING: Rounded down to 0
	octave 3
	note D_, 4
	octave 2
	;note F_, 0 | WARNING: Rounded down to 0
	;note A#, 0 | WARNING: Rounded down to 0
	octave 3
	note D_, 4
	octave 2
	;note E_, 0 | WARNING: Rounded down to 0
	;note A#, 0 | WARNING: Rounded down to 0
	octave 3
	note D_, 4
;Bar 176
	octave 2
	;note F_, 0 | WARNING: Rounded down to 0
	;note A#, 0 | WARNING: Rounded down to 0
	octave 3
	note D_, 4
	octave 2
	;note F_, 0 | WARNING: Rounded down to 0
	;note A#, 0 | WARNING: Rounded down to 0
	octave 3
	note D_, 4
	octave 2
	;note F_, 0 | WARNING: Rounded down to 0
	;note A#, 0 | WARNING: Rounded down to 0
	octave 3
	note D_, 4
	octave 2
	;note F_, 0 | WARNING: Rounded down to 0
	;note A#, 0 | WARNING: Rounded down to 0
	octave 3
	note D_, 4
;Bar 177
	octave 1
	;note F_, 0 | WARNING: Rounded down to 0
	octave 2
	note F_, 4
	;note F_, 0 | WARNING: Rounded down to 0
	;note G#, 0 | WARNING: Rounded down to 0
	octave 3
	note C_, 4
	octave 2
	;note F_, 0 | WARNING: Rounded down to 0
	;note G#, 0 | WARNING: Rounded down to 0
	octave 3
	note C_, 4
	octave 1
	;note G#, 0 | WARNING: Rounded down to 0
	octave 2
	note G#, 4
;Bar 178
	;note C_, 0 | WARNING: Rounded down to 0
	octave 3
	note C_, 4
	octave 2
	;note F_, 0 | WARNING: Rounded down to 0
	;note G#, 0 | WARNING: Rounded down to 0
	octave 3
	note C_, 4
	octave 2
	;note F_, 0 | WARNING: Rounded down to 0
	;note G#, 0 | WARNING: Rounded down to 0
	octave 3
	note C_, 4
	octave 2
	;note F_, 0 | WARNING: Rounded down to 0
	;note G#, 0 | WARNING: Rounded down to 0
	octave 3
	note C_, 4
;Bar 179
	octave 1
	;note A#, 0 | WARNING: Rounded down to 0
	octave 2
	note A#, 4
	;note F_, 0 | WARNING: Rounded down to 0
	;note A#, 0 | WARNING: Rounded down to 0
	octave 3
	note D_, 4
	octave 2
	;note F_, 0 | WARNING: Rounded down to 0
	;note A#, 0 | WARNING: Rounded down to 0
	octave 3
	note D_, 4
	octave 2
	;note E_, 0 | WARNING: Rounded down to 0
	octave 3
	note E_, 4
;Bar 180
	octave 2
	;note F_, 0 | WARNING: Rounded down to 0
	octave 3
	note F_, 4
	octave 2
	;note F_, 0 | WARNING: Rounded down to 0
	;note A#, 0 | WARNING: Rounded down to 0
	octave 3
	note D_, 4
	octave 2
	;note F_, 0 | WARNING: Rounded down to 0
	;note A#, 0 | WARNING: Rounded down to 0
	octave 3
	note D_, 4
	octave 2
	;note F_, 0 | WARNING: Rounded down to 0
	;note A#, 0 | WARNING: Rounded down to 0
	octave 3
	note D_, 4
;Bar 181
	octave 1
	;note F_, 0 | WARNING: Rounded down to 0
	octave 2
	note F_, 4
	;note F_, 0 | WARNING: Rounded down to 0
	;note G#, 0 | WARNING: Rounded down to 0
	octave 3
	note C_, 4
	octave 2
	;note F_, 0 | WARNING: Rounded down to 0
	;note G#, 0 | WARNING: Rounded down to 0
	octave 3
	note C_, 4
	octave 1
	;note G#, 0 | WARNING: Rounded down to 0
	octave 2
	note G#, 4
;Bar 182
	;note C_, 0 | WARNING: Rounded down to 0
	octave 3
	note C_, 4
	octave 2
	;note F_, 0 | WARNING: Rounded down to 0
	;note G#, 0 | WARNING: Rounded down to 0
	octave 3
	note C_, 4
	octave 2
	;note F_, 0 | WARNING: Rounded down to 0
	;note G#, 0 | WARNING: Rounded down to 0
	octave 3
	note C_, 4
	octave 2
	;note F_, 0 | WARNING: Rounded down to 0
	;note G#, 0 | WARNING: Rounded down to 0
	octave 3
	note C_, 4
;Bar 183
	octave 1
	;note A#, 0 | WARNING: Rounded down to 0
	octave 2
	note A#, 4
	;note F_, 0 | WARNING: Rounded down to 0
	;note A#, 0 | WARNING: Rounded down to 0
	octave 3
	note D_, 4
	octave 2
	;note F_, 0 | WARNING: Rounded down to 0
	;note A#, 0 | WARNING: Rounded down to 0
	octave 3
	note D_, 4
	octave 2
	;note F_, 0 | WARNING: Rounded down to 0
	;note A#, 0 | WARNING: Rounded down to 0
	octave 3
	note D_, 4
;Bar 184
	;note D_, 0 | WARNING: Rounded down to 0
	octave 2
	;note F_, 0 | WARNING: Rounded down to 0
	note A#, 4
	;note F_, 0 | WARNING: Rounded down to 0
	;note A#, 0 | WARNING: Rounded down to 0
	octave 3
	note D_, 4
	octave 2
	;note F_, 0 | WARNING: Rounded down to 0
	;note A#, 0 | WARNING: Rounded down to 0
	octave 3
	note D_, 4
	octave 2
	;note F_, 0 | WARNING: Rounded down to 0
	;note A#, 0 | WARNING: Rounded down to 0
	octave 3
	note D_, 4
;Bar 185
	octave 1
	;note F_, 0 | WARNING: Rounded down to 0
	octave 2
	note F_, 4
	;note F_, 0 | WARNING: Rounded down to 0
	;note G#, 0 | WARNING: Rounded down to 0
	octave 3
	note C_, 4
	octave 2
	;note F_, 0 | WARNING: Rounded down to 0
	;note G#, 0 | WARNING: Rounded down to 0
	octave 3
	note C_, 4
	octave 1
	;note G#, 0 | WARNING: Rounded down to 0
	octave 2
	note G#, 4
;Bar 186
	;note C_, 0 | WARNING: Rounded down to 0
	octave 3
	note C_, 4
	octave 2
	;note F_, 0 | WARNING: Rounded down to 0
	;note G#, 0 | WARNING: Rounded down to 0
	octave 3
	note C_, 4
	octave 2
	;note F_, 0 | WARNING: Rounded down to 0
	;note G#, 0 | WARNING: Rounded down to 0
	octave 3
	note C_, 4
	octave 2
	;note F_, 0 | WARNING: Rounded down to 0
	;note G#, 0 | WARNING: Rounded down to 0
	octave 3
	note C_, 4
;Bar 187
	octave 1
	;note A#, 0 | WARNING: Rounded down to 0
	octave 2
	note A#, 4
	;note F_, 0 | WARNING: Rounded down to 0
	;note A#, 0 | WARNING: Rounded down to 0
	octave 3
	note D_, 4
	octave 2
	;note F_, 0 | WARNING: Rounded down to 0
	;note A#, 0 | WARNING: Rounded down to 0
	octave 3
	note D_, 4
	octave 2
	;note E_, 0 | WARNING: Rounded down to 0
	octave 3
	note E_, 4
;Bar 188
	octave 2
	;note F_, 0 | WARNING: Rounded down to 0
	octave 3
	note F_, 4
	octave 2
	;note F_, 0 | WARNING: Rounded down to 0
	;note A#, 0 | WARNING: Rounded down to 0
	octave 3
	note D_, 4
	octave 2
	;note F_, 0 | WARNING: Rounded down to 0
	;note A#, 0 | WARNING: Rounded down to 0
	octave 3
	note D_, 4
	octave 2
	;note F_, 0 | WARNING: Rounded down to 0
	;note A#, 0 | WARNING: Rounded down to 0
	octave 3
	note D_, 4
;Bar 189
	octave 1
	;note F_, 0 | WARNING: Rounded down to 0
	octave 2
	note F_, 4
	;note F_, 0 | WARNING: Rounded down to 0
	;note G#, 0 | WARNING: Rounded down to 0
	octave 3
	note C_, 4
	octave 2
	;note F_, 0 | WARNING: Rounded down to 0
	;note G#, 0 | WARNING: Rounded down to 0
	octave 3
	note C_, 4
	octave 1
	;note G#, 0 | WARNING: Rounded down to 0
	octave 2
	note G#, 4
;Bar 190
	;note C_, 0 | WARNING: Rounded down to 0
	octave 3
	note C_, 4
	octave 2
	;note F_, 0 | WARNING: Rounded down to 0
	;note G#, 0 | WARNING: Rounded down to 0
	octave 3
	note C_, 4
	octave 2
	;note F_, 0 | WARNING: Rounded down to 0
	;note G#, 0 | WARNING: Rounded down to 0
	octave 3
	note C_, 4
	octave 2
	;note F_, 0 | WARNING: Rounded down to 0
	;note G#, 0 | WARNING: Rounded down to 0
	octave 3
	note C_, 4
;Bar 191
	octave 1
	;note A#, 0 | WARNING: Rounded down to 0
	octave 2
	note A#, 4
	;note F_, 0 | WARNING: Rounded down to 0
	;note A#, 0 | WARNING: Rounded down to 0
	octave 3
	note D_, 4
	octave 2
	;note F_, 0 | WARNING: Rounded down to 0
	;note A#, 0 | WARNING: Rounded down to 0
	octave 3
	note D_, 4
	octave 2
	;note F_, 0 | WARNING: Rounded down to 0
	;note A#, 0 | WARNING: Rounded down to 0
	octave 3
	note D_, 4
;Bar 192
	octave 1
	;note A#, 0 | WARNING: Rounded down to 0
	octave 2
	;note A#, 0 | WARNING: Rounded down to 0
	octave 3
	note A#, 3
	octave 2
	;note C_, 0 | WARNING: Rounded down to 0
	octave 3
	;note C_, 0 | WARNING: Rounded down to 0
	octave 4
	note C_, 2
	octave 3
	;note D_, 0 | WARNING: Rounded down to 0
	octave 2
	;note D_, 0 | WARNING: Rounded down to 0
	octave 4
	note D_, 3
	octave 2
	;note D#, 0 | WARNING: Rounded down to 0
	octave 3
	;note D#, 0 | WARNING: Rounded down to 0
	octave 4
	note D#, 3
	octave 2
	;note F_, 0 | WARNING: Rounded down to 0
	octave 3
	;note F_, 0 | WARNING: Rounded down to 0
	octave 4
	note F_, 2
	octave 2
	;note G_, 0 | WARNING: Rounded down to 0
	octave 3
	;note G_, 0 | WARNING: Rounded down to 0
	octave 4
	note G_, 3
;Bar 193
	octave 1
	;note F_, 0 | WARNING: Rounded down to 0
	octave 2
	note F_, 4
	;note F_, 0 | WARNING: Rounded down to 0
	;note G#, 0 | WARNING: Rounded down to 0
	octave 3
	note C_, 4
	octave 2
	;note F_, 0 | WARNING: Rounded down to 0
	;note G#, 0 | WARNING: Rounded down to 0
	octave 3
	note C_, 4
	octave 1
	;note G#, 0 | WARNING: Rounded down to 0
	octave 2
	note G#, 4
;Bar 194
	;note C_, 0 | WARNING: Rounded down to 0
	octave 3
	note C_, 4
	octave 2
	;note F_, 0 | WARNING: Rounded down to 0
	;note G#, 0 | WARNING: Rounded down to 0
	octave 3
	note C_, 4
	octave 2
	;note F_, 0 | WARNING: Rounded down to 0
	;note G#, 0 | WARNING: Rounded down to 0
	octave 3
	note C_, 4
	octave 2
	;note F_, 0 | WARNING: Rounded down to 0
	;note G#, 0 | WARNING: Rounded down to 0
	octave 3
	note C_, 4
;Bar 195
	octave 1
	;note A#, 0 | WARNING: Rounded down to 0
	octave 2
	note A#, 4
	;note F_, 0 | WARNING: Rounded down to 0
	;note A#, 0 | WARNING: Rounded down to 0
	octave 3
	note D_, 4
	octave 2
	;note F_, 0 | WARNING: Rounded down to 0
	;note A#, 0 | WARNING: Rounded down to 0
	octave 3
	note D_, 4
	octave 2
	;note E_, 0 | WARNING: Rounded down to 0
	octave 3
	note E_, 4
;Bar 196
	octave 2
	;note F_, 0 | WARNING: Rounded down to 0
	octave 3
	note F_, 4
	octave 2
	;note F_, 0 | WARNING: Rounded down to 0
	;note A#, 0 | WARNING: Rounded down to 0
	octave 3
	note D_, 4
	octave 2
	;note F_, 0 | WARNING: Rounded down to 0
	;note A#, 0 | WARNING: Rounded down to 0
	octave 3
	note D_, 4
	octave 2
	;note F_, 0 | WARNING: Rounded down to 0
	;note A#, 0 | WARNING: Rounded down to 0
	octave 3
	note D_, 4
;Bar 197
	octave 1
	;note F_, 0 | WARNING: Rounded down to 0
	octave 2
	note F_, 4
	;note F_, 0 | WARNING: Rounded down to 0
	;note G#, 0 | WARNING: Rounded down to 0
	octave 3
	note C_, 4
	octave 2
	;note F_, 0 | WARNING: Rounded down to 0
	;note G#, 0 | WARNING: Rounded down to 0
	octave 3
	note C_, 4
	octave 1
	;note G#, 0 | WARNING: Rounded down to 0
	octave 2
	note G#, 4
;Bar 198
	;note C_, 0 | WARNING: Rounded down to 0
	octave 3
	note C_, 4
	octave 2
	;note F_, 0 | WARNING: Rounded down to 0
	;note G#, 0 | WARNING: Rounded down to 0
	octave 3
	note C_, 4
	octave 2
	;note F_, 0 | WARNING: Rounded down to 0
	;note G#, 0 | WARNING: Rounded down to 0
	octave 3
	note C_, 4
	octave 2
	;note F_, 0 | WARNING: Rounded down to 0
	;note G#, 0 | WARNING: Rounded down to 0
	octave 3
	note C_, 4
;Bar 199
	octave 1
	;note A#, 0 | WARNING: Rounded down to 0
	octave 2
	note A#, 4
	;note F_, 0 | WARNING: Rounded down to 0
	;note A#, 0 | WARNING: Rounded down to 0
	octave 3
	note D_, 4
	octave 2
	;note F_, 0 | WARNING: Rounded down to 0
	;note A#, 0 | WARNING: Rounded down to 0
	octave 3
	note D_, 4
	octave 2
	;note F_, 0 | WARNING: Rounded down to 0
	;note A#, 0 | WARNING: Rounded down to 0
	octave 3
	note D_, 4
;Bar 200
	octave 1
	;note A#, 0 | WARNING: Rounded down to 0
	octave 2
	;note A#, 0 | WARNING: Rounded down to 0
	octave 3
	note A#, 3
	octave 2
	;note C_, 0 | WARNING: Rounded down to 0
	octave 3
	;note C_, 0 | WARNING: Rounded down to 0
	octave 4
	note C_, 2
	octave 3
	;note D_, 0 | WARNING: Rounded down to 0
	octave 2
	;note D_, 0 | WARNING: Rounded down to 0
	octave 4
	note D_, 3
	octave 2
	;note D#, 0 | WARNING: Rounded down to 0
	octave 3
	;note D#, 0 | WARNING: Rounded down to 0
	octave 4
	note D#, 3
	octave 2
	;note F_, 0 | WARNING: Rounded down to 0
	octave 3
	;note F_, 0 | WARNING: Rounded down to 0
	octave 4
	note F_, 2
	octave 2
	;note G_, 0 | WARNING: Rounded down to 0
	octave 3
	;note G_, 0 | WARNING: Rounded down to 0
	octave 4
	note G_, 3
;Bar 201
	octave 1
	;note F_, 0 | WARNING: Rounded down to 0
	octave 2
	note F_, 4
	;note F_, 0 | WARNING: Rounded down to 0
	;note G#, 0 | WARNING: Rounded down to 0
	octave 3
	note C_, 4
	octave 2
	;note F_, 0 | WARNING: Rounded down to 0
	;note G#, 0 | WARNING: Rounded down to 0
	octave 3
	note C_, 4
	octave 1
	;note G#, 0 | WARNING: Rounded down to 0
	octave 2
	note G#, 4
;Bar 202
	;note C_, 0 | WARNING: Rounded down to 0
	octave 3
	note C_, 4
	octave 2
	;note F_, 0 | WARNING: Rounded down to 0
	;note G#, 0 | WARNING: Rounded down to 0
	octave 3
	note C_, 4
	octave 2
	;note F_, 0 | WARNING: Rounded down to 0
	;note G#, 0 | WARNING: Rounded down to 0
	octave 3
	note C_, 4
	octave 2
	;note F_, 0 | WARNING: Rounded down to 0
	;note G#, 0 | WARNING: Rounded down to 0
	octave 3
	note C_, 4
;Bar 203
	octave 1
	;note A#, 0 | WARNING: Rounded down to 0
	octave 2
	note A#, 4
	;note F_, 0 | WARNING: Rounded down to 0
	;note A#, 0 | WARNING: Rounded down to 0
	octave 3
	note D_, 4
	octave 2
	;note F_, 0 | WARNING: Rounded down to 0
	;note A#, 0 | WARNING: Rounded down to 0
	octave 3
	note D_, 4
	octave 2
	;note E_, 0 | WARNING: Rounded down to 0
	octave 3
	note E_, 4
;Bar 204
	octave 2
	;note F_, 0 | WARNING: Rounded down to 0
	octave 3
	note F_, 4
	octave 2
	;note F_, 0 | WARNING: Rounded down to 0
	;note A#, 0 | WARNING: Rounded down to 0
	octave 3
	note D_, 4
	octave 2
	;note F_, 0 | WARNING: Rounded down to 0
	;note A#, 0 | WARNING: Rounded down to 0
	octave 3
	note D_, 4
	octave 2
	;note F_, 0 | WARNING: Rounded down to 0
	;note A#, 0 | WARNING: Rounded down to 0
	octave 3
	note D_, 4
;Bar 205
	octave 1
	;note F_, 0 | WARNING: Rounded down to 0
	octave 2
	note F_, 4
	;note F_, 0 | WARNING: Rounded down to 0
	;note G#, 0 | WARNING: Rounded down to 0
	octave 3
	note C_, 4
	octave 2
	;note F_, 0 | WARNING: Rounded down to 0
	;note G#, 0 | WARNING: Rounded down to 0
	octave 3
	note C_, 4
	octave 1
	;note G#, 0 | WARNING: Rounded down to 0
	octave 2
	note G#, 4
;Bar 206
	;note C_, 0 | WARNING: Rounded down to 0
	octave 3
	note C_, 4
	octave 2
	;note F_, 0 | WARNING: Rounded down to 0
	;note G#, 0 | WARNING: Rounded down to 0
	octave 3
	note C_, 4
	octave 2
	;note F_, 0 | WARNING: Rounded down to 0
	;note G#, 0 | WARNING: Rounded down to 0
	octave 3
	note C_, 4
	octave 2
	;note F_, 0 | WARNING: Rounded down to 0
	;note G#, 0 | WARNING: Rounded down to 0
	octave 3
	note C_, 4
;Bar 207
	octave 1
	;note A#, 0 | WARNING: Rounded down to 0
	octave 2
	note A#, 4
	;note F_, 0 | WARNING: Rounded down to 0
	;note A#, 0 | WARNING: Rounded down to 0
	octave 3
	note D_, 4
	octave 2
	;note F_, 0 | WARNING: Rounded down to 0
	;note A#, 0 | WARNING: Rounded down to 0
	octave 3
	note D_, 4
	octave 2
	;note F_, 0 | WARNING: Rounded down to 0
	;note A#, 0 | WARNING: Rounded down to 0
	octave 3
	note D_, 4
;Bar 208
	octave 2
	;note F_, 0 | WARNING: Rounded down to 0
	;note A#, 0 | WARNING: Rounded down to 0
	octave 3
	;note D_, 0 | WARNING: Rounded down to 0
	rest 4
	octave 2
	;note F_, 0 | WARNING: Rounded down to 0
	;note A#, 0 | WARNING: Rounded down to 0
	octave 3
	note D_, 2
	rest 2
	octave 2
	;note F_, 0 | WARNING: Rounded down to 0
	;note A#, 0 | WARNING: Rounded down to 0
	octave 3
	note D_, 2
	rest 2
	octave 2
	;note F_, 0 | WARNING: Rounded down to 0
	;note A#, 0 | WARNING: Rounded down to 0
	octave 3
	note D_, 2
	rest 2
;Bar 209
	octave 1
	;note F_, 0 | WARNING: Rounded down to 0
	octave 2
	note F_, 4
	;note F_, 0 | WARNING: Rounded down to 0
	;note G#, 0 | WARNING: Rounded down to 0
	octave 3
	note C_, 4
	octave 2
	;note F_, 0 | WARNING: Rounded down to 0
	;note G#, 0 | WARNING: Rounded down to 0
	octave 3
	note C_, 4
	octave 1
	;note G#, 0 | WARNING: Rounded down to 0
	octave 2
	note G#, 4
;Bar 210
	;note C_, 0 | WARNING: Rounded down to 0
	octave 3
	note C_, 4
	octave 2
	;note F_, 0 | WARNING: Rounded down to 0
	;note G#, 0 | WARNING: Rounded down to 0
	octave 3
	note C_, 4
	octave 2
	;note F_, 0 | WARNING: Rounded down to 0
	;note G#, 0 | WARNING: Rounded down to 0
	octave 3
	note C_, 4
	octave 2
	;note F_, 0 | WARNING: Rounded down to 0
	;note G#, 0 | WARNING: Rounded down to 0
	octave 3
	note C_, 4
;Bar 211
	octave 1
	;note A#, 0 | WARNING: Rounded down to 0
	octave 2
	note A#, 4
	;note F_, 0 | WARNING: Rounded down to 0
	;note A#, 0 | WARNING: Rounded down to 0
	octave 3
	note D_, 4
	octave 2
	;note F_, 0 | WARNING: Rounded down to 0
	;note A#, 0 | WARNING: Rounded down to 0
	octave 3
	note D_, 4
	octave 2
	;note E_, 0 | WARNING: Rounded down to 0
	octave 3
	note E_, 4
;Bar 212
	octave 2
	;note F_, 0 | WARNING: Rounded down to 0
	octave 3
	note F_, 4
	octave 2
	;note F_, 0 | WARNING: Rounded down to 0
	;note A#, 0 | WARNING: Rounded down to 0
	octave 3
	note D_, 4
	octave 2
	;note F_, 0 | WARNING: Rounded down to 0
	;note A#, 0 | WARNING: Rounded down to 0
	octave 3
	note D_, 4
	octave 2
	;note F_, 0 | WARNING: Rounded down to 0
	;note A#, 0 | WARNING: Rounded down to 0
	octave 3
	note D_, 4
;Bar 213
	octave 1
	;note F_, 0 | WARNING: Rounded down to 0
	octave 2
	note F_, 4
	;note F_, 0 | WARNING: Rounded down to 0
	;note G#, 0 | WARNING: Rounded down to 0
	octave 3
	note C_, 4
	octave 2
	;note F_, 0 | WARNING: Rounded down to 0
	;note G#, 0 | WARNING: Rounded down to 0
	octave 3
	note C_, 4
	octave 1
	;note G#, 0 | WARNING: Rounded down to 0
	octave 2
	note G#, 4
;Bar 214
	;note C_, 0 | WARNING: Rounded down to 0
	octave 3
	note C_, 4
	octave 2
	;note F_, 0 | WARNING: Rounded down to 0
	;note G#, 0 | WARNING: Rounded down to 0
	octave 3
	note C_, 4
	octave 2
	;note F_, 0 | WARNING: Rounded down to 0
	;note G#, 0 | WARNING: Rounded down to 0
	octave 3
	note C_, 4
	octave 2
	;note F_, 0 | WARNING: Rounded down to 0
	;note G#, 0 | WARNING: Rounded down to 0
	octave 3
	note C_, 4
;Bar 215
	octave 1
	;note A#, 0 | WARNING: Rounded down to 0
	octave 2
	note A#, 4
	;note F_, 0 | WARNING: Rounded down to 0
	;note A#, 0 | WARNING: Rounded down to 0
	octave 3
	note D_, 4
	octave 2
	;note F_, 0 | WARNING: Rounded down to 0
	;note A#, 0 | WARNING: Rounded down to 0
	octave 3
	note D_, 4
	octave 2
	;note E_, 0 | WARNING: Rounded down to 0
	octave 3
	note E_, 4
;Bar 216
	octave 2
	;note F_, 0 | WARNING: Rounded down to 0
	octave 3
	note F_, 4
	octave 2
	;note F_, 0 | WARNING: Rounded down to 0
	;note A#, 0 | WARNING: Rounded down to 0
	octave 3
	note D_, 4
	octave 2
	;note F_, 0 | WARNING: Rounded down to 0
	;note A#, 0 | WARNING: Rounded down to 0
	octave 3
	note D_, 4
	octave 2
	;note F_, 0 | WARNING: Rounded down to 0
	;note A#, 0 | WARNING: Rounded down to 0
	octave 3
	note D_, 4
;Bar 217
	octave 1
	;note F_, 0 | WARNING: Rounded down to 0
	octave 2
	note F_, 4
	;note F_, 0 | WARNING: Rounded down to 0
	;note G#, 0 | WARNING: Rounded down to 0
	octave 3
	note C_, 4
	octave 2
	;note F_, 0 | WARNING: Rounded down to 0
	;note G#, 0 | WARNING: Rounded down to 0
	octave 3
	note C_, 4
	octave 1
	;note G#, 0 | WARNING: Rounded down to 0
	octave 2
	note G#, 4
;Bar 218
	;note C_, 0 | WARNING: Rounded down to 0
	octave 3
	note C_, 4
	octave 2
	;note F_, 0 | WARNING: Rounded down to 0
	;note G#, 0 | WARNING: Rounded down to 0
	octave 3
	note C_, 4
	octave 2
	;note F_, 0 | WARNING: Rounded down to 0
	;note G#, 0 | WARNING: Rounded down to 0
	octave 3
	note C_, 4
	octave 2
	;note F_, 0 | WARNING: Rounded down to 0
	;note G#, 0 | WARNING: Rounded down to 0
	octave 3
	note C_, 4
;Bar 219
	octave 1
	;note A#, 0 | WARNING: Rounded down to 0
	octave 2
	note A#, 4
	;note F_, 0 | WARNING: Rounded down to 0
	;note A#, 0 | WARNING: Rounded down to 0
	octave 3
	note D_, 4
	octave 2
	;note F_, 0 | WARNING: Rounded down to 0
	;note A#, 0 | WARNING: Rounded down to 0
	octave 3
	note D_, 4
	octave 2
	;note E_, 0 | WARNING: Rounded down to 0
	octave 3
	note E_, 4
;Bar 220
	octave 2
	;note F_, 0 | WARNING: Rounded down to 0
	octave 3
	note F_, 4
	octave 2
	;note F_, 0 | WARNING: Rounded down to 0
	;note A#, 0 | WARNING: Rounded down to 0
	octave 3
	note D_, 4
	octave 2
	;note F_, 0 | WARNING: Rounded down to 0
	;note A#, 0 | WARNING: Rounded down to 0
	octave 3
	note D_, 4
	octave 2
	;note F_, 0 | WARNING: Rounded down to 0
	;note A#, 0 | WARNING: Rounded down to 0
	octave 3
	note D_, 4
;Bar 221
	octave 1
	;note F_, 0 | WARNING: Rounded down to 0
	octave 2
	note F_, 4
	;note F_, 0 | WARNING: Rounded down to 0
	;note G#, 0 | WARNING: Rounded down to 0
	octave 3
	note C_, 4
	octave 2
	;note F_, 0 | WARNING: Rounded down to 0
	;note G#, 0 | WARNING: Rounded down to 0
	octave 3
	note C_, 4
	octave 1
	;note G#, 0 | WARNING: Rounded down to 0
	octave 2
	note G#, 4
;Bar 222
	;note C_, 0 | WARNING: Rounded down to 0
	octave 3
	note C_, 4
	octave 2
	;note F_, 0 | WARNING: Rounded down to 0
	;note G#, 0 | WARNING: Rounded down to 0
	octave 3
	note C_, 4
	octave 2
	;note F_, 0 | WARNING: Rounded down to 0
	;note G#, 0 | WARNING: Rounded down to 0
	octave 3
	note C_, 4
	octave 2
	;note F_, 0 | WARNING: Rounded down to 0
	;note G#, 0 | WARNING: Rounded down to 0
	octave 3
	note C_, 4
;Bar 223
	octave 1
	;note A#, 0 | WARNING: Rounded down to 0
	octave 2
	note A#, 4
	;note F_, 0 | WARNING: Rounded down to 0
	;note A#, 0 | WARNING: Rounded down to 0
	octave 3
	note D_, 4
	octave 2
	;note F_, 0 | WARNING: Rounded down to 0
	;note A#, 0 | WARNING: Rounded down to 0
	octave 3
	note D_, 4
	octave 2
	;note E_, 0 | WARNING: Rounded down to 0
	octave 3
	note E_, 4
;Bar 224
	octave 1
	;note A#, 0 | WARNING: Rounded down to 0
	octave 2
	note A#, 3
	;note C_, 0 | WARNING: Rounded down to 0
	octave 3
	note C_, 2
	;note D_, 0 | WARNING: Rounded down to 0
	octave 2
	note D_, 3
	octave 3
	;note D#, 0 | WARNING: Rounded down to 0
	octave 2
	note D#, 3
	;note F_, 0 | WARNING: Rounded down to 0
	octave 3
	note F_, 2
	;note G_, 0 | WARNING: Rounded down to 0
	octave 2
	note G_, 3
;Bar 225
	octave 1
	;note F_, 0 | WARNING: Rounded down to 0
	octave 2
	note F_, 4
	;note F_, 0 | WARNING: Rounded down to 0
	;note G#, 0 | WARNING: Rounded down to 0
	octave 3
	note C_, 4
	octave 2
	;note F_, 0 | WARNING: Rounded down to 0
	;note G#, 0 | WARNING: Rounded down to 0
	octave 3
	note C_, 4
	octave 1
	;note G#, 0 | WARNING: Rounded down to 0
	octave 2
	note G#, 4
;Bar 226
	;note C_, 0 | WARNING: Rounded down to 0
	octave 3
	note C_, 4
	octave 2
	;note F_, 0 | WARNING: Rounded down to 0
	;note G#, 0 | WARNING: Rounded down to 0
	octave 3
	note C_, 4
	octave 2
	;note F_, 0 | WARNING: Rounded down to 0
	;note G#, 0 | WARNING: Rounded down to 0
	octave 3
	note C_, 4
	octave 2
	;note F_, 0 | WARNING: Rounded down to 0
	;note G#, 0 | WARNING: Rounded down to 0
	octave 3
	note C_, 4
;Bar 227
	octave 1
	;note A#, 0 | WARNING: Rounded down to 0
	octave 2
	note A#, 4
	;note F_, 0 | WARNING: Rounded down to 0
	;note A#, 0 | WARNING: Rounded down to 0
	octave 3
	note D_, 4
	octave 2
	;note F_, 0 | WARNING: Rounded down to 0
	;note A#, 0 | WARNING: Rounded down to 0
	octave 3
	note D_, 4
	octave 2
	;note E_, 0 | WARNING: Rounded down to 0
	octave 3
	note E_, 4
;Bar 228
	octave 2
	;note F_, 0 | WARNING: Rounded down to 0
	octave 3
	note F_, 4
	octave 2
	;note F_, 0 | WARNING: Rounded down to 0
	;note A#, 0 | WARNING: Rounded down to 0
	octave 3
	note D_, 4
	octave 2
	;note F_, 0 | WARNING: Rounded down to 0
	;note A#, 0 | WARNING: Rounded down to 0
	octave 3
	note D_, 4
	octave 2
	;note F_, 0 | WARNING: Rounded down to 0
	;note A#, 0 | WARNING: Rounded down to 0
	octave 3
	note D_, 4
;Bar 229
	octave 1
	;note F_, 0 | WARNING: Rounded down to 0
	octave 2
	note F_, 4
	;note F_, 0 | WARNING: Rounded down to 0
	;note G#, 0 | WARNING: Rounded down to 0
	octave 3
	note C_, 4
	octave 2
	;note F_, 0 | WARNING: Rounded down to 0
	;note G#, 0 | WARNING: Rounded down to 0
	octave 3
	note C_, 4
	octave 1
	;note G#, 0 | WARNING: Rounded down to 0
	octave 2
	note G#, 4
;Bar 230
	;note C_, 0 | WARNING: Rounded down to 0
	octave 3
	note C_, 4
	octave 2
	;note F_, 0 | WARNING: Rounded down to 0
	;note G#, 0 | WARNING: Rounded down to 0
	octave 3
	note C_, 4
	octave 2
	;note F_, 0 | WARNING: Rounded down to 0
	;note G#, 0 | WARNING: Rounded down to 0
	octave 3
	note C_, 4
	octave 2
	;note F_, 0 | WARNING: Rounded down to 0
	;note G#, 0 | WARNING: Rounded down to 0
	octave 3
	note C_, 4
;Bar 231
	octave 1
	;note A#, 0 | WARNING: Rounded down to 0
	octave 2
	note A#, 4
	;note F_, 0 | WARNING: Rounded down to 0
	;note A#, 0 | WARNING: Rounded down to 0
	octave 3
	note D_, 4
	octave 2
	;note F_, 0 | WARNING: Rounded down to 0
	;note A#, 0 | WARNING: Rounded down to 0
	octave 3
	note D_, 4
	octave 2
	;note E_, 0 | WARNING: Rounded down to 0
	octave 3
	note E_, 4
;Bar 232
	octave 2
	;note F_, 0 | WARNING: Rounded down to 0
	octave 3
	note F_, 4
	octave 2
	;note F_, 0 | WARNING: Rounded down to 0
	;note A#, 0 | WARNING: Rounded down to 0
	octave 3
	note D_, 4
	octave 2
	;note F_, 0 | WARNING: Rounded down to 0
	;note A#, 0 | WARNING: Rounded down to 0
	octave 3
	note D_, 4
	octave 2
	;note F_, 0 | WARNING: Rounded down to 0
	;note A#, 0 | WARNING: Rounded down to 0
	octave 3
	note D_, 4
;Bar 233
	octave 1
	;note F_, 0 | WARNING: Rounded down to 0
	octave 2
	note F_, 4
	;note F_, 0 | WARNING: Rounded down to 0
	;note G#, 0 | WARNING: Rounded down to 0
	octave 3
	note C_, 4
	octave 2
	;note F_, 0 | WARNING: Rounded down to 0
	;note G#, 0 | WARNING: Rounded down to 0
	octave 3
	note C_, 4
	octave 1
	;note G#, 0 | WARNING: Rounded down to 0
	octave 2
	note G#, 4
;Bar 234
	;note C_, 0 | WARNING: Rounded down to 0
	octave 3
	note C_, 4
	octave 2
	;note F_, 0 | WARNING: Rounded down to 0
	;note G#, 0 | WARNING: Rounded down to 0
	octave 3
	note C_, 4
	octave 2
	;note F_, 0 | WARNING: Rounded down to 0
	;note G#, 0 | WARNING: Rounded down to 0
	octave 3
	note C_, 4
	octave 2
	;note F_, 0 | WARNING: Rounded down to 0
	;note G#, 0 | WARNING: Rounded down to 0
	octave 3
	note C_, 4
;Bar 235
	octave 1
	;note A#, 0 | WARNING: Rounded down to 0
	octave 2
	note A#, 4
	;note F_, 0 | WARNING: Rounded down to 0
	;note A#, 0 | WARNING: Rounded down to 0
	octave 3
	note D_, 4
	octave 2
	;note F_, 0 | WARNING: Rounded down to 0
	;note A#, 0 | WARNING: Rounded down to 0
	octave 3
	note D_, 4
	octave 2
	;note E_, 0 | WARNING: Rounded down to 0
	octave 3
	note E_, 4
;Bar 236
	octave 2
	;note F_, 0 | WARNING: Rounded down to 0
	octave 3
	note F_, 4
	octave 2
	;note F_, 0 | WARNING: Rounded down to 0
	;note A#, 0 | WARNING: Rounded down to 0
	octave 3
	note D_, 4
	octave 2
	;note F_, 0 | WARNING: Rounded down to 0
	;note A#, 0 | WARNING: Rounded down to 0
	octave 3
	note D_, 4
	octave 2
	;note F_, 0 | WARNING: Rounded down to 0
	;note A#, 0 | WARNING: Rounded down to 0
	octave 3
	note D_, 4
;Bar 237
	octave 1
	;note F_, 0 | WARNING: Rounded down to 0
	octave 2
	note F_, 4
	;note F_, 0 | WARNING: Rounded down to 0
	;note G#, 0 | WARNING: Rounded down to 0
	octave 3
	note C_, 4
	octave 2
	;note F_, 0 | WARNING: Rounded down to 0
	;note G#, 0 | WARNING: Rounded down to 0
	octave 3
	note C_, 4
	octave 1
	;note G#, 0 | WARNING: Rounded down to 0
	octave 2
	note G#, 4
;Bar 238
	;note C_, 0 | WARNING: Rounded down to 0
	octave 3
	note C_, 4
	octave 2
	;note F_, 0 | WARNING: Rounded down to 0
	;note G#, 0 | WARNING: Rounded down to 0
	octave 3
	note C_, 4
	octave 2
	;note F_, 0 | WARNING: Rounded down to 0
	;note G#, 0 | WARNING: Rounded down to 0
	octave 3
	note C_, 4
	octave 2
	;note F_, 0 | WARNING: Rounded down to 0
	;note G#, 0 | WARNING: Rounded down to 0
	octave 3
	note C_, 4
;Bar 239
	octave 1
	;note A#, 0 | WARNING: Rounded down to 0
	octave 2
	note A#, 4
	;note F_, 0 | WARNING: Rounded down to 0
	;note A#, 0 | WARNING: Rounded down to 0
	octave 3
	note D_, 4
	octave 2
	;note F_, 0 | WARNING: Rounded down to 0
	;note A#, 0 | WARNING: Rounded down to 0
	octave 3
	note D_, 4
	octave 2
	;note F_, 0 | WARNING: Rounded down to 0
	;note A#, 0 | WARNING: Rounded down to 0
	octave 3
	note D_, 4
;Bar 240
	octave 4
	;note D_, 0 | WARNING: Rounded down to 0
	;note F_, 0 | WARNING: Rounded down to 0
	;note A#, 0 | WARNING: Rounded down to 0

	volume_envelope 11, 7
	note A#, 16
	sound_ret

; ============================================================================================================

Music_KommSusserTod_Ch2:
	duty_cycle 1
	note_type 12, 10, 7
;Bar 1

	volume_envelope 9, 7
	note A#, 8
	octave 1
	note A#, 8
;Bar 2
	note F_, 12
	note F_, 4
;Bar 3
	note G_, 10
	note D_, 2
	note F_, 4
;Bar 4
	note F_, 12
	note F_, 4
;Bar 5
	note D#, 12
	note D#, 4
;Bar 6
	note D_, 12
	note D_, 4
;Bar 7
	note C_, 10
	note D_, 2
	note D#, 4
;Bar 8
	note F_, 12
	note F_, 4
;Bar 9

	note A#, 8
	octave 1
	note A#, 8
;Bar 10
	note F_, 12
	note F_, 4
;Bar 11
	note G_, 10
	note D_, 2
	note D#, 4
;Bar 12
	note F_, 12
	note F_, 4
;Bar 13
	note D#, 12
	note D#, 4
;Bar 14
	note D_, 12
	note D_, 4
;Bar 15
	note C_, 8
	note F_, 8
;Bar 16

	note A#, 8
	octave 1
	note A#, 8
;Bar 17

	note A#, 8
	octave 1
	note A#, 8
;Bar 18
	note F_, 12
	note F_, 4
;Bar 19
	note G_, 10
	note D_, 2
	note F_, 4
;Bar 20
	note F_, 12
	note F_, 4
;Bar 21
	note D#, 12
	note D#, 4
;Bar 22
	note D_, 12
	note D_, 4
;Bar 23
	note C_, 10
	note D_, 2
	note D#, 4
;Bar 24
	note F_, 12
	note F_, 4
;Bar 25

	note A#, 8
	octave 1
	note A#, 8
;Bar 26
	note F_, 12
	note F_, 4
;Bar 27
	note G_, 10
	note D_, 2
	note D#, 4
;Bar 28
	note F_, 12
	note F_, 4
;Bar 29
	note D#, 12
	note D#, 4
;Bar 30
	note D_, 12
	note D_, 4
;Bar 31
	note C_, 8
	note F_, 8
;Bar 32

	note A#, 8
	octave 1
	note A#, 8
;Bar 33

	note A#, 8
	octave 1
	note A#, 8
;Bar 34
	note F_, 12
	note F_, 4
;Bar 35
	note G_, 10
	note D_, 2
	note D#, 4
;Bar 36
	note F_, 12
	note F_, 4
;Bar 37
	note D#, 12
	note D#, 4
;Bar 38
	note D_, 12
	note D_, 4
;Bar 39
	note C_, 10
	note D_, 2
	note D#, 4
;Bar 40
	note F_, 12
	note F_, 4
;Bar 41

	note A#, 8
	octave 1
	note A#, 8
;Bar 42
	note F_, 12
	note F_, 4
;Bar 43
	note G_, 10
	note D_, 2
	note D#, 4
;Bar 44
	note F_, 12
	note F_, 4
;Bar 45
	note D#, 12
	note D#, 4
;Bar 46
	note D_, 12
	note D_, 4
;Bar 47
	note C_, 8
	note F_, 8
;Bar 48

	note A#, 16
;Bar 49
	note A#, 12
	octave 1
	note A#, 4
;Bar 50
	note G_, 12
	note G_, 4
;Bar 51
	note C_, 12
	note C_, 4
;Bar 52
	note D#, 12
	note D#, 4
;Bar 53
	note D_, 12
	note D_, 4
;Bar 54
	note C#, 12
	note C#, 4
;Bar 55
	note C_, 10
	note D_, 2
	note D#, 4
;Bar 56
	note F_, 12
	note F_, 4
;Bar 57

	note A#, 12
	octave 1
	note A#, 4
;Bar 58
	note G_, 12
	note G_, 4
;Bar 59
	note C_, 12
	note C_, 4
;Bar 60
	note D#, 12
	note D#, 4
;Bar 61
	note D_, 12
	note D_, 4
;Bar 62
	note E_, 12
	note D#, 4
;Bar 63
	note F_, 16
;Bar 64

	note F_, 16
	note F_, 6
;Bar 65
	note F_, 2
	octave 1
	note F_, 4
	note D#, 4
;Bar 66
	note D_, 8
	note C_, 8
;Bar 67

	note A#, 8
	octave 1
	note A#, 8
;Bar 68
	note F_, 12
	note F_, 4
;Bar 69
	note G_, 10
	note D_, 2
	note D#, 4
;Bar 70
	note F_, 12
	note F_, 4
;Bar 71
	note D#, 12
	note D#, 4
;Bar 72
	note D_, 12
	note D_, 4
;Bar 73
	note C_, 10
	note D_, 2
	note D#, 4
;Bar 74
	rest 16
;Bar 75

	note A#, 8
	octave 1
	note A#, 8
;Bar 76
	note F_, 12
	note F_, 4
;Bar 77
	note G_, 10
	note D_, 2
	note D#, 4
;Bar 78
	note F_, 12
	note F_, 4
;Bar 79
	note D#, 12
	note D#, 4
;Bar 80
	note D_, 12
	note D_, 4
;Bar 81
	note C_, 8
	note F_, 8
;Bar 82

	;note A#, 0 | WARNING: Rounded down to 0
	octave 1
	note A#, 16
;Bar 83
	rest 16
	rest 16
	rest 16
	rest 16
	rest 16
	rest 16
	rest 16
	rest 16
;Bar 91
	octave 2
	;note F_, 0 | WARNING: Rounded down to 0
	;note G#, 0 | WARNING: Rounded down to 0
	octave 3
	note C_, 4
	octave 2
	;note F_, 0 | WARNING: Rounded down to 0
	;note G#, 0 | WARNING: Rounded down to 0
	octave 3
	note C_, 4
	octave 2
	;note F_, 0 | WARNING: Rounded down to 0
	;note G#, 0 | WARNING: Rounded down to 0
	octave 3
	note C_, 4
	octave 2
	;note F_, 0 | WARNING: Rounded down to 0
	;note G#, 0 | WARNING: Rounded down to 0
	octave 3
	note C_, 4
;Bar 92
	octave 2
	;note F_, 0 | WARNING: Rounded down to 0
	;note G#, 0 | WARNING: Rounded down to 0
	octave 3
	note C_, 4
	octave 2
	;note F_, 0 | WARNING: Rounded down to 0
	;note G#, 0 | WARNING: Rounded down to 0
	octave 3
	note C_, 4
	octave 2
	;note F_, 0 | WARNING: Rounded down to 0
	;note G#, 0 | WARNING: Rounded down to 0
	octave 3
	note C_, 4
	octave 2
	;note F_, 0 | WARNING: Rounded down to 0
	;note G#, 0 | WARNING: Rounded down to 0
	octave 3
	note C_, 4
;Bar 93
	octave 2
	;note F_, 0 | WARNING: Rounded down to 0
	octave 3
	;note D_, 0 | WARNING: Rounded down to 0
	octave 2
	note A#, 4
	octave 3
	;note D_, 0 | WARNING: Rounded down to 0
	octave 2
	;note A#, 0 | WARNING: Rounded down to 0
	note F_, 4
	octave 3
	;note D_, 0 | WARNING: Rounded down to 0
	octave 2
	;note A#, 0 | WARNING: Rounded down to 0
	note F_, 4
	;note E_, 0 | WARNING: Rounded down to 0
	octave 3
	;note D_, 0 | WARNING: Rounded down to 0
	octave 2
	note A#, 4
;Bar 94
	;note F_, 0 | WARNING: Rounded down to 0
	octave 3
	;note D_, 0 | WARNING: Rounded down to 0
	octave 2
	note A#, 4
	;note F_, 0 | WARNING: Rounded down to 0
	;note A#, 0 | WARNING: Rounded down to 0
	octave 3
	note D_, 4
	octave 2
	;note F_, 0 | WARNING: Rounded down to 0
	octave 3
	;note D_, 0 | WARNING: Rounded down to 0
	octave 2
	note A#, 4
	;note F_, 0 | WARNING: Rounded down to 0
	octave 3
	;note D_, 0 | WARNING: Rounded down to 0
	octave 2
	note A#, 4
;Bar 95
	;note F_, 0 | WARNING: Rounded down to 0
	;note G#, 0 | WARNING: Rounded down to 0
	octave 3
	note C_, 4
	octave 2
	;note F_, 0 | WARNING: Rounded down to 0
	;note G#, 0 | WARNING: Rounded down to 0
	octave 3
	note C_, 4
	;note C_, 0 | WARNING: Rounded down to 0
	octave 2
	;note G#, 0 | WARNING: Rounded down to 0
	note F_, 4
	octave 3
	;note C_, 0 | WARNING: Rounded down to 0
	octave 2
	;note G#, 0 | WARNING: Rounded down to 0
	note F_, 4
;Bar 96
	;note F_, 0 | WARNING: Rounded down to 0
	;note G#, 0 | WARNING: Rounded down to 0
	octave 3
	note C_, 4
	octave 2
	;note F_, 0 | WARNING: Rounded down to 0
	;note G#, 0 | WARNING: Rounded down to 0
	octave 3
	note C_, 4
	;note C_, 0 | WARNING: Rounded down to 0
	octave 2
	;note G#, 0 | WARNING: Rounded down to 0
	note F_, 4
	octave 3
	;note C_, 0 | WARNING: Rounded down to 0
	octave 2
	;note G#, 0 | WARNING: Rounded down to 0
	note F_, 4
;Bar 97
	;note F_, 0 | WARNING: Rounded down to 0
	octave 3
	;note D_, 0 | WARNING: Rounded down to 0
	octave 2
	note A#, 4
	octave 3
	;note D_, 0 | WARNING: Rounded down to 0
	octave 2
	;note A#, 0 | WARNING: Rounded down to 0
	note F_, 4
	;note F_, 0 | WARNING: Rounded down to 0
	;note A#, 0 | WARNING: Rounded down to 0
	octave 3
	note D_, 4
	octave 2
	;note E_, 0 | WARNING: Rounded down to 0
	octave 3
	;note D_, 0 | WARNING: Rounded down to 0
	octave 2
	note A#, 4
;Bar 98
	octave 3
	;note D_, 0 | WARNING: Rounded down to 0
	octave 2
	;note A#, 0 | WARNING: Rounded down to 0
	note F_, 4
	;note F_, 0 | WARNING: Rounded down to 0
	octave 3
	;note D_, 0 | WARNING: Rounded down to 0
	octave 2
	note A#, 4
	;note F_, 0 | WARNING: Rounded down to 0
	octave 3
	;note D_, 0 | WARNING: Rounded down to 0
	octave 2
	note A#, 4
	;note F_, 0 | WARNING: Rounded down to 0
	octave 3
	;note D_, 0 | WARNING: Rounded down to 0
	octave 2
	note A#, 4
;Bar 99
	;note F_, 0 | WARNING: Rounded down to 0
	;note G#, 0 | WARNING: Rounded down to 0
	octave 3
	note C_, 4
	octave 2
	;note F_, 0 | WARNING: Rounded down to 0
	;note G#, 0 | WARNING: Rounded down to 0
	octave 3
	note C_, 4
	;note C_, 0 | WARNING: Rounded down to 0
	octave 2
	;note G#, 0 | WARNING: Rounded down to 0
	note F_, 4
	octave 3
	;note C_, 0 | WARNING: Rounded down to 0
	octave 2
	;note G#, 0 | WARNING: Rounded down to 0
	note F_, 4
;Bar 100
	;note F_, 0 | WARNING: Rounded down to 0
	;note G#, 0 | WARNING: Rounded down to 0
	octave 3
	note C_, 4
	octave 2
	;note F_, 0 | WARNING: Rounded down to 0
	;note G#, 0 | WARNING: Rounded down to 0
	octave 3
	note C_, 4
	;note C_, 0 | WARNING: Rounded down to 0
	octave 2
	;note G#, 0 | WARNING: Rounded down to 0
	note F_, 4
	octave 3
	;note C_, 0 | WARNING: Rounded down to 0
	octave 2
	;note G#, 0 | WARNING: Rounded down to 0
	note F_, 4
;Bar 101
	;note F_, 0 | WARNING: Rounded down to 0
	octave 3
	;note D_, 0 | WARNING: Rounded down to 0
	octave 2
	note A#, 4
	;note A#, 0 | WARNING: Rounded down to 0
	octave 3
	;note D_, 0 | WARNING: Rounded down to 0
	octave 2
	note F_, 4
	octave 3
	;note D_, 0 | WARNING: Rounded down to 0
	octave 2
	;note A#, 0 | WARNING: Rounded down to 0
	note F_, 4
	;note E_, 0 | WARNING: Rounded down to 0
	octave 3
	;note D_, 0 | WARNING: Rounded down to 0
	octave 2
	note A#, 4
;Bar 102
	octave 3
	;note D_, 0 | WARNING: Rounded down to 0
	octave 2
	;note A#, 0 | WARNING: Rounded down to 0
	note F_, 4
	;note F_, 0 | WARNING: Rounded down to 0
	octave 3
	;note D_, 0 | WARNING: Rounded down to 0
	octave 2
	note A#, 4
	;note F_, 0 | WARNING: Rounded down to 0
	;note A#, 0 | WARNING: Rounded down to 0
	octave 3
	note D_, 4
	octave 2
	;note F_, 0 | WARNING: Rounded down to 0
	octave 3
	;note D_, 0 | WARNING: Rounded down to 0
	octave 2
	note A#, 4
;Bar 103
	;note F_, 0 | WARNING: Rounded down to 0
	;note G#, 0 | WARNING: Rounded down to 0
	octave 3
	note C_, 4
	octave 2
	;note F_, 0 | WARNING: Rounded down to 0
	;note G#, 0 | WARNING: Rounded down to 0
	octave 3
	note C_, 4
	;note C_, 0 | WARNING: Rounded down to 0
	octave 2
	;note G#, 0 | WARNING: Rounded down to 0
	note F_, 4
	octave 3
	;note C_, 0 | WARNING: Rounded down to 0
	octave 2
	;note G#, 0 | WARNING: Rounded down to 0
	note F_, 4
;Bar 104
	;note F_, 0 | WARNING: Rounded down to 0
	;note G#, 0 | WARNING: Rounded down to 0
	octave 3
	note C_, 4
	octave 2
	;note F_, 0 | WARNING: Rounded down to 0
	;note G#, 0 | WARNING: Rounded down to 0
	octave 3
	note C_, 4
	;note C_, 0 | WARNING: Rounded down to 0
	octave 2
	;note G#, 0 | WARNING: Rounded down to 0
	note F_, 4
	octave 3
	;note C_, 0 | WARNING: Rounded down to 0
	octave 2
	;note G#, 0 | WARNING: Rounded down to 0
	note F_, 4
;Bar 105
	;note F_, 0 | WARNING: Rounded down to 0
	octave 3
	;note D_, 0 | WARNING: Rounded down to 0
	octave 2
	note A#, 4
	;note F_, 0 | WARNING: Rounded down to 0
	octave 3
	;note D_, 0 | WARNING: Rounded down to 0
	octave 2
	note A#, 4
	;note F_, 0 | WARNING: Rounded down to 0
	octave 3
	;note D_, 0 | WARNING: Rounded down to 0
	octave 2
	note A#, 4
	;note E_, 0 | WARNING: Rounded down to 0
	octave 3
	;note D_, 0 | WARNING: Rounded down to 0
	octave 2
	note A#, 4
;Bar 106
	;note F_, 0 | WARNING: Rounded down to 0
	;note A#, 0 | WARNING: Rounded down to 0
	octave 3
	note D_, 4
	octave 2
	;note F_, 0 | WARNING: Rounded down to 0
	octave 3
	;note D_, 0 | WARNING: Rounded down to 0
	octave 2
	note A#, 4
	;note F_, 0 | WARNING: Rounded down to 0
	octave 3
	;note D_, 0 | WARNING: Rounded down to 0
	octave 2
	note A#, 4
	;note F_, 0 | WARNING: Rounded down to 0
	octave 3
	;note D_, 0 | WARNING: Rounded down to 0
	octave 2
	note A#, 4
;Bar 107
	note C_, 12
	note C_, 4
;Bar 108
	octave 1
	note B_, 12
	note B_, 4
;Bar 109
	note A#, 12
	note A#, 4
;Bar 110
	note A_, 12
	note A_, 4
;Bar 111
	note F_, 12
	octave 2
	note C_, 4
;Bar 112
	note F_, 12
	rest 4
;Bar 113
	octave 1
	note F_, 12
	octave 2
	note C_, 4
;Bar 114
	note F_, 12
	rest 4
;Bar 115
	octave 1
	note F_, 8
	note F_, 8
;Bar 116
	note F_, 8
	note F_, 8
;Bar 117
	note F_, 4
	note F_, 4
	note F_, 4
	note F_, 4
;Bar 118
	note F_, 4
	note F_, 4
	note F_, 4
	note F_, 4
;Bar 119

	;note F_, 0 | WARNING: Rounded down to 0
	octave 1
	note F_, 16
	note F_, 6
;Bar 120

	;note F_, 0 | WARNING: Rounded down to 0
	octave 1
	note F_, 2

	note F_, 4
	octave 1
	note F_, 4
;Bar 121

	note A#, 8
	octave 1
	note A#, 8
;Bar 122
	note F_, 12
	note F_, 4
;Bar 123
	note G_, 10
	note D_, 2
	note D#, 4
;Bar 124
	note F_, 12
	note F_, 4
;Bar 125
	note D#, 12
	note D#, 4
;Bar 126
	note D_, 12
	note D_, 4
;Bar 127
	note C_, 10
	note D_, 2
	note D#, 4
;Bar 128
	note F_, 12
	note F_, 4
;Bar 129

	note A#, 12
	octave 1
	note A#, 4
;Bar 130
	note F_, 12
	note F_, 4
;Bar 131
	note G_, 10
	note D_, 2
	note D#, 4
;Bar 132
	note F_, 12
	note F_, 4
;Bar 133
	note D#, 12
	note D#, 4
;Bar 134
	note D_, 12
	note D_, 4
;Bar 135
	note C_, 12
	note C_, 4
;Bar 136

	note A#, 16
;Bar 137
	note F_, 4
	rest 8
	note G#, 4
;Bar 138
	octave 1
	note C_, 4
	rest 12
;Bar 139

	note A#, 4
	rest 8
	octave 1
	note E_, 4
;Bar 140
	note F_, 4
	rest 12
;Bar 141

	note F_, 4
	rest 8
	note G#, 4
;Bar 142
	octave 1
	note C_, 4
	rest 12
;Bar 143

	note A#, 4
	rest 8
	octave 1
	note E_, 4
;Bar 144
	note F_, 4
	sound_ret

; ============================================================================================================

Music_KommSusserTod_Ch3:
	note_type 12, 1, 0
;Bar 1
	volume_envelope 2, 0
	rest 16
	rest 16
	rest 16
	rest 16
	rest 16
	rest 16
	rest 16
	rest 16
	rest 16
	rest 16
	rest 16
	rest 16
	rest 16
	rest 16
	rest 16
	rest 16
	rest 16
	rest 16
	rest 16
	rest 16
	rest 16
	rest 16
	rest 16
	rest 16
	rest 16
	rest 16
	rest 16
	rest 16
	rest 16
	rest 16
	rest 16
	rest 12
;Bar 32
	octave 4
	note A#, 4
;Bar 33
	octave 5
	note D_, 14
	note D_, 2
;Bar 34
	note D_, 4
	note D#, 4
	note D_, 4
	note C_, 2
	octave 4
	note A#, 14
;Bar 35
	octave 5
	note A#, 4
;Bar 36
	note A_, 4
	note A#, 2
	note A_, 4
	note F_, 2
	note D_, 4
;Bar 37
	note G_, 12
	note G_, 4
;Bar 38
	note F_, 4
	note G_, 2
	note F_, 4
	octave 4
	note A#, 6
;Bar 39
	octave 5
	note D#, 4
	note D_, 2
	note D#, 4
	note F_, 6
;Bar 40
	note C_, 12
	note C_, 4
;Bar 41
	note D_, 14
	note D_, 2
;Bar 42
	note D_, 4
	note D#, 2
	note D_, 4
	note C_, 4
	octave 4
	note A#, 14
;Bar 43
	octave 5
	note A#, 4
;Bar 44
	note A_, 4
	note A#, 2
	note A_, 4
	note F_, 2
	note D_, 4
;Bar 45
	note G_, 12
	note G_, 4
;Bar 46
	note F_, 4
	note G_, 2
	note F_, 6
	octave 4
	note A#, 4
;Bar 47
	octave 5
	note D#, 4
	note D_, 4
	octave 4
	note A#, 2
	octave 5
	note C_, 4
	octave 4
	note A#, 10
;Bar 48
	rest 12
;Bar 49
	octave 5
	note D_, 12
;Bar 50
	note D#, 4
	note D_, 4
	note C_, 2
	note D_, 6
;Bar 51
	note D#, 8
	note A#, 4
	note A#, 2
	octave 6
	note C_, 6
;Bar 52
	octave 5
	note A#, 4
	note A_, 2
	note A#, 4
	note F_, 14
;Bar 53
	note F_, 4
;Bar 54
	note E_, 4
	note A#, 2
	note A#, 6
	note G_, 4
;Bar 55
	note F_, 8
	note D#, 8
;Bar 56
	note D_, 8
	note C_, 8
;Bar 57
	rest 4
	note D_, 4
	note D_, 2
	note D_, 4
	note D#, 6
;Bar 58
	note D_, 4
	note C_, 4
	note D_, 2
	note D#, 10
;Bar 59
	note A#, 4
	note A#, 2
	octave 6
	note C_, 6
;Bar 60
	octave 5
	note A#, 4
	note A_, 4
	note A#, 4
;Bar 61
	note A#, 10
	note F_, 2
	note A#, 2
	octave 6
	note C_, 2
;Bar 62
	note D#, 2
	note D_, 6
	note C_, 4
	octave 5
	note A#, 4
;Bar 63
	note A#, 8
	note A_, 8
;Bar 64
	note A#, 8
	octave 6
	note C_, 16
;Bar 65
	rest 16
	rest 4
;Bar 66
	octave 4
	note A#, 4
;Bar 67
	octave 5
	note D_, 3
	rest 9
	note D_, 4
;Bar 68
	note D_, 4
	note D#, 4
	note D_, 2
	note C_, 4
	octave 4
	note A#, 12
;Bar 69
	rest 4
	octave 5
	note A#, 2
;Bar 70
	note A_, 4
	note A#, 2
	note A_, 4
	note F_, 2
	note D_, 4
;Bar 71
	note G_, 12
	note G_, 4
;Bar 72
	note F_, 4
	note G_, 2
	note F_, 6
	octave 4
	note A#, 4
;Bar 73
	octave 5
	note D#, 4
	note D_, 4
	note D#, 2
	note F_, 6
;Bar 74
	note C_, 8
	rest 4
	octave 6
	;note C_, 0 | WARNING: Rounded down to 0
	octave 5
	note C_, 4
;Bar 75
	note D_, 14
	note D_, 2
;Bar 76
	note D_, 4
	note D#, 2
	note D_, 4
	note C_, 4
	octave 4
	note A#, 8
;Bar 77
	rest 6
	octave 5
	note A#, 4
;Bar 78
	note A_, 4
	note A#, 2
	note A_, 4
	note F_, 2
	note D_, 4
;Bar 79
	note G_, 12
	note G_, 4
;Bar 80
	note F_, 4
	note G_, 2
	note F_, 6
	octave 4
	note A#, 4
;Bar 81
	octave 5
	note D#, 2
	note D_, 6
	octave 4
	note A#, 2
	octave 5
	note C_, 6
;Bar 82
	octave 4
	note A#, 8
	rest 16
	rest 16
	rest 16
	rest 16
	rest 16
	rest 16
	rest 16
	rest 16
	rest 4
;Bar 90
	octave 5
	note F_, 4
;Bar 91
	note A#, 12
	note G#, 2
	note G_, 2
;Bar 92
	note F_, 8
	rest 4
	note D#, 4
;Bar 93
	note D_, 6
	rest 2
	note F_, 12
;Bar 94
	note F_, 4
	octave 6
	note C_, 4
	octave 5
	note A#, 4
;Bar 95
	octave 6
	note D#, 2
	note D_, 2
	note D#, 4
	note D_, 4
	note D_, 2
	note C_, 2
;Bar 96
	note D_, 4
	note C_, 4
	note C_, 2
	octave 5
	note A#, 2
	octave 6
	note C_, 4
;Bar 97
	octave 5
	note A#, 6
	note F_, 10
;Bar 98
	rest 12
	octave 4
	note A#, 4
;Bar 99
	octave 5
	note A#, 12
	note G#, 2
	note G_, 2
;Bar 100
	note F_, 8
	rest 4
	note D#, 4
;Bar 101
	note D_, 6
	rest 2
	note F_, 12
;Bar 102
	note A#, 4
	octave 6
	note C_, 4
	octave 5
	note A#, 4
;Bar 103
	octave 6
	note D#, 2
	note D_, 2
	note D#, 4
	note D_, 4
	note D_, 2
	note C_, 2
;Bar 104
	note D_, 4
	note C_, 4
	note C_, 2
	octave 5
	note A#, 2
	octave 6
	note C_, 4
;Bar 105
	octave 5
	note A#, 6
	note F_, 6
	octave 4
	note A#, 12
;Bar 106
	rest 8
;Bar 107
	octave 5
	note D#, 4
	note D_, 2
	note D#, 4
	note F_, 2
	note D#, 8
;Bar 108
	rest 2
	note D#, 2
	note G_, 2
	note F_, 2
	note D#, 2
	note D_, 2
;Bar 109
	note D#, 4
	note D_, 2
	note D#, 4
	note F_, 2
	note D#, 8
;Bar 110
	rest 4
	note C_, 4
	note D_, 4
;Bar 111
	note D#, 12
	note D_, 2
	note C_, 8
;Bar 112
	rest 10
;Bar 113
	note G_, 12
	note F_, 2
	note D#, 8
;Bar 114
	rest 10
;Bar 115
	note G_, 4
	note F_, 4
	note G_, 4
	note F_, 4
;Bar 116
	note G_, 4
	note F_, 4
	note G_, 4
	note F_, 4
;Bar 117
	note G_, 4
	note F_, 4
	note G_, 4
	note G#, 4
;Bar 118
	note A_, 16
	note A_, 16
;Bar 120
	rest 12
	octave 4
	note A#, 4
;Bar 121
	octave 5
	note D_, 4
	rest 10
	note D_, 2
;Bar 122
	note D_, 4
	note D#, 4
	note D_, 2
	note C_, 4
	octave 4
	note A#, 8
;Bar 123
	rest 6
	octave 5
	note A#, 4
;Bar 124
	note A_, 4
	note A#, 2
	note A_, 4
	note F_, 2
	note D_, 4
;Bar 125
	note G_, 12
	note G_, 4
;Bar 126
	note F_, 4
	note G_, 2
	note F_, 4
	octave 4
	note A#, 6
;Bar 127
	octave 5
	note D#, 4
	note D_, 4
	note D#, 2
	note F_, 6
;Bar 128
	note C_, 12
	note C_, 4
;Bar 129
	note D_, 14
	note D_, 2
;Bar 130
	note D_, 4
	note D#, 2
	note D_, 4
	note C_, 4
	octave 4
	note A#, 14
;Bar 131
	octave 5
	note A#, 4
;Bar 132
	note A_, 4
	note A#, 2
	note A_, 4
	note F_, 2
	note D_, 4
;Bar 133
	note G_, 12
	note G_, 4
;Bar 134
	note F_, 4
	note G_, 2
	note F_, 6
	octave 4
	note A#, 4
;Bar 135
	octave 5
	note D#, 2
	note D_, 6
	octave 4
	note A#, 2
	octave 5
	note C_, 6
;Bar 136
	octave 4
	note A#, 16
;Bar 137
	rest 16
	rest 16
	rest 16
	rest 16
	rest 16
	rest 16
	rest 16
	rest 12
;Bar 144
	note A#, 4
;Bar 145
	octave 5
	note A#, 12
	note G#, 2
	note G_, 2
;Bar 146
	note F_, 12
	note D#, 4
;Bar 147
	note D_, 8
	note F_, 12
;Bar 148
	note A#, 4
	octave 6
	note C_, 4
	octave 5
	note A#, 4
;Bar 149
	octave 6
	note D#, 2
	note D_, 2
	note D#, 4
	note D_, 4
	note D_, 2
	note C_, 2
;Bar 150
	note D_, 4
	note C_, 4
	note C_, 2
	octave 5
	note A#, 2
	octave 6
	note C_, 4
;Bar 151
	octave 5
	note A#, 6
	note F_, 16
	note F_, 2
;Bar 152
	rest 4
	octave 4
	note A#, 4
;Bar 153
	octave 5
	note A#, 12
	note G#, 2
	note G_, 2
;Bar 154
	note F_, 12
	note D#, 4
;Bar 155
	note D_, 6
	note F_, 14
;Bar 156
	note F_, 4
	octave 6
	note C_, 4
	octave 5
	note A#, 4
;Bar 157
	octave 6
	note D#, 2
	note D_, 2
	note D#, 4
	note D_, 4
	note D_, 2
	note C_, 2
;Bar 158
	note D_, 4
	note C_, 4
	note C_, 2
	octave 5
	note A#, 2
	octave 6
	note C_, 4
;Bar 159
	octave 5
	note A#, 16
	note A#, 4
;Bar 160
	rest 8
	octave 4
	note A#, 4
;Bar 161
	octave 5
	note A#, 12
	note G#, 2
	note G_, 2
;Bar 162
	note F_, 12
	note D#, 4
;Bar 163
	note D_, 6
	note F_, 14
;Bar 164
	note F_, 4
	octave 6
	note C_, 4
	octave 5
	note A#, 4
;Bar 165
	octave 6
	note D#, 2
	note D_, 2
	note D#, 4
	note D_, 4
	note D_, 2
	note C_, 2
;Bar 166
	note D_, 4
	note C_, 4
	note C_, 2
	octave 5
	note A#, 2
	octave 6
	note C_, 4
;Bar 167
	octave 5
	note A#, 6
	note F_, 16
	note F_, 2
;Bar 168
	rest 4
	octave 4
	note A#, 4
;Bar 169
	octave 5
	note A#, 12
	note G#, 2
	note G_, 2
;Bar 170
	note F_, 12
	note D#, 4
;Bar 171
	note D_, 6
	note F_, 14
;Bar 172
	note F_, 4
	octave 6
	note C_, 4
	octave 5
	note A#, 4
;Bar 173
	octave 6
	note D#, 2
	note D_, 2
	note D#, 4
	note D_, 4
	note D_, 2
	note C_, 2
;Bar 174
	note D_, 4
	note C_, 4
	note C_, 2
	octave 5
	note A#, 2
	octave 6
	note C_, 4
;Bar 175
	octave 5
	note A#, 16
	note A#, 4
	sound_ret

; ============================================================================================================

Music_KommSusserTod_Ch4:
	toggle_noise 1
	drum_speed 12
;Bar 1
	rest 8
	drum_note 6, 16
;Bar 2
	drum_note 6, 16
;Bar 3
	drum_note 6, 16
;Bar 4
	drum_note 6, 4
	drum_note 6, 12
;Bar 5
	drum_note 6, 16
;Bar 6
	drum_note 6, 16
;Bar 7
	drum_note 6, 8
;Bar 8
	drum_note 1, 7
	;note C_, 0 | WARNING: Rounded down to 0
	drum_note 6, 1
	;note C_, 0 | WARNING: Rounded down to 0
	drum_note 6, 4
	;note C_, 0 | WARNING: Rounded down to 0
	drum_note 6, 4
;Bar 9
	drum_note 1, 8
	drum_note 6, 4
	drum_note 1, 4
;Bar 10
	drum_note 1, 8
	drum_note 6, 8
;Bar 11
	drum_note 1, 8
	drum_note 6, 4
	drum_note 1, 4
;Bar 12
	drum_note 1, 8
	drum_note 6, 4
	drum_note 6, 4
;Bar 13
	drum_note 1, 8
	drum_note 6, 4
	drum_note 1, 4
;Bar 14
	drum_note 1, 8
	drum_note 6, 8
;Bar 15
	drum_note 1, 8
	drum_note 6, 4
	drum_note 1, 4
;Bar 16
	drum_note 1, 4
	;note C_, 0 | WARNING: Rounded down to 0
	;note D_, 0 | WARNING: Rounded down to 0
	drum_note 6, 3
	;note C_, 0 | WARNING: Rounded down to 0
	drum_note 6, 4
	;note C_, 0 | WARNING: Rounded down to 0
	drum_note 6, 1
	;note C_, 0 | WARNING: Rounded down to 0
	drum_note 6, 4
;Bar 17
	drum_note 1, 8
	;note D_, 0 | WARNING: Rounded down to 0
	drum_note 6, 4
	drum_note 1, 4
;Bar 18
	drum_note 1, 8
	;note D_, 0 | WARNING: Rounded down to 0
	drum_note 6, 8
;Bar 19
	drum_note 1, 8
	;note D_, 0 | WARNING: Rounded down to 0
	drum_note 6, 4
	drum_note 1, 4
;Bar 20
	drum_note 1, 8
	;note D_, 0 | WARNING: Rounded down to 0
	drum_note 6, 4
	drum_note 6, 4
;Bar 21
	drum_note 1, 8
	;note D_, 0 | WARNING: Rounded down to 0
	drum_note 6, 4
	drum_note 1, 4
;Bar 22
	drum_note 1, 8
	;note D_, 0 | WARNING: Rounded down to 0
	drum_note 6, 8
;Bar 23
	drum_note 1, 8
	;note D_, 0 | WARNING: Rounded down to 0
	drum_note 6, 4
	drum_note 1, 11
;Bar 24
	;note D_, 0 | WARNING: Rounded down to 0
	drum_note 6, 1
	;note C_, 0 | WARNING: Rounded down to 0
	drum_note 6, 4
	;note C_, 0 | WARNING: Rounded down to 0
	drum_note 6, 4
;Bar 25
	drum_note 1, 8
	;note D_, 0 | WARNING: Rounded down to 0
	drum_note 6, 4
	drum_note 1, 4
;Bar 26
	drum_note 1, 8
	;note D_, 0 | WARNING: Rounded down to 0
	drum_note 6, 8
;Bar 27
	drum_note 1, 8
	;note D_, 0 | WARNING: Rounded down to 0
	drum_note 6, 4
	drum_note 1, 4
;Bar 28
	drum_note 1, 8
	;note D_, 0 | WARNING: Rounded down to 0
	drum_note 6, 8
;Bar 29
	drum_note 1, 8
	;note D_, 0 | WARNING: Rounded down to 0
	drum_note 6, 4
	drum_note 1, 4
;Bar 30
	drum_note 1, 8
	;note D_, 0 | WARNING: Rounded down to 0
	drum_note 6, 8
;Bar 31
	drum_note 1, 8
	;note D_, 0 | WARNING: Rounded down to 0
	drum_note 6, 4
	drum_note 1, 4
;Bar 32
	drum_note 1, 4
	;note D_, 0 | WARNING: Rounded down to 0
	drum_note 6, 3
	;note C_, 0 | WARNING: Rounded down to 0
	drum_note 6, 4
	;note C_, 0 | WARNING: Rounded down to 0
	drum_note 6, 1
	;note C_, 0 | WARNING: Rounded down to 0
	drum_note 6, 4
;Bar 33
	drum_note 1, 8
	;note D_, 0 | WARNING: Rounded down to 0
	drum_note 6, 4
	drum_note 1, 4
;Bar 34
	drum_note 1, 8
	;note D_, 0 | WARNING: Rounded down to 0
	drum_note 6, 8
;Bar 35
	drum_note 1, 8
	;note D_, 0 | WARNING: Rounded down to 0
	drum_note 6, 4
	drum_note 1, 4
;Bar 36
	drum_note 1, 8
	;note D_, 0 | WARNING: Rounded down to 0
	drum_note 6, 4
	drum_note 6, 4
;Bar 37
	drum_note 1, 8
	;note D_, 0 | WARNING: Rounded down to 0
	drum_note 6, 4
	drum_note 1, 4
;Bar 38
	drum_note 1, 8
	;note D_, 0 | WARNING: Rounded down to 0
	drum_note 6, 8
;Bar 39
	drum_note 1, 8
	;note D_, 0 | WARNING: Rounded down to 0
	drum_note 6, 4
	drum_note 1, 4
;Bar 40
	drum_note 1, 7
	;note D_, 0 | WARNING: Rounded down to 0
	drum_note 6, 1
	;note C_, 0 | WARNING: Rounded down to 0
	drum_note 6, 4
	;note C_, 0 | WARNING: Rounded down to 0
	drum_note 6, 4
;Bar 41
	drum_note 1, 8
	;note D_, 0 | WARNING: Rounded down to 0
	drum_note 6, 4
	drum_note 1, 4
;Bar 42
	drum_note 1, 8
	;note D_, 0 | WARNING: Rounded down to 0
	drum_note 6, 8
;Bar 43
	drum_note 1, 8
	;note D_, 0 | WARNING: Rounded down to 0
	drum_note 6, 4
	drum_note 1, 4
;Bar 44
	drum_note 1, 8
	;note D_, 0 | WARNING: Rounded down to 0
	drum_note 6, 8
;Bar 45
	drum_note 1, 8
	;note D_, 0 | WARNING: Rounded down to 0
	drum_note 6, 4
	drum_note 1, 4
;Bar 46
	drum_note 1, 8
	;note D_, 0 | WARNING: Rounded down to 0
	drum_note 6, 8
;Bar 47
	drum_note 1, 8
	;note D_, 0 | WARNING: Rounded down to 0
	drum_note 6, 4
	drum_note 1, 4
;Bar 48
	drum_note 1, 4
	;note C_, 0 | WARNING: Rounded down to 0
	drum_note 6, 7
	;note C_, 0 | WARNING: Rounded down to 0
	drum_note 6, 1
	;note D_, 0 | WARNING: Rounded down to 0
	drum_note 6, 4
;Bar 49
	drum_note 1, 8
	;note D_, 0 | WARNING: Rounded down to 0
	drum_note 6, 4
	drum_note 1, 4
;Bar 50
	drum_note 1, 8
	;note D_, 0 | WARNING: Rounded down to 0
	drum_note 6, 8
;Bar 51
	drum_note 1, 8
	;note D_, 0 | WARNING: Rounded down to 0
	drum_note 6, 4
	drum_note 1, 4
;Bar 52
	drum_note 1, 8
	;note D_, 0 | WARNING: Rounded down to 0
	drum_note 6, 4
	drum_note 6, 4
;Bar 53
	drum_note 1, 8
	;note D_, 0 | WARNING: Rounded down to 0
	drum_note 6, 4
	drum_note 1, 4
;Bar 54
	drum_note 1, 8
	;note D_, 0 | WARNING: Rounded down to 0
	drum_note 6, 8
;Bar 55
	drum_note 1, 8
	;note D_, 0 | WARNING: Rounded down to 0
	drum_note 6, 4
	drum_note 1, 11
;Bar 56
	;note D_, 0 | WARNING: Rounded down to 0
	drum_note 6, 1
	;note C_, 0 | WARNING: Rounded down to 0
	drum_note 6, 4
	;note C_, 0 | WARNING: Rounded down to 0
	drum_note 6, 4
;Bar 57
	drum_note 1, 8
	;note D_, 0 | WARNING: Rounded down to 0
	drum_note 6, 4
	drum_note 1, 4
;Bar 58
	drum_note 1, 8
	;note D_, 0 | WARNING: Rounded down to 0
	drum_note 6, 8
;Bar 59
	drum_note 1, 8
	;note D_, 0 | WARNING: Rounded down to 0
	drum_note 6, 4
	drum_note 1, 4
;Bar 60
	drum_note 1, 8
	;note D_, 0 | WARNING: Rounded down to 0
	drum_note 6, 8
;Bar 61
	drum_note 1, 8
	;note D_, 0 | WARNING: Rounded down to 0
	drum_note 6, 4
	drum_note 1, 4
;Bar 62
	drum_note 1, 8
	;note D_, 0 | WARNING: Rounded down to 0
	drum_note 6, 8
;Bar 63
	drum_note 10, 4
	drum_note 10, 4
	drum_note 1, 4
	drum_note 10, 4
;Bar 64
	;note A_, 0 | WARNING: Rounded down to 0
	;note C_, 0 | WARNING: Rounded down to 0
	drum_note 3, 4
	rest 16
	rest 16
	rest 12
;Bar 67
	drum_note 1, 8
	;note D_, 0 | WARNING: Rounded down to 0
	drum_note 6, 4
	drum_note 1, 4
;Bar 68
	drum_note 1, 8
	;note D_, 0 | WARNING: Rounded down to 0
	drum_note 6, 8
;Bar 69
	drum_note 1, 8
	;note D_, 0 | WARNING: Rounded down to 0
	drum_note 6, 4
	drum_note 1, 4
;Bar 70
	drum_note 1, 8
	;note D_, 0 | WARNING: Rounded down to 0
	drum_note 6, 4
	drum_note 6, 4
;Bar 71
	drum_note 1, 8
	;note D_, 0 | WARNING: Rounded down to 0
	drum_note 6, 4
	drum_note 1, 4
;Bar 72
	drum_note 1, 8
	;note D_, 0 | WARNING: Rounded down to 0
	drum_note 6, 8
;Bar 73
	drum_note 1, 8
	;note D_, 0 | WARNING: Rounded down to 0
	drum_note 6, 4
	drum_note 1, 11
;Bar 74
	;note D_, 0 | WARNING: Rounded down to 0
	drum_note 6, 1
	;note C_, 0 | WARNING: Rounded down to 0
	drum_note 6, 4
	;note C_, 0 | WARNING: Rounded down to 0
	drum_note 6, 4
;Bar 75
	drum_note 1, 8
	;note D_, 0 | WARNING: Rounded down to 0
	drum_note 6, 4
	drum_note 1, 4
;Bar 76
	drum_note 1, 8
	;note D_, 0 | WARNING: Rounded down to 0
	drum_note 6, 8
;Bar 77
	drum_note 1, 8
	;note D_, 0 | WARNING: Rounded down to 0
	drum_note 6, 4
	drum_note 1, 4
;Bar 78
	drum_note 1, 8
	;note D_, 0 | WARNING: Rounded down to 0
	drum_note 6, 8
;Bar 79
	drum_note 1, 8
	;note D_, 0 | WARNING: Rounded down to 0
	drum_note 6, 4
	drum_note 1, 4
;Bar 80
	drum_note 1, 8
	;note D_, 0 | WARNING: Rounded down to 0
	drum_note 6, 8
;Bar 81
	drum_note 1, 8
	;note D_, 0 | WARNING: Rounded down to 0
	drum_note 6, 4
	drum_note 1, 4
;Bar 82
	drum_note 1, 4
	drum_note 3, 7
	drum_note 3, 1
	drum_note 3, 4
;Bar 83
	;note C_, 0 | WARNING: Rounded down to 0
	drum_note 4, 4
	;note C_, 0 | WARNING: Rounded down to 0
	drum_note 4, 4
	;note D_, 0 | WARNING: Rounded down to 0
	drum_note 4, 4
	;note C_, 0 | WARNING: Rounded down to 0
	drum_note 4, 4
;Bar 84
	;note C_, 0 | WARNING: Rounded down to 0
	drum_note 4, 4
	;note C_, 0 | WARNING: Rounded down to 0
	drum_note 4, 4
	;note D_, 0 | WARNING: Rounded down to 0
	drum_note 4, 4
	;note C_, 0 | WARNING: Rounded down to 0
	drum_note 4, 4
;Bar 85
	;note C_, 0 | WARNING: Rounded down to 0
	drum_note 4, 4
	;note C_, 0 | WARNING: Rounded down to 0
	drum_note 4, 4
	;note D_, 0 | WARNING: Rounded down to 0
	drum_note 4, 4
	;note C_, 0 | WARNING: Rounded down to 0
	drum_note 4, 4
;Bar 86
	;note C_, 0 | WARNING: Rounded down to 0
	drum_note 4, 4
	;note C_, 0 | WARNING: Rounded down to 0
	drum_note 4, 4
	;note D_, 0 | WARNING: Rounded down to 0
	drum_note 4, 4
	;note C_, 0 | WARNING: Rounded down to 0
	drum_note 4, 4
;Bar 87
	;note C_, 0 | WARNING: Rounded down to 0
	drum_note 4, 4
	;note C_, 0 | WARNING: Rounded down to 0
	drum_note 4, 4
	;note D_, 0 | WARNING: Rounded down to 0
	drum_note 4, 4
	;note C_, 0 | WARNING: Rounded down to 0
	drum_note 4, 4
;Bar 88
	;note C_, 0 | WARNING: Rounded down to 0
	drum_note 4, 4
	;note C_, 0 | WARNING: Rounded down to 0
	drum_note 4, 4
	;note D_, 0 | WARNING: Rounded down to 0
	drum_note 4, 4
	;note C_, 0 | WARNING: Rounded down to 0
	drum_note 4, 4
;Bar 89
	;note C_, 0 | WARNING: Rounded down to 0
	drum_note 4, 4
	;note C_, 0 | WARNING: Rounded down to 0
	drum_note 4, 4
	;note D_, 0 | WARNING: Rounded down to 0
	drum_note 4, 4
	;note C_, 0 | WARNING: Rounded down to 0
	drum_note 4, 4
;Bar 90
	;note C_, 0 | WARNING: Rounded down to 0
	drum_note 4, 4
	;note C_, 0 | WARNING: Rounded down to 0
	drum_note 4, 4
	;note D_, 0 | WARNING: Rounded down to 0
	drum_note 4, 4
	;note C_, 0 | WARNING: Rounded down to 0
	drum_note 4, 4
;Bar 91
	;note C_, 0 | WARNING: Rounded down to 0
	drum_note 4, 4
	;note C_, 0 | WARNING: Rounded down to 0
	drum_note 4, 4
	;note D_, 0 | WARNING: Rounded down to 0
	drum_note 4, 4
	;note C_, 0 | WARNING: Rounded down to 0
	drum_note 4, 4
;Bar 92
	;note C_, 0 | WARNING: Rounded down to 0
	drum_note 4, 4
	;note C_, 0 | WARNING: Rounded down to 0
	drum_note 4, 4
	;note D_, 0 | WARNING: Rounded down to 0
	drum_note 4, 4
	;note C_, 0 | WARNING: Rounded down to 0
	drum_note 4, 4
;Bar 93
	;note C_, 0 | WARNING: Rounded down to 0
	drum_note 4, 4
	;note C_, 0 | WARNING: Rounded down to 0
	drum_note 4, 4
	;note D_, 0 | WARNING: Rounded down to 0
	drum_note 4, 4
	;note C_, 0 | WARNING: Rounded down to 0
	drum_note 4, 4
;Bar 94
	;note C_, 0 | WARNING: Rounded down to 0
	drum_note 4, 4
	;note C_, 0 | WARNING: Rounded down to 0
	drum_note 4, 4
	;note D_, 0 | WARNING: Rounded down to 0
	drum_note 4, 4
	;note C_, 0 | WARNING: Rounded down to 0
	drum_note 4, 4
;Bar 95
	;note C_, 0 | WARNING: Rounded down to 0
	drum_note 4, 4
	;note C_, 0 | WARNING: Rounded down to 0
	drum_note 4, 4
	;note D_, 0 | WARNING: Rounded down to 0
	drum_note 4, 4
	;note C_, 0 | WARNING: Rounded down to 0
	drum_note 4, 4
;Bar 96
	;note C_, 0 | WARNING: Rounded down to 0
	drum_note 4, 4
	;note C_, 0 | WARNING: Rounded down to 0
	drum_note 4, 4
	;note D_, 0 | WARNING: Rounded down to 0
	drum_note 4, 4
	;note C_, 0 | WARNING: Rounded down to 0
	drum_note 4, 4
;Bar 97
	;note C_, 0 | WARNING: Rounded down to 0
	drum_note 4, 4
	;note C_, 0 | WARNING: Rounded down to 0
	drum_note 4, 4
	;note D_, 0 | WARNING: Rounded down to 0
	drum_note 4, 4
	;note C_, 0 | WARNING: Rounded down to 0
	drum_note 4, 4
;Bar 98
	;note C_, 0 | WARNING: Rounded down to 0
	drum_note 4, 4
	;note C_, 0 | WARNING: Rounded down to 0
	drum_note 4, 4
	;note D_, 0 | WARNING: Rounded down to 0
	drum_note 4, 4
	;note C_, 0 | WARNING: Rounded down to 0
	drum_note 4, 4
;Bar 99
	;note C_, 0 | WARNING: Rounded down to 0
	drum_note 4, 4
	;note C_, 0 | WARNING: Rounded down to 0
	drum_note 4, 4
	;note D_, 0 | WARNING: Rounded down to 0
	drum_note 4, 4
	;note C_, 0 | WARNING: Rounded down to 0
	drum_note 4, 4
;Bar 100
	;note C_, 0 | WARNING: Rounded down to 0
	drum_note 4, 4
	;note C_, 0 | WARNING: Rounded down to 0
	drum_note 4, 4
	;note D_, 0 | WARNING: Rounded down to 0
	drum_note 4, 4
	;note C_, 0 | WARNING: Rounded down to 0
	drum_note 4, 4
;Bar 101
	;note C_, 0 | WARNING: Rounded down to 0
	drum_note 4, 4
	;note C_, 0 | WARNING: Rounded down to 0
	drum_note 4, 4
	;note D_, 0 | WARNING: Rounded down to 0
	drum_note 4, 4
	;note C_, 0 | WARNING: Rounded down to 0
	drum_note 4, 4
;Bar 102
	;note C_, 0 | WARNING: Rounded down to 0
	drum_note 4, 4
	;note C_, 0 | WARNING: Rounded down to 0
	drum_note 4, 4
	;note D_, 0 | WARNING: Rounded down to 0
	drum_note 4, 4
	;note C_, 0 | WARNING: Rounded down to 0
	drum_note 4, 4
;Bar 103
	;note C_, 0 | WARNING: Rounded down to 0
	drum_note 4, 4
	;note C_, 0 | WARNING: Rounded down to 0
	drum_note 4, 4
	;note D_, 0 | WARNING: Rounded down to 0
	drum_note 4, 4
	;note C_, 0 | WARNING: Rounded down to 0
	drum_note 4, 4
;Bar 104
	;note C_, 0 | WARNING: Rounded down to 0
	drum_note 4, 4
	;note C_, 0 | WARNING: Rounded down to 0
	drum_note 4, 4
	;note D_, 0 | WARNING: Rounded down to 0
	drum_note 4, 4
	;note C_, 0 | WARNING: Rounded down to 0
	drum_note 4, 4
;Bar 105
	;note C_, 0 | WARNING: Rounded down to 0
	drum_note 4, 4
	;note C_, 0 | WARNING: Rounded down to 0
	drum_note 4, 4
	;note D_, 0 | WARNING: Rounded down to 0
	drum_note 4, 4
	;note C_, 0 | WARNING: Rounded down to 0
	drum_note 4, 4
;Bar 106
	drum_note 4, 4
	;note C_, 0 | WARNING: Rounded down to 0
	drum_note 4, 3
	drum_note 3, 1
	;note C_, 0 | WARNING: Rounded down to 0
	drum_note 4, 4
	;note C_, 0 | WARNING: Rounded down to 0
	drum_note 4, 4
;Bar 107
	;note C_, 0 | WARNING: Rounded down to 0
	drum_note 4, 4
	;note C_, 0 | WARNING: Rounded down to 0
	drum_note 4, 4
	;note D_, 0 | WARNING: Rounded down to 0
	drum_note 4, 4
	;note C_, 0 | WARNING: Rounded down to 0
	drum_note 4, 4
;Bar 108
	;note C_, 0 | WARNING: Rounded down to 0
	drum_note 4, 4
	;note C_, 0 | WARNING: Rounded down to 0
	drum_note 4, 4
	;note D_, 0 | WARNING: Rounded down to 0
	drum_note 4, 4
	;note C_, 0 | WARNING: Rounded down to 0
	drum_note 4, 4
;Bar 109
	;note C_, 0 | WARNING: Rounded down to 0
	drum_note 4, 4
	;note C_, 0 | WARNING: Rounded down to 0
	drum_note 4, 4
	;note D_, 0 | WARNING: Rounded down to 0
	drum_note 4, 4
	;note C_, 0 | WARNING: Rounded down to 0
	drum_note 4, 4
;Bar 110
	;note C_, 0 | WARNING: Rounded down to 0
	drum_note 4, 4
	;note C_, 0 | WARNING: Rounded down to 0
	drum_note 4, 4
	;note D_, 0 | WARNING: Rounded down to 0
	drum_note 4, 4
	;note C_, 0 | WARNING: Rounded down to 0
	drum_note 4, 4
;Bar 111
	;note C_, 0 | WARNING: Rounded down to 0
	drum_note 4, 4
	;note C_, 0 | WARNING: Rounded down to 0
	drum_note 4, 4
	;note D_, 0 | WARNING: Rounded down to 0
	drum_note 4, 4
	;note C_, 0 | WARNING: Rounded down to 0
	drum_note 4, 4
;Bar 112
	;note C_, 0 | WARNING: Rounded down to 0
	drum_note 4, 4
	;note C_, 0 | WARNING: Rounded down to 0
	drum_note 4, 4
	;note D_, 0 | WARNING: Rounded down to 0
	drum_note 4, 3
	drum_note 3, 1
	;note C_, 0 | WARNING: Rounded down to 0
	drum_note 4, 4
;Bar 113
	drum_note 3, 4
	;note G_, 0 | WARNING: Rounded down to 0
	;note C_, 0 | WARNING: Rounded down to 0
	drum_note 3, 4
	drum_note 3, 4
	;note G_, 0 | WARNING: Rounded down to 0
	;note C_, 0 | WARNING: Rounded down to 0
	drum_note 3, 4
;Bar 114
	drum_note 3, 4
	;note G_, 0 | WARNING: Rounded down to 0
	;note C_, 0 | WARNING: Rounded down to 0
	drum_note 3, 4
	drum_note 3, 4
	;note G_, 0 | WARNING: Rounded down to 0
	;note C_, 0 | WARNING: Rounded down to 0
	drum_note 3, 4
;Bar 115
	drum_note 3, 4
	;note G_, 0 | WARNING: Rounded down to 0
	;note C_, 0 | WARNING: Rounded down to 0
	drum_note 3, 4
	drum_note 3, 4
	;note G_, 0 | WARNING: Rounded down to 0
	;note C_, 0 | WARNING: Rounded down to 0
	drum_note 3, 4
;Bar 116
	drum_note 3, 4
	;note G_, 0 | WARNING: Rounded down to 0
	;note C_, 0 | WARNING: Rounded down to 0
	drum_note 3, 4
	drum_note 3, 4
	;note G_, 0 | WARNING: Rounded down to 0
	;note C_, 0 | WARNING: Rounded down to 0
	drum_note 3, 4
;Bar 117
	;note G_, 0 | WARNING: Rounded down to 0
	;note C_, 0 | WARNING: Rounded down to 0
	drum_note 3, 4
	;note G_, 0 | WARNING: Rounded down to 0
	;note C_, 0 | WARNING: Rounded down to 0
	drum_note 3, 4
	;note G_, 0 | WARNING: Rounded down to 0
	;note C_, 0 | WARNING: Rounded down to 0
	drum_note 3, 4
	;note G_, 0 | WARNING: Rounded down to 0
	;note C_, 0 | WARNING: Rounded down to 0
	drum_note 3, 4
;Bar 118
	;note A_, 0 | WARNING: Rounded down to 0
	;note C_, 0 | WARNING: Rounded down to 0
	drum_note 3, 4
	;note A_, 0 | WARNING: Rounded down to 0
	;note C_, 0 | WARNING: Rounded down to 0
	drum_note 3, 4
	;note A_, 0 | WARNING: Rounded down to 0
	;note C_, 0 | WARNING: Rounded down to 0
	drum_note 3, 4
	;note A_, 0 | WARNING: Rounded down to 0
	;note C_, 0 | WARNING: Rounded down to 0
	drum_note 3, 4
;Bar 119
	;note A_, 0 | WARNING: Rounded down to 0
	;note C_, 0 | WARNING: Rounded down to 0
	drum_note 3, 4
	;note A_, 0 | WARNING: Rounded down to 0
	;note C_, 0 | WARNING: Rounded down to 0
	drum_note 3, 4
	;note A_, 0 | WARNING: Rounded down to 0
	;note C_, 0 | WARNING: Rounded down to 0
	drum_note 3, 4
	;note A_, 0 | WARNING: Rounded down to 0
	;note C_, 0 | WARNING: Rounded down to 0
	drum_note 3, 4
;Bar 120
	;note C_, 0 | WARNING: Rounded down to 0
	drum_note 10, 16
;Bar 121
	drum_note 1, 8
	;note D_, 0 | WARNING: Rounded down to 0
	drum_note 6, 4
	drum_note 1, 4
;Bar 122
	drum_note 1, 8
	;note D_, 0 | WARNING: Rounded down to 0
	drum_note 6, 8
;Bar 123
	drum_note 1, 8
	;note D_, 0 | WARNING: Rounded down to 0
	drum_note 6, 4
	drum_note 1, 4
;Bar 124
	drum_note 1, 8
	;note D_, 0 | WARNING: Rounded down to 0
	drum_note 6, 4
	drum_note 6, 4
;Bar 125
	drum_note 1, 8
	;note D_, 0 | WARNING: Rounded down to 0
	drum_note 6, 4
	drum_note 1, 4
;Bar 126
	drum_note 1, 8
	;note D_, 0 | WARNING: Rounded down to 0
	drum_note 6, 8
;Bar 127
	drum_note 1, 8
	;note D_, 0 | WARNING: Rounded down to 0
	drum_note 6, 4
	drum_note 1, 11
;Bar 128
	;note D_, 0 | WARNING: Rounded down to 0
	drum_note 6, 1
	;note C_, 0 | WARNING: Rounded down to 0
	drum_note 6, 4
	;note C_, 0 | WARNING: Rounded down to 0
	drum_note 6, 4
;Bar 129
	drum_note 1, 8
	;note D_, 0 | WARNING: Rounded down to 0
	drum_note 6, 4
	drum_note 1, 4
;Bar 130
	drum_note 1, 8
	;note D_, 0 | WARNING: Rounded down to 0
	drum_note 6, 8
;Bar 131
	drum_note 1, 8
	;note D_, 0 | WARNING: Rounded down to 0
	drum_note 6, 4
	drum_note 1, 4
;Bar 132
	drum_note 1, 8
	;note D_, 0 | WARNING: Rounded down to 0
	drum_note 6, 8
;Bar 133
	drum_note 1, 8
	;note D_, 0 | WARNING: Rounded down to 0
	drum_note 6, 4
	drum_note 1, 4
;Bar 134
	drum_note 1, 8
	;note D_, 0 | WARNING: Rounded down to 0
	drum_note 6, 8
;Bar 135
	drum_note 1, 8
	;note D_, 0 | WARNING: Rounded down to 0
	drum_note 6, 4
	drum_note 1, 4
;Bar 136
	drum_note 1, 4
	drum_note 3, 7
	drum_note 3, 1
	drum_note 3, 4
;Bar 137
	;note C_, 0 | WARNING: Rounded down to 0
	drum_note 4, 4
	;note C_, 0 | WARNING: Rounded down to 0
	drum_note 4, 4
	;note D_, 0 | WARNING: Rounded down to 0
	drum_note 4, 4
	;note C_, 0 | WARNING: Rounded down to 0
	drum_note 4, 4
;Bar 138
	;note C_, 0 | WARNING: Rounded down to 0
	drum_note 4, 4
	;note C_, 0 | WARNING: Rounded down to 0
	drum_note 4, 4
	;note D#, 0 | WARNING: Rounded down to 0
	;note D_, 0 | WARNING: Rounded down to 0
	drum_note 4, 4
	;note C_, 0 | WARNING: Rounded down to 0
	drum_note 4, 4
;Bar 139
	;note C_, 0 | WARNING: Rounded down to 0
	drum_note 4, 4
	;note C_, 0 | WARNING: Rounded down to 0
	drum_note 4, 4
	;note D_, 0 | WARNING: Rounded down to 0
	drum_note 4, 4
	;note C_, 0 | WARNING: Rounded down to 0
	drum_note 4, 4
;Bar 140
	;note C_, 0 | WARNING: Rounded down to 0
	drum_note 4, 4
	;note C_, 0 | WARNING: Rounded down to 0
	drum_note 4, 4
	;note D#, 0 | WARNING: Rounded down to 0
	;note D_, 0 | WARNING: Rounded down to 0
	drum_note 4, 4
	;note C_, 0 | WARNING: Rounded down to 0
	drum_note 4, 4
;Bar 141
	;note C_, 0 | WARNING: Rounded down to 0
	drum_note 4, 4
	;note C_, 0 | WARNING: Rounded down to 0
	drum_note 4, 4
	;note D_, 0 | WARNING: Rounded down to 0
	drum_note 4, 4
	;note C_, 0 | WARNING: Rounded down to 0
	drum_note 4, 4
;Bar 142
	;note C_, 0 | WARNING: Rounded down to 0
	drum_note 4, 4
	;note C_, 0 | WARNING: Rounded down to 0
	drum_note 4, 4
	;note D#, 0 | WARNING: Rounded down to 0
	;note D_, 0 | WARNING: Rounded down to 0
	drum_note 4, 4
	;note C_, 0 | WARNING: Rounded down to 0
	drum_note 4, 4
;Bar 143
	;note C_, 0 | WARNING: Rounded down to 0
	drum_note 4, 4
	;note C_, 0 | WARNING: Rounded down to 0
	drum_note 4, 4
	;note D_, 0 | WARNING: Rounded down to 0
	drum_note 4, 4
	;note C_, 0 | WARNING: Rounded down to 0
	drum_note 4, 4
;Bar 144
	;note C_, 0 | WARNING: Rounded down to 0
	drum_note 4, 4
	;note C_, 0 | WARNING: Rounded down to 0
	drum_note 4, 4
	;note D#, 0 | WARNING: Rounded down to 0
	;note D_, 0 | WARNING: Rounded down to 0
	drum_note 4, 4
	;note C_, 0 | WARNING: Rounded down to 0
	drum_note 4, 4
;Bar 145
	;note C_, 0 | WARNING: Rounded down to 0
	drum_note 4, 4
	;note C_, 0 | WARNING: Rounded down to 0
	drum_note 4, 4
	;note D#, 0 | WARNING: Rounded down to 0
	;note D_, 0 | WARNING: Rounded down to 0
	drum_note 4, 4
	;note C_, 0 | WARNING: Rounded down to 0
	drum_note 4, 4
;Bar 146
	;note C_, 0 | WARNING: Rounded down to 0
	drum_note 4, 4
	;note C_, 0 | WARNING: Rounded down to 0
	drum_note 4, 4
	;note D#, 0 | WARNING: Rounded down to 0
	;note D_, 0 | WARNING: Rounded down to 0
	drum_note 4, 4
	;note C_, 0 | WARNING: Rounded down to 0
	drum_note 4, 4
;Bar 147
	;note C_, 0 | WARNING: Rounded down to 0
	drum_note 4, 4
	;note C_, 0 | WARNING: Rounded down to 0
	drum_note 4, 4
	;note D#, 0 | WARNING: Rounded down to 0
	;note D_, 0 | WARNING: Rounded down to 0
	drum_note 4, 4
	;note C_, 0 | WARNING: Rounded down to 0
	drum_note 4, 4
;Bar 148
	;note C_, 0 | WARNING: Rounded down to 0
	drum_note 4, 4
	;note C_, 0 | WARNING: Rounded down to 0
	drum_note 4, 4
	;note D#, 0 | WARNING: Rounded down to 0
	;note D_, 0 | WARNING: Rounded down to 0
	drum_note 4, 4
	;note C_, 0 | WARNING: Rounded down to 0
	drum_note 4, 4
;Bar 149
	;note C_, 0 | WARNING: Rounded down to 0
	drum_note 4, 4
	;note C_, 0 | WARNING: Rounded down to 0
	drum_note 4, 4
	;note D_, 0 | WARNING: Rounded down to 0
	;note D#, 0 | WARNING: Rounded down to 0
	drum_note 4, 4
	;note C_, 0 | WARNING: Rounded down to 0
	drum_note 4, 4
;Bar 150
	;note C_, 0 | WARNING: Rounded down to 0
	drum_note 4, 4
	;note C_, 0 | WARNING: Rounded down to 0
	drum_note 4, 4
	;note D#, 0 | WARNING: Rounded down to 0
	;note D_, 0 | WARNING: Rounded down to 0
	drum_note 4, 4
	;note C_, 0 | WARNING: Rounded down to 0
	drum_note 4, 4
;Bar 151
	;note C_, 0 | WARNING: Rounded down to 0
	drum_note 4, 4
	;note C_, 0 | WARNING: Rounded down to 0
	drum_note 4, 4
	;note D_, 0 | WARNING: Rounded down to 0
	;note D#, 0 | WARNING: Rounded down to 0
	drum_note 4, 4
	;note C_, 0 | WARNING: Rounded down to 0
	drum_note 4, 4
;Bar 152
	;note C_, 0 | WARNING: Rounded down to 0
	drum_note 4, 4
	;note C_, 0 | WARNING: Rounded down to 0
	drum_note 4, 4
	;note D#, 0 | WARNING: Rounded down to 0
	;note D_, 0 | WARNING: Rounded down to 0
	drum_note 4, 4
	;note C_, 0 | WARNING: Rounded down to 0
	drum_note 4, 4
;Bar 153
	;note C_, 0 | WARNING: Rounded down to 0
	drum_note 4, 4
	;note C_, 0 | WARNING: Rounded down to 0
	drum_note 4, 4
	;note D_, 0 | WARNING: Rounded down to 0
	;note D#, 0 | WARNING: Rounded down to 0
	drum_note 4, 4
	;note C_, 0 | WARNING: Rounded down to 0
	drum_note 4, 4
;Bar 154
	;note C_, 0 | WARNING: Rounded down to 0
	drum_note 4, 4
	;note C_, 0 | WARNING: Rounded down to 0
	drum_note 4, 4
	;note D#, 0 | WARNING: Rounded down to 0
	;note D_, 0 | WARNING: Rounded down to 0
	drum_note 4, 4
	;note C_, 0 | WARNING: Rounded down to 0
	drum_note 4, 4
;Bar 155
	;note C_, 0 | WARNING: Rounded down to 0
	drum_note 4, 4
	;note C_, 0 | WARNING: Rounded down to 0
	drum_note 4, 4
	;note D_, 0 | WARNING: Rounded down to 0
	;note D#, 0 | WARNING: Rounded down to 0
	drum_note 4, 4
	;note C_, 0 | WARNING: Rounded down to 0
	drum_note 4, 4
;Bar 156
	;note C_, 0 | WARNING: Rounded down to 0
	drum_note 4, 4
	;note C_, 0 | WARNING: Rounded down to 0
	drum_note 4, 4
	;note D#, 0 | WARNING: Rounded down to 0
	;note D_, 0 | WARNING: Rounded down to 0
	drum_note 4, 4
	;note C_, 0 | WARNING: Rounded down to 0
	drum_note 4, 4
;Bar 157
	;note C_, 0 | WARNING: Rounded down to 0
	drum_note 4, 4
	;note C_, 0 | WARNING: Rounded down to 0
	drum_note 4, 4
	;note D_, 0 | WARNING: Rounded down to 0
	;note D#, 0 | WARNING: Rounded down to 0
	drum_note 4, 4
	;note C_, 0 | WARNING: Rounded down to 0
	drum_note 4, 4
;Bar 158
	;note C_, 0 | WARNING: Rounded down to 0
	drum_note 4, 4
	;note C_, 0 | WARNING: Rounded down to 0
	drum_note 4, 4
	;note D#, 0 | WARNING: Rounded down to 0
	;note D_, 0 | WARNING: Rounded down to 0
	drum_note 4, 4
	;note C_, 0 | WARNING: Rounded down to 0
	drum_note 4, 4
;Bar 159
	;note C_, 0 | WARNING: Rounded down to 0
	drum_note 4, 4
	;note C_, 0 | WARNING: Rounded down to 0
	drum_note 4, 4
	;note D_, 0 | WARNING: Rounded down to 0
	;note D#, 0 | WARNING: Rounded down to 0
	drum_note 4, 4
	;note C_, 0 | WARNING: Rounded down to 0
	drum_note 4, 4
;Bar 160
	;note C_, 0 | WARNING: Rounded down to 0
	drum_note 4, 4
	;note C_, 0 | WARNING: Rounded down to 0
	drum_note 4, 4
	;note D#, 0 | WARNING: Rounded down to 0
	;note D_, 0 | WARNING: Rounded down to 0
	drum_note 4, 4
	;note C_, 0 | WARNING: Rounded down to 0
	drum_note 4, 4
;Bar 161
	;note C_, 0 | WARNING: Rounded down to 0
	drum_note 4, 4
	;note C_, 0 | WARNING: Rounded down to 0
	drum_note 4, 4
	;note D_, 0 | WARNING: Rounded down to 0
	;note D#, 0 | WARNING: Rounded down to 0
	drum_note 4, 4
	;note C_, 0 | WARNING: Rounded down to 0
	drum_note 4, 4
;Bar 162
	;note C_, 0 | WARNING: Rounded down to 0
	drum_note 4, 4
	;note C_, 0 | WARNING: Rounded down to 0
	drum_note 4, 4
	;note D#, 0 | WARNING: Rounded down to 0
	;note D_, 0 | WARNING: Rounded down to 0
	drum_note 4, 4
	;note C_, 0 | WARNING: Rounded down to 0
	drum_note 4, 4
;Bar 163
	;note C_, 0 | WARNING: Rounded down to 0
	drum_note 4, 4
	;note C_, 0 | WARNING: Rounded down to 0
	drum_note 4, 4
	;note D_, 0 | WARNING: Rounded down to 0
	;note D#, 0 | WARNING: Rounded down to 0
	drum_note 4, 4
	;note C_, 0 | WARNING: Rounded down to 0
	drum_note 4, 4
;Bar 164
	;note C_, 0 | WARNING: Rounded down to 0
	drum_note 4, 4
	;note C_, 0 | WARNING: Rounded down to 0
	drum_note 4, 4
	;note D#, 0 | WARNING: Rounded down to 0
	;note D_, 0 | WARNING: Rounded down to 0
	drum_note 4, 4
	;note C_, 0 | WARNING: Rounded down to 0
	drum_note 4, 4
;Bar 165
	;note C_, 0 | WARNING: Rounded down to 0
	drum_note 4, 4
	;note C_, 0 | WARNING: Rounded down to 0
	drum_note 4, 4
	;note D_, 0 | WARNING: Rounded down to 0
	;note D#, 0 | WARNING: Rounded down to 0
	drum_note 4, 4
	;note C_, 0 | WARNING: Rounded down to 0
	drum_note 4, 4
;Bar 166
	;note C_, 0 | WARNING: Rounded down to 0
	drum_note 4, 4
	;note C_, 0 | WARNING: Rounded down to 0
	drum_note 4, 4
	;note D#, 0 | WARNING: Rounded down to 0
	;note D_, 0 | WARNING: Rounded down to 0
	drum_note 4, 4
	;note C_, 0 | WARNING: Rounded down to 0
	drum_note 4, 4
;Bar 167
	;note C_, 0 | WARNING: Rounded down to 0
	drum_note 4, 4
	;note C_, 0 | WARNING: Rounded down to 0
	drum_note 4, 4
	;note D_, 0 | WARNING: Rounded down to 0
	;note D#, 0 | WARNING: Rounded down to 0
	drum_note 4, 4
	;note C_, 0 | WARNING: Rounded down to 0
	drum_note 4, 4
;Bar 168
	;note C_, 0 | WARNING: Rounded down to 0
	drum_note 4, 4
	;note C_, 0 | WARNING: Rounded down to 0
	drum_note 4, 4
	;note D#, 0 | WARNING: Rounded down to 0
	;note D_, 0 | WARNING: Rounded down to 0
	drum_note 4, 4
	;note C_, 0 | WARNING: Rounded down to 0
	drum_note 4, 4
;Bar 169
	;note C_, 0 | WARNING: Rounded down to 0
	drum_note 4, 4
	;note C_, 0 | WARNING: Rounded down to 0
	drum_note 4, 4
	;note D_, 0 | WARNING: Rounded down to 0
	;note D#, 0 | WARNING: Rounded down to 0
	drum_note 4, 4
	;note C_, 0 | WARNING: Rounded down to 0
	drum_note 4, 4
;Bar 170
	;note C_, 0 | WARNING: Rounded down to 0
	drum_note 4, 4
	;note C_, 0 | WARNING: Rounded down to 0
	drum_note 4, 4
	;note D#, 0 | WARNING: Rounded down to 0
	;note D_, 0 | WARNING: Rounded down to 0
	drum_note 4, 4
	;note C_, 0 | WARNING: Rounded down to 0
	drum_note 4, 4
;Bar 171
	;note C_, 0 | WARNING: Rounded down to 0
	drum_note 4, 4
	;note C_, 0 | WARNING: Rounded down to 0
	drum_note 4, 4
	;note D_, 0 | WARNING: Rounded down to 0
	;note D#, 0 | WARNING: Rounded down to 0
	drum_note 4, 4
	;note C_, 0 | WARNING: Rounded down to 0
	drum_note 4, 4
;Bar 172
	;note C_, 0 | WARNING: Rounded down to 0
	drum_note 4, 4
	;note C_, 0 | WARNING: Rounded down to 0
	drum_note 4, 4
	;note D#, 0 | WARNING: Rounded down to 0
	;note D_, 0 | WARNING: Rounded down to 0
	drum_note 4, 4
	;note C_, 0 | WARNING: Rounded down to 0
	drum_note 4, 4
;Bar 173
	;note C_, 0 | WARNING: Rounded down to 0
	drum_note 4, 4
	;note C_, 0 | WARNING: Rounded down to 0
	drum_note 4, 4
	;note D_, 0 | WARNING: Rounded down to 0
	;note D#, 0 | WARNING: Rounded down to 0
	drum_note 4, 4
	;note C_, 0 | WARNING: Rounded down to 0
	drum_note 4, 4
;Bar 174
	;note C_, 0 | WARNING: Rounded down to 0
	drum_note 4, 4
	;note C_, 0 | WARNING: Rounded down to 0
	drum_note 4, 4
	;note D#, 0 | WARNING: Rounded down to 0
	;note D_, 0 | WARNING: Rounded down to 0
	drum_note 4, 4
	;note C_, 0 | WARNING: Rounded down to 0
	drum_note 4, 4
;Bar 175
	;note C_, 0 | WARNING: Rounded down to 0
	drum_note 4, 4
	;note C_, 0 | WARNING: Rounded down to 0
	drum_note 4, 4
	;note D_, 0 | WARNING: Rounded down to 0
	;note D#, 0 | WARNING: Rounded down to 0
	drum_note 4, 4
	;note C_, 0 | WARNING: Rounded down to 0
	drum_note 4, 4
;Bar 176
	;note C_, 0 | WARNING: Rounded down to 0
	drum_note 4, 4
	;note C_, 0 | WARNING: Rounded down to 0
	drum_note 4, 4
	;note D#, 0 | WARNING: Rounded down to 0
	;note D_, 0 | WARNING: Rounded down to 0
	drum_note 4, 4
	;note C_, 0 | WARNING: Rounded down to 0
	drum_note 4, 4
;Bar 177
	;note C_, 0 | WARNING: Rounded down to 0
	drum_note 4, 4
	;note C_, 0 | WARNING: Rounded down to 0
	drum_note 4, 4
	;note D_, 0 | WARNING: Rounded down to 0
	;note D#, 0 | WARNING: Rounded down to 0
	drum_note 4, 4
	;note C_, 0 | WARNING: Rounded down to 0
	drum_note 4, 4
;Bar 178
	;note C_, 0 | WARNING: Rounded down to 0
	drum_note 4, 4
	;note C_, 0 | WARNING: Rounded down to 0
	drum_note 4, 4
	;note D#, 0 | WARNING: Rounded down to 0
	;note D_, 0 | WARNING: Rounded down to 0
	drum_note 4, 4
	;note C_, 0 | WARNING: Rounded down to 0
	drum_note 4, 4
;Bar 179
	;note C_, 0 | WARNING: Rounded down to 0
	drum_note 4, 4
	;note C_, 0 | WARNING: Rounded down to 0
	drum_note 4, 4
	;note D_, 0 | WARNING: Rounded down to 0
	;note D#, 0 | WARNING: Rounded down to 0
	drum_note 4, 4
	;note C_, 0 | WARNING: Rounded down to 0
	drum_note 4, 4
;Bar 180
	;note C_, 0 | WARNING: Rounded down to 0
	drum_note 4, 4
	;note C_, 0 | WARNING: Rounded down to 0
	drum_note 4, 4
	;note D#, 0 | WARNING: Rounded down to 0
	;note D_, 0 | WARNING: Rounded down to 0
	drum_note 4, 4
	;note C_, 0 | WARNING: Rounded down to 0
	drum_note 4, 4
;Bar 181
	;note C_, 0 | WARNING: Rounded down to 0
	drum_note 4, 4
	;note C_, 0 | WARNING: Rounded down to 0
	drum_note 4, 4
	;note D_, 0 | WARNING: Rounded down to 0
	;note D#, 0 | WARNING: Rounded down to 0
	drum_note 4, 4
	;note C_, 0 | WARNING: Rounded down to 0
	drum_note 4, 4
;Bar 182
	;note C_, 0 | WARNING: Rounded down to 0
	drum_note 4, 4
	;note C_, 0 | WARNING: Rounded down to 0
	drum_note 4, 4
	;note D#, 0 | WARNING: Rounded down to 0
	;note D_, 0 | WARNING: Rounded down to 0
	drum_note 4, 4
	;note C_, 0 | WARNING: Rounded down to 0
	drum_note 4, 4
;Bar 183
	;note C_, 0 | WARNING: Rounded down to 0
	drum_note 4, 4
	;note C_, 0 | WARNING: Rounded down to 0
	drum_note 4, 4
	;note D_, 0 | WARNING: Rounded down to 0
	;note D#, 0 | WARNING: Rounded down to 0
	drum_note 4, 4
	;note C_, 0 | WARNING: Rounded down to 0
	drum_note 4, 4
;Bar 184
	;note C_, 0 | WARNING: Rounded down to 0
	drum_note 4, 4
	;note C_, 0 | WARNING: Rounded down to 0
	drum_note 4, 4
	;note D_, 0 | WARNING: Rounded down to 0
	;note D#, 0 | WARNING: Rounded down to 0
	drum_note 4, 4
	;note C_, 0 | WARNING: Rounded down to 0
	drum_note 4, 4
;Bar 185
	;note C_, 0 | WARNING: Rounded down to 0
	drum_note 4, 4
	;note C_, 0 | WARNING: Rounded down to 0
	drum_note 4, 4
	;note D_, 0 | WARNING: Rounded down to 0
	;note D#, 0 | WARNING: Rounded down to 0
	drum_note 4, 4
	;note C_, 0 | WARNING: Rounded down to 0
	drum_note 4, 4
;Bar 186
	;note C_, 0 | WARNING: Rounded down to 0
	drum_note 4, 4
	;note C_, 0 | WARNING: Rounded down to 0
	drum_note 4, 4
	;note D#, 0 | WARNING: Rounded down to 0
	;note D_, 0 | WARNING: Rounded down to 0
	drum_note 4, 4
	;note C_, 0 | WARNING: Rounded down to 0
	drum_note 4, 4
;Bar 187
	;note C_, 0 | WARNING: Rounded down to 0
	drum_note 4, 4
	;note C_, 0 | WARNING: Rounded down to 0
	drum_note 4, 4
	;note D_, 0 | WARNING: Rounded down to 0
	;note D#, 0 | WARNING: Rounded down to 0
	drum_note 4, 4
	;note C_, 0 | WARNING: Rounded down to 0
	drum_note 4, 4
;Bar 188
	;note C_, 0 | WARNING: Rounded down to 0
	drum_note 4, 4
	;note C_, 0 | WARNING: Rounded down to 0
	drum_note 4, 4
	;note D#, 0 | WARNING: Rounded down to 0
	;note D_, 0 | WARNING: Rounded down to 0
	drum_note 4, 4
	;note C_, 0 | WARNING: Rounded down to 0
	drum_note 4, 4
;Bar 189
	;note C_, 0 | WARNING: Rounded down to 0
	drum_note 4, 4
	;note C_, 0 | WARNING: Rounded down to 0
	drum_note 4, 4
	;note D_, 0 | WARNING: Rounded down to 0
	;note D#, 0 | WARNING: Rounded down to 0
	drum_note 4, 4
	;note C_, 0 | WARNING: Rounded down to 0
	drum_note 4, 4
;Bar 190
	;note C_, 0 | WARNING: Rounded down to 0
	drum_note 4, 4
	;note C_, 0 | WARNING: Rounded down to 0
	drum_note 4, 4
	;note D#, 0 | WARNING: Rounded down to 0
	;note D_, 0 | WARNING: Rounded down to 0
	drum_note 4, 4
	;note C_, 0 | WARNING: Rounded down to 0
	drum_note 4, 4
;Bar 191
	;note C_, 0 | WARNING: Rounded down to 0
	drum_note 4, 4
	;note C_, 0 | WARNING: Rounded down to 0
	drum_note 4, 4
	;note D_, 0 | WARNING: Rounded down to 0
	;note D#, 0 | WARNING: Rounded down to 0
	drum_note 4, 4
	;note C_, 0 | WARNING: Rounded down to 0
	drum_note 4, 4
;Bar 192
	;note C_, 0 | WARNING: Rounded down to 0
	drum_note 4, 4
	;note C_, 0 | WARNING: Rounded down to 0
	drum_note 4, 4
	;note D_, 0 | WARNING: Rounded down to 0
	;note D#, 0 | WARNING: Rounded down to 0
	drum_note 4, 4
	;note C_, 0 | WARNING: Rounded down to 0
	drum_note 4, 4
;Bar 193
	;note C_, 0 | WARNING: Rounded down to 0
	drum_note 4, 4
	;note C_, 0 | WARNING: Rounded down to 0
	drum_note 4, 4
	;note D_, 0 | WARNING: Rounded down to 0
	;note D#, 0 | WARNING: Rounded down to 0
	drum_note 4, 4
	;note C_, 0 | WARNING: Rounded down to 0
	drum_note 4, 4
;Bar 194
	;note C_, 0 | WARNING: Rounded down to 0
	drum_note 4, 4
	;note C_, 0 | WARNING: Rounded down to 0
	drum_note 4, 4
	;note D_, 0 | WARNING: Rounded down to 0
	;note D#, 0 | WARNING: Rounded down to 0
	drum_note 4, 4
	;note C_, 0 | WARNING: Rounded down to 0
	drum_note 4, 4
;Bar 195
	;note C_, 0 | WARNING: Rounded down to 0
	drum_note 4, 4
	;note C_, 0 | WARNING: Rounded down to 0
	drum_note 4, 4
	;note D_, 0 | WARNING: Rounded down to 0
	;note D#, 0 | WARNING: Rounded down to 0
	drum_note 4, 4
	;note C_, 0 | WARNING: Rounded down to 0
	drum_note 4, 4
;Bar 196
	;note C_, 0 | WARNING: Rounded down to 0
	drum_note 4, 4
	;note C_, 0 | WARNING: Rounded down to 0
	drum_note 4, 4
	;note D_, 0 | WARNING: Rounded down to 0
	;note D#, 0 | WARNING: Rounded down to 0
	drum_note 4, 4
	;note C_, 0 | WARNING: Rounded down to 0
	drum_note 4, 4
;Bar 197
	;note C_, 0 | WARNING: Rounded down to 0
	drum_note 4, 4
	;note C_, 0 | WARNING: Rounded down to 0
	drum_note 4, 4
	;note D_, 0 | WARNING: Rounded down to 0
	;note D#, 0 | WARNING: Rounded down to 0
	drum_note 4, 4
	;note C_, 0 | WARNING: Rounded down to 0
	drum_note 4, 4
;Bar 198
	;note C_, 0 | WARNING: Rounded down to 0
	drum_note 4, 4
	;note C_, 0 | WARNING: Rounded down to 0
	drum_note 4, 4
	;note D_, 0 | WARNING: Rounded down to 0
	;note D#, 0 | WARNING: Rounded down to 0
	drum_note 4, 4
	;note C_, 0 | WARNING: Rounded down to 0
	drum_note 4, 4
;Bar 199
	;note C_, 0 | WARNING: Rounded down to 0
	drum_note 4, 4
	;note C_, 0 | WARNING: Rounded down to 0
	drum_note 4, 4
	;note D_, 0 | WARNING: Rounded down to 0
	;note D#, 0 | WARNING: Rounded down to 0
	drum_note 4, 4
	;note C_, 0 | WARNING: Rounded down to 0
	drum_note 4, 4
;Bar 200
	;note C_, 0 | WARNING: Rounded down to 0
	drum_note 4, 4
	;note C_, 0 | WARNING: Rounded down to 0
	drum_note 4, 4
	;note D_, 0 | WARNING: Rounded down to 0
	;note D#, 0 | WARNING: Rounded down to 0
	drum_note 4, 4
	;note C_, 0 | WARNING: Rounded down to 0
	drum_note 4, 4
;Bar 201
	;note C_, 0 | WARNING: Rounded down to 0
	drum_note 4, 4
	;note C_, 0 | WARNING: Rounded down to 0
	drum_note 4, 4
	;note D_, 0 | WARNING: Rounded down to 0
	drum_note 4, 4
	;note C_, 0 | WARNING: Rounded down to 0
	drum_note 4, 4
;Bar 202
	;note C_, 0 | WARNING: Rounded down to 0
	drum_note 4, 4
	;note C_, 0 | WARNING: Rounded down to 0
	drum_note 4, 4
	;note D_, 0 | WARNING: Rounded down to 0
	drum_note 4, 4
	;note D#, 0 | WARNING: Rounded down to 0
	drum_note 1, 4
;Bar 203
	;note C_, 0 | WARNING: Rounded down to 0
	drum_note 4, 4
	;note D#, 0 | WARNING: Rounded down to 0
	drum_note 1, 4
	;note D_, 0 | WARNING: Rounded down to 0
	;note D#, 0 | WARNING: Rounded down to 0
	drum_note 4, 4
	;note C_, 0 | WARNING: Rounded down to 0
	drum_note 4, 4
;Bar 204
	;note C_, 0 | WARNING: Rounded down to 0
	drum_note 4, 4
	;note C_, 0 | WARNING: Rounded down to 0
	drum_note 4, 4
	;note D#, 0 | WARNING: Rounded down to 0
	;note D_, 0 | WARNING: Rounded down to 0
	drum_note 4, 4
	;note C_, 0 | WARNING: Rounded down to 0
	drum_note 4, 4
;Bar 205
	;note C_, 0 | WARNING: Rounded down to 0
	drum_note 4, 4
	;note C_, 0 | WARNING: Rounded down to 0
	drum_note 4, 4
	;note D_, 0 | WARNING: Rounded down to 0
	;note D#, 0 | WARNING: Rounded down to 0
	drum_note 4, 4
	;note C_, 0 | WARNING: Rounded down to 0
	drum_note 4, 4
;Bar 206
	;note C_, 0 | WARNING: Rounded down to 0
	drum_note 4, 4
	;note C_, 0 | WARNING: Rounded down to 0
	drum_note 4, 4
	;note D_, 0 | WARNING: Rounded down to 0
	;note D#, 0 | WARNING: Rounded down to 0
	drum_note 4, 4
	;note C_, 0 | WARNING: Rounded down to 0
	drum_note 4, 4
;Bar 207
	;note C_, 0 | WARNING: Rounded down to 0
	drum_note 4, 4
	;note C_, 0 | WARNING: Rounded down to 0
	drum_note 4, 4
	;note D_, 0 | WARNING: Rounded down to 0
	;note D#, 0 | WARNING: Rounded down to 0
	drum_note 4, 4
	;note C_, 0 | WARNING: Rounded down to 0
	drum_note 4, 4
;Bar 208
	;note C_, 0 | WARNING: Rounded down to 0
	drum_note 4, 4
	;note C_, 0 | WARNING: Rounded down to 0
	drum_note 4, 4
	;note D#, 0 | WARNING: Rounded down to 0
	;note D_, 0 | WARNING: Rounded down to 0
	drum_note 4, 4
	;note C_, 0 | WARNING: Rounded down to 0
	drum_note 4, 4
;Bar 209
	;note C_, 0 | WARNING: Rounded down to 0
	drum_note 4, 4
	;note C_, 0 | WARNING: Rounded down to 0
	drum_note 4, 4
	;note D_, 0 | WARNING: Rounded down to 0
	;note D#, 0 | WARNING: Rounded down to 0
	drum_note 4, 4
	;note C_, 0 | WARNING: Rounded down to 0
	drum_note 4, 4
;Bar 210
	;note C_, 0 | WARNING: Rounded down to 0
	drum_note 4, 4
	;note C_, 0 | WARNING: Rounded down to 0
	drum_note 4, 4
	;note D#, 0 | WARNING: Rounded down to 0
	;note D_, 0 | WARNING: Rounded down to 0
	drum_note 4, 4
	;note C_, 0 | WARNING: Rounded down to 0
	drum_note 4, 4
;Bar 211
	;note C_, 0 | WARNING: Rounded down to 0
	drum_note 4, 4
	;note C_, 0 | WARNING: Rounded down to 0
	drum_note 4, 4
	;note D_, 0 | WARNING: Rounded down to 0
	;note D#, 0 | WARNING: Rounded down to 0
	drum_note 4, 4
	;note C_, 0 | WARNING: Rounded down to 0
	drum_note 4, 4
;Bar 212
	;note C_, 0 | WARNING: Rounded down to 0
	drum_note 4, 4
	;note C_, 0 | WARNING: Rounded down to 0
	drum_note 4, 4
	;note D#, 0 | WARNING: Rounded down to 0
	;note D_, 0 | WARNING: Rounded down to 0
	drum_note 4, 4
	;note C_, 0 | WARNING: Rounded down to 0
	drum_note 4, 4
;Bar 213
	;note C_, 0 | WARNING: Rounded down to 0
	drum_note 4, 4
	;note C_, 0 | WARNING: Rounded down to 0
	drum_note 4, 4
	;note D_, 0 | WARNING: Rounded down to 0
	;note D#, 0 | WARNING: Rounded down to 0
	drum_note 4, 4
	;note C_, 0 | WARNING: Rounded down to 0
	drum_note 4, 4
;Bar 214
	;note C_, 0 | WARNING: Rounded down to 0
	drum_note 4, 4
	;note C_, 0 | WARNING: Rounded down to 0
	drum_note 4, 4
	;note D#, 0 | WARNING: Rounded down to 0
	;note D_, 0 | WARNING: Rounded down to 0
	drum_note 4, 4
	;note C_, 0 | WARNING: Rounded down to 0
	drum_note 4, 4
;Bar 215
	;note C_, 0 | WARNING: Rounded down to 0
	drum_note 4, 4
	;note C_, 0 | WARNING: Rounded down to 0
	drum_note 4, 4
	;note D_, 0 | WARNING: Rounded down to 0
	;note D#, 0 | WARNING: Rounded down to 0
	drum_note 4, 4
	;note C_, 0 | WARNING: Rounded down to 0
	drum_note 4, 4
;Bar 216
	;note C_, 0 | WARNING: Rounded down to 0
	drum_note 4, 4
	;note C_, 0 | WARNING: Rounded down to 0
	drum_note 4, 4
	;note D#, 0 | WARNING: Rounded down to 0
	;note D_, 0 | WARNING: Rounded down to 0
	drum_note 4, 4
	;note C_, 0 | WARNING: Rounded down to 0
	drum_note 4, 4
;Bar 217
	;note C_, 0 | WARNING: Rounded down to 0
	drum_note 4, 4
	;note C_, 0 | WARNING: Rounded down to 0
	drum_note 4, 4
	;note D_, 0 | WARNING: Rounded down to 0
	;note D#, 0 | WARNING: Rounded down to 0
	drum_note 4, 4
	;note C_, 0 | WARNING: Rounded down to 0
	drum_note 4, 4
;Bar 218
	;note C_, 0 | WARNING: Rounded down to 0
	drum_note 4, 4
	;note C_, 0 | WARNING: Rounded down to 0
	drum_note 4, 4
	;note D#, 0 | WARNING: Rounded down to 0
	;note D_, 0 | WARNING: Rounded down to 0
	drum_note 4, 4
	;note C_, 0 | WARNING: Rounded down to 0
	drum_note 4, 4
;Bar 219
	;note C_, 0 | WARNING: Rounded down to 0
	drum_note 4, 4
	;note C_, 0 | WARNING: Rounded down to 0
	drum_note 4, 4
	;note D_, 0 | WARNING: Rounded down to 0
	;note D#, 0 | WARNING: Rounded down to 0
	drum_note 4, 4
	;note C_, 0 | WARNING: Rounded down to 0
	drum_note 4, 4
;Bar 220
	;note C_, 0 | WARNING: Rounded down to 0
	drum_note 4, 4
	;note C_, 0 | WARNING: Rounded down to 0
	drum_note 4, 4
	;note D#, 0 | WARNING: Rounded down to 0
	;note D_, 0 | WARNING: Rounded down to 0
	drum_note 4, 4
	;note C_, 0 | WARNING: Rounded down to 0
	drum_note 4, 4
;Bar 221
	;note C_, 0 | WARNING: Rounded down to 0
	drum_note 4, 4
	;note C_, 0 | WARNING: Rounded down to 0
	drum_note 4, 4
	;note D_, 0 | WARNING: Rounded down to 0
	;note D#, 0 | WARNING: Rounded down to 0
	drum_note 4, 4
	;note C_, 0 | WARNING: Rounded down to 0
	drum_note 4, 4
;Bar 222
	;note C_, 0 | WARNING: Rounded down to 0
	drum_note 4, 4
	;note C_, 0 | WARNING: Rounded down to 0
	drum_note 4, 4
	;note D#, 0 | WARNING: Rounded down to 0
	;note D_, 0 | WARNING: Rounded down to 0
	drum_note 4, 4
	;note C_, 0 | WARNING: Rounded down to 0
	drum_note 4, 4
;Bar 223
	;note C_, 0 | WARNING: Rounded down to 0
	drum_note 4, 4
	;note C_, 0 | WARNING: Rounded down to 0
	drum_note 4, 4
	;note D_, 0 | WARNING: Rounded down to 0
	;note D#, 0 | WARNING: Rounded down to 0
	drum_note 4, 4
	;note C_, 0 | WARNING: Rounded down to 0
	drum_note 4, 4
;Bar 224
	;note C_, 0 | WARNING: Rounded down to 0
	drum_note 4, 4
	;note C_, 0 | WARNING: Rounded down to 0
	drum_note 4, 4
	;note D_, 0 | WARNING: Rounded down to 0
	;note D#, 0 | WARNING: Rounded down to 0
	drum_note 4, 4
	;note C_, 0 | WARNING: Rounded down to 0
	drum_note 4, 4
;Bar 225
	;note C_, 0 | WARNING: Rounded down to 0
	drum_note 4, 4
	;note C_, 0 | WARNING: Rounded down to 0
	drum_note 4, 4
	;note D_, 0 | WARNING: Rounded down to 0
	;note D#, 0 | WARNING: Rounded down to 0
	drum_note 4, 4
	;note C_, 0 | WARNING: Rounded down to 0
	drum_note 4, 4
;Bar 226
	;note C_, 0 | WARNING: Rounded down to 0
	drum_note 4, 4
	;note C_, 0 | WARNING: Rounded down to 0
	drum_note 4, 4
	;note D#, 0 | WARNING: Rounded down to 0
	;note D_, 0 | WARNING: Rounded down to 0
	drum_note 4, 4
	;note C_, 0 | WARNING: Rounded down to 0
	drum_note 4, 4
;Bar 227
	;note C_, 0 | WARNING: Rounded down to 0
	drum_note 4, 4
	;note C_, 0 | WARNING: Rounded down to 0
	drum_note 4, 4
	;note D_, 0 | WARNING: Rounded down to 0
	;note D#, 0 | WARNING: Rounded down to 0
	drum_note 4, 4
	;note C_, 0 | WARNING: Rounded down to 0
	drum_note 4, 4
;Bar 228
	;note C_, 0 | WARNING: Rounded down to 0
	drum_note 4, 4
	;note C_, 0 | WARNING: Rounded down to 0
	drum_note 4, 4
	;note D#, 0 | WARNING: Rounded down to 0
	;note D_, 0 | WARNING: Rounded down to 0
	drum_note 4, 4
	;note C_, 0 | WARNING: Rounded down to 0
	drum_note 4, 4
;Bar 229
	;note C_, 0 | WARNING: Rounded down to 0
	drum_note 4, 4
	;note C_, 0 | WARNING: Rounded down to 0
	drum_note 4, 4
	;note D_, 0 | WARNING: Rounded down to 0
	;note D#, 0 | WARNING: Rounded down to 0
	drum_note 4, 4
	;note C_, 0 | WARNING: Rounded down to 0
	drum_note 4, 4
;Bar 230
	;note C_, 0 | WARNING: Rounded down to 0
	drum_note 4, 4
	;note C_, 0 | WARNING: Rounded down to 0
	drum_note 4, 4
	;note D#, 0 | WARNING: Rounded down to 0
	;note D_, 0 | WARNING: Rounded down to 0
	drum_note 4, 4
	;note C_, 0 | WARNING: Rounded down to 0
	drum_note 4, 4
;Bar 231
	;note C_, 0 | WARNING: Rounded down to 0
	drum_note 4, 4
	;note C_, 0 | WARNING: Rounded down to 0
	drum_note 4, 4
	;note D_, 0 | WARNING: Rounded down to 0
	;note D#, 0 | WARNING: Rounded down to 0
	drum_note 4, 4
	;note C_, 0 | WARNING: Rounded down to 0
	drum_note 4, 4
;Bar 232
	;note C_, 0 | WARNING: Rounded down to 0
	drum_note 4, 4
	;note C_, 0 | WARNING: Rounded down to 0
	drum_note 4, 4
	;note D#, 0 | WARNING: Rounded down to 0
	;note D_, 0 | WARNING: Rounded down to 0
	drum_note 4, 4
	;note C_, 0 | WARNING: Rounded down to 0
	drum_note 4, 4
;Bar 233
	;note C_, 0 | WARNING: Rounded down to 0
	drum_note 4, 4
	;note C_, 0 | WARNING: Rounded down to 0
	drum_note 4, 4
	;note D_, 0 | WARNING: Rounded down to 0
	;note D#, 0 | WARNING: Rounded down to 0
	drum_note 4, 4
	;note C_, 0 | WARNING: Rounded down to 0
	drum_note 4, 4
;Bar 234
	;note C_, 0 | WARNING: Rounded down to 0
	drum_note 4, 4
	;note C_, 0 | WARNING: Rounded down to 0
	drum_note 4, 4
	;note D#, 0 | WARNING: Rounded down to 0
	;note D_, 0 | WARNING: Rounded down to 0
	drum_note 4, 4
	;note C_, 0 | WARNING: Rounded down to 0
	drum_note 4, 4
;Bar 235
	;note C_, 0 | WARNING: Rounded down to 0
	drum_note 4, 4
	;note C_, 0 | WARNING: Rounded down to 0
	drum_note 4, 4
	;note D_, 0 | WARNING: Rounded down to 0
	;note D#, 0 | WARNING: Rounded down to 0
	drum_note 4, 4
	;note C_, 0 | WARNING: Rounded down to 0
	drum_note 4, 4
;Bar 236
	;note C_, 0 | WARNING: Rounded down to 0
	drum_note 4, 4
	;note C_, 0 | WARNING: Rounded down to 0
	drum_note 4, 4
	;note D#, 0 | WARNING: Rounded down to 0
	;note D_, 0 | WARNING: Rounded down to 0
	drum_note 4, 4
	;note C_, 0 | WARNING: Rounded down to 0
	drum_note 4, 4
	sound_ret

; ============================================================================================================

