Music_Placeholder:
	channel_count 4
	channel 1, Music_Placeholder_Ch1
	channel 2, Music_Placeholder_Ch2
	channel 3, Music_Placeholder_Ch3
	channel 4, Music_Placeholder_Ch4

Music_Placeholder_Ch1:
	volume 7, 7
	duty_cycle 2
	tempo 193
	note_type 8, 10, 7
	octave 5
	note D_, 4
	rest 2
	octave 4
	note G_, 4
	rest 2
	note_type 12, 10, 7
	note A_, 4
	rest 2
	note B_, 1
	octave 5
	note C_, 1
	note D_, 2
	note D_, 2
	octave 4
	note G_, 2
	note G_, 2
	note A_, 4
	rest 2
	note B_, 1
	octave 5
	note C_, 1
	octave 4
	note B_, 2
	octave 5
	note D_, 2
	note A_, 4
	rest 2
	note G_, 2
	note A_, 2
	note G_, 2
	note D_, 2
	note C_, 1
	octave 4
	note B_, 1
	note A_, 4
	rest 5
	note B_, 1
	octave 5
	note C_, 1
	note D_, 1
	note_type 8, 10, 7
	note E_, 4
	rest 2
	octave 4
	note G_, 4
	rest 2
	note_type 12, 10, 7
	note F#, 4
	rest 2
	note A_, 1
	octave 5
	note E_, 1
	note D_, 2
	note D_, 2
	octave 4
	note F#, 2
	note F#, 2
	note G_, 4
	rest 2
	note G_, 1
	note F#, 1
	note E_, 2
	note G_, 2
	note B_, 4
	rest 2
	note A_, 2
	note G_, 2
	note D#, 2
	note D_, 2
	octave 5
	note D_, 2
	octave 4
	note D_, 2
	octave 5
	note D_, 2
	octave 4
	note D_, 2
	octave 5
	note D_, 2
	octave 4
	note D_, 2
	octave 5
	note D_, 2
	note D_, 1
	rest 1
	octave 6
	note D_, 1
	rest 1
	octave 5
	note D_, 1
	rest 1
	octave 6
	note D_, 1
	rest 1
	octave 5
	note D_, 2
	octave 6
	note D_, 1
	rest 1
	octave 5
	note D_, 1
	rest 1
	octave 6
	note D_, 1
	rest 1
	note_type 8, 10, 7
	octave 5
	note D_, 4
	rest 2
	octave 4
	note G_, 4
	rest 2
	note_type 12, 10, 7
	note A_, 4
	rest 2
	note B_, 1
	octave 5
	note C_, 1
	note D_, 2
	note D_, 2
	octave 4
	note G_, 2
	note G_, 2
	note A_, 4
	rest 2
	note B_, 1
	octave 5
	note C_, 1
	octave 4
	note B_, 2
	octave 5
	note D_, 2
	note A_, 4
	rest 2
	note G_, 2
	note A_, 2
	note G_, 2
	note D_, 2
	note C_, 1
	octave 4
	note B_, 1
	note A_, 4
	rest 5
	note B_, 1
	octave 5
	note C_, 1
	note D_, 1
	note_type 8, 10, 7
	note E_, 4
	rest 2
	octave 4
	note G_, 4
	rest 2
	note_type 12, 10, 7
	note F#, 4
	rest 2
	note A_, 1
	octave 5
	note E_, 1
	note D_, 2
	note D_, 2
	octave 4
	note F#, 2
	note F#, 2
	note G_, 4
	rest 2
	note G_, 1
	note F#, 1
	note E_, 2
	note G_, 2
	note B_, 4
	rest 2
	note A_, 2
	note G_, 2
	note D#, 2
	note D_, 2
	octave 5
	note D_, 2
	octave 4
	note D_, 2
	octave 5
	note D_, 2
	octave 4
	note D_, 2
	octave 5
	note D_, 2
	octave 4
	note D_, 2
	octave 5
	note D_, 2
	note D_, 1
	rest 1
	octave 6
	note D_, 1
	rest 1
	octave 5
	note D_, 1
	rest 1
	octave 6
	note D_, 1
	rest 1
	octave 5
	note D_, 2
	octave 6
	note D_, 1
	rest 1
	octave 5
	note D_, 1
	rest 1
	octave 6
	note D_, 1
	rest 1
	note_type 8, 10, 7
	sound_ret

Music_Placeholder_Ch2:
	duty_cycle 1
	note_type 12, 10, 7
	octave 3
	note G_, 1
	rest 1
	octave 4
	note D_, 1
	rest 1
	octave 3
	note G_, 1
	rest 1
	octave 4
	note D_, 1
	rest 1
	octave 3
	note G_, 1
	rest 1
	octave 4
	note E_, 1
	rest 1
	octave 3
	note G_, 1
	rest 1
	octave 4
	note E_, 1
	rest 1
	octave 3
	note G_, 1
	rest 1
	octave 4
	note F#, 1
	rest 1
	octave 3
	note G_, 1
	rest 1
	octave 4
	note F#, 1
	rest 1
	octave 3
	note G_, 1
	rest 1
	octave 4
	note E_, 1
	rest 1
	octave 3
	note G_, 1
	rest 1
	octave 4
	note E_, 1
	rest 1
	octave 3
	note G_, 1
	rest 1
	octave 4
	note D_, 1
	rest 1
	octave 3
	note G_, 1
	rest 1
	octave 4
	note D_, 1
	rest 1
	octave 3
	note G_, 1
	rest 1
	octave 4
	note D#, 1
	rest 1
	octave 3
	note G_, 1
	rest 1
	octave 4
	note D#, 1
	rest 1
	octave 3
	note A_, 1
	rest 1
	octave 4
	note E_, 1
	rest 1
	octave 3
	note A_, 1
	rest 1
	octave 4
	note E_, 1
	rest 1
	note F#, 1
	rest 1
	octave 3
	note D_, 1
	rest 1
	note E_, 1
	rest 1
	note D_, 1
	rest 1
	note C_, 1
	rest 1
	note G_, 1
	rest 1
	note C_, 1
	rest 1
	note G_, 1
	rest 1
	note C_, 1
	rest 1
	note A_, 1
	rest 1
	note C_, 1
	rest 1
	note A_, 1
	rest 1
	octave 2
	note B_, 1
	rest 1
	octave 3
	note A_, 1
	rest 1
	octave 2
	note B_, 1
	rest 1
	octave 3
	note A_, 1
	rest 1
	note E_, 1
	rest 1
	note B_, 1
	rest 1
	note E_, 1
	rest 1
	note B_, 1
	rest 1
	octave 2
	note A_, 1
	rest 1
	octave 3
	note E_, 1
	rest 1
	octave 2
	note A_, 1
	rest 1
	octave 3
	note E_, 1
	rest 1
	octave 2
	note A_, 1
	rest 1
	octave 3
	note D#, 1
	rest 1
	note D_, 1
	rest 1
	note C_, 1
	rest 1
	note D_, 8
	note C_, 8
	octave 2
	rest 8
	note A_, 1
	rest 5
	octave 3
	note D_, 2
	note G_, 1
	rest 1
	octave 4
	note D_, 1
	rest 1
	octave 3
	note G_, 1
	rest 1
	octave 4
	note D_, 1
	rest 1
	octave 3
	note G_, 1
	rest 1
	octave 4
	note E_, 1
	rest 1
	octave 3
	note G_, 1
	rest 1
	octave 4
	note E_, 1
	rest 1
	octave 3
	note G_, 1
	rest 1
	octave 4
	note F#, 1
	rest 1
	octave 3
	note G_, 1
	rest 1
	octave 4
	note F#, 1
	rest 1
	octave 3
	note G_, 1
	rest 1
	octave 4
	note E_, 1
	rest 1
	octave 3
	note G_, 1
	rest 1
	octave 4
	note E_, 1
	rest 1
	octave 3
	note G_, 1
	rest 1
	octave 4
	note D_, 1
	rest 1
	octave 3
	note G_, 1
	rest 1
	octave 4
	note D_, 1
	rest 1
	octave 3
	note G_, 1
	rest 1
	octave 4
	note D#, 1
	rest 1
	octave 3
	note G_, 1
	rest 1
	octave 4
	note D#, 1
	rest 1
	octave 3
	note A_, 1
	rest 1
	octave 4
	note E_, 1
	rest 1
	octave 3
	note A_, 1
	rest 1
	octave 4
	note E_, 1
	rest 1
	note F#, 1
	rest 1
	octave 3
	note D_, 1
	rest 1
	note E_, 1
	rest 1
	note D_, 1
	rest 1
	note C_, 1
	rest 1
	note G_, 1
	rest 1
	note C_, 1
	rest 1
	note G_, 1
	rest 1
	note C_, 1
	rest 1
	note A_, 1
	rest 1
	note C_, 1
	rest 1
	note A_, 1
	rest 1
	octave 2
	note B_, 1
	rest 1
	octave 3
	note A_, 1
	rest 1
	octave 2
	note B_, 1
	rest 1
	octave 3
	note A_, 1
	rest 1
	note E_, 1
	rest 1
	note B_, 1
	rest 1
	note E_, 1
	rest 1
	note B_, 1
	rest 1
	octave 2
	note A_, 1
	rest 1
	octave 3
	note E_, 1
	rest 1
	octave 2
	note A_, 1
	rest 1
	octave 3
	note E_, 1
	rest 1
	octave 2
	note A_, 1
	rest 1
	octave 3
	note D#, 1
	rest 1
	note D_, 1
	rest 1
	note C_, 1
	rest 1
	note D_, 8
	note C_, 8
	octave 2
	rest 8
	note A_, 1
	rest 5
	octave 3
	note D_, 1
	rest 1
	sound_ret

Music_Placeholder_Ch3:
	note_type 12, 1, 0
	rest 16
	rest 16
	rest 16
	rest 16
	rest 16
	rest 16
	rest 16
	rest 16
	rest 16
	rest 16
	rest 16
	rest 16
	rest 16
	rest 16
	sound_ret

Music_Placeholder_Ch4:
	toggle_noise 1
	drum_speed 12
	rest 16
	rest 16
	rest 16
	rest 16
	rest 16
	rest 16
	rest 16
	rest 16
	rest 16
	rest 16
	rest 16
	rest 16
	rest 16
	rest 16
	sound_ret
