Music_Route205Day:
	channel_count 4
	channel 1, Music_Route205Day_Ch1
	channel 2, Music_Route205Day_Ch2
	channel 3, Music_Route205Day_Ch3
	channel 4, Music_Route205Day_Ch4

Music_Route205Day_Ch1:
	volume 5, 5
	tempo 191
Music_Route205_Ch1:
	duty_cycle $3
	stereo_panning TRUE, FALSE
	note_type 6, 12, 5
;Bar 1
	octave 4
	note D_, 2
	volume_envelope 5, 5
	note D_, 1
	rest 1
	volume_envelope 12, 5
	note D_, 2
	volume_envelope 5, 5
	note D_, 1
	rest 3
	octave 3
	volume_envelope 12, 5
	note B_, 4
	volume_envelope 5, 5
	note B_, 2
	octave 4
	volume_envelope 12, 5
	note C_, 2
	volume_envelope 5, 5
	note C_, 1
	rest 1
	volume_envelope 12, 5
	note C_, 2
	volume_envelope 5, 5
	note C_, 1
	rest 3
	octave 3
	volume_envelope 12, 5
	note A_, 4
	volume_envelope 5, 5
	note A_, 2
;Bar 2
	octave 4
	volume_envelope 12, 5
	note A_, 2
	volume_envelope 5, 5
	note A_, 1
	rest 1
	volume_envelope 12, 5
	note A_, 2
	volume_envelope 5, 5
	note A_, 1
	rest 1
	volume_envelope 12, 5
	note F_, 1
	volume_envelope 5, 5
	note F_, 1
	octave 3
	volume_envelope 12, 5
	note A_, 1
	volume_envelope 5, 5
	note A_, 1
	octave 4
	volume_envelope 12, 5
	note C_, 1
	volume_envelope 5, 5
	note C_, 1
	volume_envelope 12, 5
	note F_, 1
	volume_envelope 5, 5
	note F_, 1
	volume_envelope 12, 5
	note G_, 2
	volume_envelope 5, 5
	note G_, 1
	rest 1
	volume_envelope 12, 5
	note G_, 2
	volume_envelope 5, 5
	note G_, 1
	rest 1
	volume_envelope 12, 5
	note D_, 1
	volume_envelope 5, 5
	note D_, 1
	octave 3
	volume_envelope 12, 5
	note G_, 1
	volume_envelope 5, 5
	note G_, 1
	octave 4
	volume_envelope 12, 5
	note D_, 1
	volume_envelope 5, 5
	note D_, 1
	volume_envelope 12, 5
	note G_, 1
	volume_envelope 5, 5
	note G_, 1
;Bar 3
	volume_envelope 12, 5
	note G_, 1
	volume_envelope 5, 5
	note G_, 1
	volume_envelope 12, 5
	note G_, 2
	volume_envelope 5, 5
	note G_, 1
	rest 1
	volume_envelope 12, 5
	note G_, 1
	volume_envelope 5, 5
	note G_, 1
	octave 3
	volume_envelope 12, 5
	note B_, 1
	volume_envelope 5, 5
	note B_, 1
	volume_envelope 12, 5
	note D_, 1
	volume_envelope 5, 5
	note D_, 1
	volume_envelope 12, 5
	note G_, 1
	volume_envelope 5, 5
	note G_, 1
	volume_envelope 12, 5
	note B_, 1
	volume_envelope 5, 5
	note B_, 1
	octave 4
	volume_envelope 12, 5
	note F_, 1
	volume_envelope 5, 5
	note F_, 1
	volume_envelope 12, 5
	note F_, 2
	volume_envelope 5, 5
	note F_, 1
	rest 1
	volume_envelope 12, 5
	note F_, 1
	volume_envelope 5, 5
	note F_, 1
	octave 3
	volume_envelope 12, 5
	note A_, 1
	volume_envelope 5, 5
	note A_, 1
	volume_envelope 12, 5
	note C_, 1
	volume_envelope 5, 5
	note C_, 1
	volume_envelope 12, 5
	note F_, 1
	volume_envelope 5, 5
	note F_, 1
	volume_envelope 12, 5
	note A_, 1
	volume_envelope 5, 5
	note A_, 1
;Bar 4
	volume_envelope 12, 5
	note A_, 10
	volume_envelope 5, 5
	note A_, 2
	note_type 8, 12, 1
	note A_, 1
	note A_, 1
	note A_, 1
	note_type 6, 11, 5
	note A_, 14
	volume_envelope 5, 5
	note A_, 2
;Bar 5
	duty_cycle $2
	rest 8
	octave 5
	volume_envelope 11, 5
	note D_, 2
	volume_envelope 5, 5
	note D_, 2
	volume_envelope 11, 5
	note G_, 2
	volume_envelope 5, 5
	note G_, 2
	volume_envelope 11, 5
	note F#, 2
	note G_, 2
	note F#, 2
	volume_envelope 5, 5
	note F#, 2
	volume_envelope 11, 5
	note D_, 2
	volume_envelope 5, 5
	note D_, 2
	octave 4
	volume_envelope 11, 5
	note G_, 2
	volume_envelope 5, 5
	note G_, 2
;Bar 6
	octave 5
	volume_envelope 11, 5
	note C_, 8
	rest 8
	octave 4
	note A_, 2
	note B_, 2
	octave 5
	note C_, 2
	volume_envelope 5, 5
	note C_, 2
	octave 4
	volume_envelope 11, 5
	note F#, 2
	note G_, 2
	note A_, 2
	volume_envelope 5, 5
	note A_, 2
;Bar 7
	volume_envelope 11, 5
	note C_, 4
	octave 5
	note C_, 2
	volume_envelope 5, 5
	note C_, 2
	volume_envelope 11, 5
	note E_, 2
	volume_envelope 5, 5
	note E_, 2
	volume_envelope 11, 5
	note A_, 2
	volume_envelope 5, 5
	note A_, 2
	volume_envelope 11, 5
	note G#, 2
	note A_, 2
	note G#, 2
	volume_envelope 5, 5
	note G#, 2
	volume_envelope 11, 5
	note E_, 2
	volume_envelope 5, 5
	note E_, 2
	octave 4
	volume_envelope 11, 5
	note A_, 2
	volume_envelope 5, 5
	note A_, 2
;Bar 8
	volume_envelope 11, 5
	note B_, 8
	rest 8
	note B_, 2
	octave 5
	note C_, 2
	note D_, 2
	volume_envelope 5, 5
	note D_, 2
	octave 4
	volume_envelope 11, 5
	note F#, 2
	note G_, 2
	note A_, 4
;Bar 9
	duty_cycle $3
	octave 2
	note E_, 8
	note G_, 2
	note A_, 2
	note B_, 2
	octave 3
	note C_, 2
	octave 2
	note B_, 6
	note G_, 6
	note B_, 4
;Bar 10
	octave 3
	note C_, 8
	octave 2
	note G_, 2
	note A_, 2
	note B_, 2
	octave 3
	note C_, 2
	note D_, 6
	octave 2
	note B_, 8
	note G_, 6
;Bar 11
	note B_, 8
	note F#, 4
	note E_, 4
	note G_, 4
	note B_, 2
	note G_, 2
	note F_, 2
	octave 3
	note D_, 2
;Bar 12
	note G_, 2
	note C_, 2
	octave 2
	note G_, 2
	octave 4
	note C_, 2
	octave 3
	note A_, 2
	note C#, 2
	octave 2
	note A_, 2
	octave 4
	note C#, 2
	octave 5
	note D_, 2
	octave 4
	note A_, 2
	note G_, 2
	note D_, 2
	octave 3
	note D_, 2
	volume_envelope 5, 5
	note D_, 2
	volume_envelope 12, 5
	note D_, 2
	note D#, 2
;Bar 13
	note F_, 6
	octave 2
	note F_, 4
	note F_, 2
	note G_, 2
	note A_, 2
	octave 3
	note C_, 4
	octave 2
	note A#, 4
	note D_, 4
	note D#, 4
;Bar 14
	note F_, 6
	note F_, 2
	note G_, 2
	note F_, 2
	octave 3
	note D#, 2
	note D_, 2
	note C_, 2
	note C_, 2
	octave 2
	note A#, 2
	note A#, 2
	note A_, 2
	note A_, 2
	note G_, 2
	note G_, 2
;Bar 15
	note F#, 4
	octave 3
	note D#, 4
	octave 2
	note A_, 2
	note G_, 2
	note F#, 2
	note D_, 2
	octave 3
	note C_, 2
	note C_, 2
	octave 2
	note A#, 2
	note A#, 2
	note G_, 2
	note G_, 2
	note C_, 2
	note C_, 2
;Bar 16
	note F_, 4
	octave 3
	note C_, 1
	note F_, 2
	note A_, 1
	octave 2
	note C_, 1
	note F_, 1
	note A_, 1
	octave 3
	note C_, 1
	note F_, 1
	note C_, 1
	note A_, 1
	octave 4
	note C_, 1
	octave 2
	note D_, 1
	note F#, 1
	note A_, 1
	octave 3
	note C_, 1
	note F#, 1
	note A_, 1
	octave 4
	note C_, 1
	note D_, 1
	octave 3
	volume_envelope 9, 5
	note A_, 1
	octave 4
	note C_, 1
	note F#, 1
	volume_envelope 8, 5
	note A_, 1
	octave 5
	volume_envelope 7, 5
	note C_, 1
	volume_envelope 6, 5
	note F#, 1
	note A_, 1
	octave 6
	volume_envelope 5, 5
	note C_, 1
;Bar 17
	octave 4
	volume_envelope 12, 5
	note D_, 2
	volume_envelope 5, 5
	note D_, 2
	volume_envelope 2, 5
	note D_, 2
	octave 3
	volume_envelope 12, 5
	note G_, 2
	volume_envelope 5, 5
	note G_, 2
	volume_envelope 12, 5
	note A_, 2
	volume_envelope 5, 5
	note A_, 2
	volume_envelope 12, 5
	note G_, 2
	octave 4
	note E_, 2
	volume_envelope 5, 5
	note E_, 2
	volume_envelope 12, 5
	note D_, 2
	volume_envelope 5, 5
	note D_, 2
	volume_envelope 12, 5
	note C_, 2
	volume_envelope 5, 5
	note C_, 2
	volume_envelope 12, 5
	note D_, 2
	volume_envelope 5, 5
	note D_, 2
;Bar 18
	octave 3
	volume_envelope 12, 5
	note B_, 2
	volume_envelope 5, 5
	note B_, 2
	volume_envelope 2, 5
	note B_, 2
	volume_envelope 12, 5
	note D_, 2
	volume_envelope 5, 5
	note D_, 2
	volume_envelope 2, 5
	note D_, 2
	volume_envelope 12, 5
	note F#, 2
	note G_, 2
	note A_, 2
	volume_envelope 5, 5
	note A_, 2
	volume_envelope 12, 5
	note G_, 2
	volume_envelope 5, 5
	note G_, 2
	volume_envelope 12, 5
	note F#, 2
	volume_envelope 5, 5
	note F#, 2
	volume_envelope 12, 5
	note G_, 2
	volume_envelope 5, 5
	note G_, 2
;Bar 19
	volume_envelope 12, 5
	note E_, 2
	volume_envelope 5, 5
	note E_, 2
	octave 2
	volume_envelope 12, 5
	note B_, 2
	volume_envelope 5, 5
	note B_, 2
	octave 3
	volume_envelope 12, 5
	note E_, 6
	volume_envelope 5, 5
	note E_, 2
	volume_envelope 12, 5
	note G_, 2
	volume_envelope 5, 5
	note G_, 2
	volume_envelope 12, 5
	note E_, 2
	volume_envelope 5, 5
	note E_, 2
	volume_envelope 12, 5
	note G_, 6
	volume_envelope 5, 5
	note G_, 2
;Bar 20
	volume_envelope 12, 5
	note B_, 2
	note B_, 2
	octave 4
	note D_, 2
	note D_, 2
	octave 3
	note G_, 2
	note G_, 2
	note B_, 2
	note B_, 2
	octave 4
	note E_, 2
	note E_, 2
	octave 3
	note B_, 2
	note B_, 2
	octave 4
	note D_, 2
	note D_, 4
	volume_envelope 5, 5
	note D_, 2
	sound_loop 0, Music_Route205_Ch1

; ============================================================================================================

Music_Route205Day_Ch2:
	duty_cycle $1
Music_Route205_Ch2:
	note_type 6, 10, 7
;Bar 1
	octave 4
	volume_envelope 12, 7
	note G_, 2
	volume_envelope 4, 7
	note G_, 2
	volume_envelope 12, 7
	note G_, 2
	volume_envelope 4, 7
	note G_, 2
	volume_envelope 12, 7
	note G_, 1
	volume_envelope 4, 7
	note G_, 1
	octave 3
	volume_envelope 12, 7
	note G_, 1
	volume_envelope 4, 7
	note G_, 1
	octave 4
	volume_envelope 12, 7
	note D_, 1
	volume_envelope 4, 7
	note D_, 1
	volume_envelope 12, 7
	note G_, 1
	volume_envelope 4, 7
	note G_, 1
	volume_envelope 12, 7
	note F_, 2
	volume_envelope 4, 7
	note F_, 2
	volume_envelope 12, 7
	note F_, 2
	volume_envelope 4, 7
	note F_, 2
	volume_envelope 12, 7
	note F_, 1
	volume_envelope 4, 7
	note F_, 1
	octave 3
	volume_envelope 12, 7
	note F_, 1
	volume_envelope 4, 7
	note F_, 1
	octave 4
	volume_envelope 12, 7
	note C_, 1
	volume_envelope 4, 7
	note C_, 1
	volume_envelope 12, 7
	note F_, 1
	volume_envelope 4, 7
	note F_, 1
;Bar 2
	octave 5
	volume_envelope 12, 7
	note C_, 1
	volume_envelope 4, 7
	note C_, 1
	octave 4
	volume_envelope 12, 7
	note B_, 1
	volume_envelope 4, 7
	note B_, 1
	volume_envelope 12, 7
	note G_, 1
	volume_envelope 4, 7
	note G_, 1
	volume_envelope 12, 7
	note F_, 1
	volume_envelope 4, 7
	note F_, 1
	volume_envelope 12, 7
	note C_, 1
	volume_envelope 4, 7
	note C_, 1
	volume_envelope 12, 7
	note F_, 1
	volume_envelope 4, 7
	note F_, 1
	volume_envelope 12, 7
	note G_, 1
	volume_envelope 4, 7
	note G_, 1
	octave 5
	volume_envelope 12, 7
	note C_, 1
	volume_envelope 4, 7
	note C_, 1
	octave 4
	volume_envelope 12, 7
	note B_, 1
	volume_envelope 4, 7
	note B_, 1
	volume_envelope 12, 7
	note G_, 1
	volume_envelope 4, 7
	note G_, 1
	volume_envelope 12, 7
	note D_, 1
	volume_envelope 4, 7
	note D_, 1
	volume_envelope 12, 7
	note C_, 1
	volume_envelope 4, 7
	note C_, 1
	octave 3
	volume_envelope 12, 7
	note B_, 1
	volume_envelope 4, 7
	note B_, 1
	octave 4
	volume_envelope 12, 7
	note C_, 1
	volume_envelope 4, 7
	note C_, 1
	octave 3
	volume_envelope 12, 7
	note G_, 1
	volume_envelope 4, 7
	note G_, 1
	volume_envelope 12, 7
	note D_, 1
	volume_envelope 4, 7
	note D_, 1
;Bar 3
	volume_envelope 12, 7
	note D_, 1
	volume_envelope 4, 7
	note D_, 1
	volume_envelope 12, 7
	note G_, 1
	volume_envelope 4, 7
	note G_, 1
	octave 4
	volume_envelope 12, 7
	note G_, 1
	volume_envelope 4, 7
	note G_, 1
	octave 3
	volume_envelope 12, 7
	note G_, 1
	volume_envelope 4, 7
	note G_, 1
	octave 4
	volume_envelope 12, 7
	note D_, 1
	volume_envelope 4, 7
	note D_, 1
	octave 3
	volume_envelope 12, 7
	note G_, 1
	volume_envelope 4, 7
	note G_, 1
	octave 4
	volume_envelope 12, 7
	note G_, 1
	volume_envelope 4, 7
	note G_, 1
	octave 5
	volume_envelope 12, 7
	note D_, 1
	volume_envelope 4, 7
	note D_, 1
	octave 3
	volume_envelope 12, 7
	note C_, 1
	volume_envelope 4, 7
	note C_, 1
	volume_envelope 12, 7
	note F_, 1
	volume_envelope 4, 7
	note F_, 1
	octave 4
	volume_envelope 12, 7
	note F_, 1
	volume_envelope 4, 7
	note F_, 1
	octave 3
	volume_envelope 12, 7
	note F_, 1
	volume_envelope 4, 7
	note F_, 1
	octave 4
	volume_envelope 12, 7
	note C_, 1
	volume_envelope 4, 7
	note C_, 1
	octave 3
	volume_envelope 12, 7
	note F_, 1
	volume_envelope 4, 7
	note F_, 1
	octave 4
	volume_envelope 12, 7
	note F_, 1
	volume_envelope 4, 7
	note F_, 1
	octave 5
	volume_envelope 12, 7
	note C_, 1
	volume_envelope 4, 7
	note C_, 1
;Bar 4
	octave 4
	volume_envelope 12, 7
	note D_, 10
	volume_envelope 4, 7
	note D_, 2
	note_type 8, 13, 1
	note D_, 1
	note D_, 1
	note D_, 1
	note_type 6, 12, 7
	note D_, 5
	volume_envelope 4, 7
	note D_, 2
	rest 1
	volume_envelope 12, 7
	note D_, 5
	volume_envelope 4, 7
	note D_, 2
	rest 1
;Bar 5
	volume_envelope 12, 7
	note D_, 2
	volume_envelope 4, 7
	note D_, 2
	volume_envelope 12, 7
	note G_, 2
	volume_envelope 4, 7
	note G_, 2
	volume_envelope 12, 7
	note F#, 2
	note G_, 2
	note F#, 2
	volume_envelope 4, 7
	note F#, 2
	volume_envelope 12, 7
	note D_, 2
	volume_envelope 4, 7
	note D_, 2
	octave 3
	volume_envelope 12, 7
	note B_, 2
	volume_envelope 4, 7
	note B_, 2
	octave 4
	volume_envelope 12, 7
	note E_, 2
	note D_, 2
	octave 3
	note G_, 2
	volume_envelope 4, 7
	note G_, 2
;Bar 6
	volume_envelope 12, 7
	note A_, 2
	note B_, 2
	octave 4
	note C_, 2
	volume_envelope 4, 7
	note C_, 2
	octave 3
	volume_envelope 12, 7
	note F#, 2
	note G_, 2
	note A_, 2
	volume_envelope 4, 7
	note A_, 2
	volume_envelope 10, 7
	note E_, 8
	volume_envelope 4, 7
	note E_, 2
	rest 6
;Bar 7
	octave 4
	volume_envelope 12, 7
	note E_, 2
	volume_envelope 4, 7
	note E_, 2
	volume_envelope 12, 7
	note A_, 2
	volume_envelope 4, 7
	note A_, 2
	volume_envelope 12, 7
	note G#, 2
	note A_, 2
	note G#, 2
	volume_envelope 4, 7
	note G#, 2
	volume_envelope 11, 7
	note E_, 2
	volume_envelope 4, 7
	note E_, 2
	volume_envelope 12, 7
	note C_, 2
	volume_envelope 4, 7
	note C_, 2
	volume_envelope 12, 7
	note G_, 2
	note F#, 2
	octave 3
	note A_, 2
	volume_envelope 4, 7
	note A_, 2
;Bar 8
	volume_envelope 12, 7
	note B_, 2
	octave 4
	note C_, 2
	note D_, 2
	volume_envelope 4, 7
	note D_, 2
	octave 3
	volume_envelope 12, 7
	note F#, 2
	note G_, 2
	note A_, 2
	volume_envelope 4, 7
	note A_, 2
	volume_envelope 10, 7
	note D_, 8
	volume_envelope 4, 7
	note D_, 2
	rest 2
	volume_envelope 12, 7
	note A_, 8
;Bar 9
	note G_, 2
	note E_, 2
	note G_, 4
	octave 4
	note E_, 4
	note D_, 4
	note E_, 2
	octave 3
	note G_, 2
	volume_envelope 4, 7
	note G_, 2
	volume_envelope 12, 7
	note G_, 6
;Bar 10
	rest 4
	note G_, 2
	note E_, 2
	note G_, 4
	octave 4
	note G_, 4
	note F#, 2
	note G_, 2
	note F#, 2
	note D_, 2
	volume_envelope 4, 7
	note D_, 2
	octave 3
	volume_envelope 12, 7
	note G_, 4
	note D_, 2
;Bar 11
	note E_, 4
	volume_envelope 4, 7
	note E_, 2
	volume_envelope 12, 7
	note B_, 4
	note G_, 4
	note A_, 2
	note G_, 4
	volume_envelope 4, 7
	note G_, 2
	volume_envelope 12, 7
	note D_, 4
	note G_, 4
	note F_, 2
;Bar 12
	note E_, 2
	volume_envelope 4, 7
	note E_, 2
	volume_envelope 12, 7
	note G_, 2
	volume_envelope 4, 7
	note G_, 2
	volume_envelope 12, 7
	note A_, 2
	volume_envelope 4, 7
	note A_, 2
	octave 4
	volume_envelope 12, 7
	note D_, 2
	volume_envelope 4, 7
	note D_, 2
	volume_envelope 12, 7
	note G_, 2
	note G_, 2
	note A_, 2
	note A_, 2
	octave 5
	note D_, 2
	volume_envelope 4, 7
	note D_, 2
	octave 4
	volume_envelope 12, 7
	note D_, 2
	note D#, 2
;Bar 13
	note F_, 2
	volume_envelope 4, 7
	note F_, 2
	rest 2
	volume_envelope 12, 7
	note F_, 2
	volume_envelope 4, 7
	note F_, 2
	rest 2
	volume_envelope 12, 7
	note G_, 2
	volume_envelope 4, 7
	note G_, 2
	volume_envelope 12, 7
	note F_, 2
	volume_envelope 4, 7
	note F_, 2
	rest 8
	volume_envelope 12, 7
	note D_, 2
	note D#, 2
;Bar 14
	note F_, 2
	volume_envelope 4, 7
	note F_, 2
	volume_envelope 12, 7
	note A#, 2
	volume_envelope 4, 7
	note A#, 2
	volume_envelope 12, 7
	note A_, 2
	volume_envelope 4, 7
	note A_, 2
	volume_envelope 12, 7
	note F_, 2
	volume_envelope 4, 7
	note F_, 2
	volume_envelope 12, 7
	note G_, 2
	volume_envelope 4, 7
	note G_, 2
	volume_envelope 12, 7
	note F_, 2
	volume_envelope 4, 7
	note F_, 2
	rest 4
	octave 3
	volume_envelope 12, 7
	note A#, 2
	octave 4
	note C_, 2
;Bar 15
	note D_, 2
	volume_envelope 4, 7
	note D_, 2
	volume_envelope 12, 7
	note D#, 2
	volume_envelope 4, 7
	note D#, 2
	volume_envelope 12, 7
	note D_, 2
	volume_envelope 4, 7
	note D_, 2
	octave 3
	volume_envelope 12, 7
	note A_, 2
	volume_envelope 4, 7
	note A_, 2
	volume_envelope 12, 7
	note A#, 2
	note A#, 2
	octave 4
	note D_, 2
	note D_, 2
	note G_, 2
	note G_, 2
	note A_, 2
	note A_, 2
;Bar 16
	note F_, 8
	volume_envelope 4, 7
	note F_, 2
	rest 2
	volume_envelope 12, 7
	note E_, 2
	note F_, 2
	note F#, 8
	volume_envelope 4, 7
	note F#, 2
	rest 2
	volume_envelope 12, 7
	note F_, 2
	volume_envelope 14, 7
	note F#, 2
;Bar 17
	note G_, 2
	volume_envelope 5, 7
	note G_, 2
	volume_envelope 3, 7
	note G_, 2
	volume_envelope 14, 7
	note D_, 2
	volume_envelope 5, 7
	note D_, 2
	volume_envelope 14, 7
	note E_, 2
	volume_envelope 5, 7
	note E_, 2
	volume_envelope 14, 7
	note D_, 2
	note G_, 2
	volume_envelope 5, 7
	note G_, 2
	volume_envelope 14, 7
	note F#, 2
	volume_envelope 5, 7
	note F#, 2
	volume_envelope 14, 7
	note E_, 2
	volume_envelope 5, 7
	note E_, 2
	volume_envelope 14, 7
	note F#, 2
	volume_envelope 5, 7
	note F#, 2
;Bar 18
	volume_envelope 14, 7
	note D_, 2
	volume_envelope 5, 7
	note D_, 2
	volume_envelope 3, 7
	note D_, 2
	octave 3
	volume_envelope 14, 7
	note G_, 2
	volume_envelope 5, 7
	note G_, 2
	volume_envelope 3, 7
	note G_, 2
	volume_envelope 14, 7
	note A_, 2
	note B_, 2
	octave 4
	note C_, 2
	volume_envelope 5, 7
	note C_, 2
	octave 3
	volume_envelope 14, 7
	note B_, 2
	volume_envelope 5, 7
	note B_, 2
	volume_envelope 14, 7
	note A#, 2
	volume_envelope 5, 7
	note A#, 2
	volume_envelope 14, 7
	note B_, 2
	volume_envelope 5, 7
	note B_, 2
;Bar 19
	volume_envelope 14, 7
	note G_, 2
	volume_envelope 5, 7
	note G_, 2
	volume_envelope 14, 7
	note E_, 2
	volume_envelope 5, 7
	note E_, 2
	volume_envelope 14, 7
	note G_, 2
	volume_envelope 5, 7
	note G_, 2
	octave 4
	volume_envelope 14, 7
	note E_, 2
	volume_envelope 5, 7
	note E_, 2
	volume_envelope 14, 7
	note D_, 2
	volume_envelope 5, 7
	note D_, 2
	volume_envelope 14, 7
	note E_, 2
	volume_envelope 5, 7
	note E_, 2
	volume_envelope 14, 7
	note G_, 2
	volume_envelope 5, 7
	note G_, 2
	volume_envelope 14, 7
	note A_, 2
	volume_envelope 5, 7
	note A_, 2
;Bar 20
	volume_envelope 14, 7
	note B_, 2
	note B_, 2
	octave 5
	note C_, 2
	note C_, 2
	note C#, 2
	note C#, 2
	note D_, 2
	note D_, 2
	octave 4
	note G_, 2
	note G_, 2
	volume_envelope 5, 7
	note G_, 2
	rest 2
	volume_envelope 14, 7
	note A_, 2
	note A_, 2
	volume_envelope 5, 7
	note A_, 2
	rest 2
	sound_loop 0, Music_Route205_Ch2

; ============================================================================================================

Music_Route205Day_Ch3:
	note_type 6, 1, 5
;Bar 1
	octave 2
	volume_envelope 1, 5
	note G_, 2
	volume_envelope 2, 5
	note G_, 2
	volume_envelope 1, 5
	note G_, 2
	volume_envelope 2, 5
	note G_, 2
	rest 2
	volume_envelope 1, 5
	note G_, 2
	note B_, 2
	octave 3
	note D_, 2
	octave 2
	note G_, 2
	volume_envelope 2, 5
	note G_, 2
	volume_envelope 1, 5
	note G_, 2
	volume_envelope 2, 5
	note G_, 2
	rest 2
	volume_envelope 1, 5
	note A_, 2
	octave 3
	note C_, 2
	note F_, 2
;Bar 2
	octave 2
	note G_, 2
	volume_envelope 2, 5
	note G_, 2
	volume_envelope 1, 5
	note G_, 2
	volume_envelope 2, 5
	note G_, 2
	rest 2
	octave 3
	volume_envelope 1, 5
	note C_, 2
	note F_, 2
	note A_, 2
	octave 2
	note G_, 2
	volume_envelope 2, 5
	note G_, 2
	volume_envelope 1, 5
	note G_, 2
	volume_envelope 2, 5
	note G_, 2
	rest 2
	octave 3
	volume_envelope 1, 5
	note D_, 2
	note G_, 2
	note B_, 2
;Bar 3
	octave 2
	note G_, 2
	volume_envelope 2, 5
	note G_, 2
	volume_envelope 1, 5
	note G_, 2
	volume_envelope 2, 5
	note G_, 2
	octave 3
	volume_envelope 1, 5
	note D_, 2
	octave 2
	note G_, 2
	octave 3
	note D_, 2
	note G_, 2
	octave 2
	note G_, 2
	volume_envelope 2, 5
	note G_, 2
	volume_envelope 1, 5
	note G_, 2
	volume_envelope 2, 5
	note G_, 2
	octave 3
	volume_envelope 1, 5
	note C_, 2
	octave 2
	note F_, 2
	octave 3
	note C_, 2
	note F_, 2
;Bar 4
	octave 2
	note D_, 2
	volume_envelope 2, 5
	note D_, 2
	volume_envelope 1, 5
	note D_, 2
	volume_envelope 2, 5
	note D_, 2
	rest 4
	volume_envelope 1, 5
	note D_, 2
	note D_, 2
	note D_, 2
	volume_envelope 2, 5
	note D_, 2
	volume_envelope 1, 5
	note D_, 2
	volume_envelope 2, 5
	note D_, 2
	rest 4
	volume_envelope 1, 5
	note D_, 2
	volume_envelope 2, 5
	note D_, 2
;Bar 5
	volume_envelope 1, 5
	note G_, 2
	volume_envelope 2, 5
	note G_, 2
	volume_envelope 1, 5
	note G_, 2
	volume_envelope 2, 5
	note G_, 2
	rest 4
	volume_envelope 1, 5
	note G_, 2
	note G_, 2
	note G_, 2
	volume_envelope 2, 5
	note G_, 2
	volume_envelope 1, 5
	note G_, 2
	volume_envelope 2, 5
	note G_, 2
	rest 4
	volume_envelope 1, 5
	note G_, 2
	note G_, 2
;Bar 6
	note G_, 2
	volume_envelope 2, 5
	note G_, 2
	volume_envelope 1, 5
	note G_, 2
	volume_envelope 2, 5
	note G_, 2
	rest 2
	volume_envelope 1, 5
	note G_, 2
	note A_, 2
	octave 3
	note C_, 2
	octave 2
	note G_, 2
	volume_envelope 2, 5
	note G_, 2
	volume_envelope 1, 5
	note G_, 2
	volume_envelope 2, 5
	note G_, 2
	rest 4
	volume_envelope 1, 5
	note G_, 2
	note G_, 2
;Bar 7
	note G_, 2
	volume_envelope 2, 5
	note G_, 2
	volume_envelope 1, 5
	note G_, 2
	volume_envelope 2, 5
	note G_, 2
	rest 4
	volume_envelope 1, 5
	note G_, 2
	note G_, 2
	note G_, 2
	volume_envelope 2, 5
	note G_, 2
	volume_envelope 1, 5
	note G_, 2
	volume_envelope 2, 5
	note G_, 2
	rest 4
	volume_envelope 1, 5
	note G_, 2
	note G_, 2
;Bar 8
	note G_, 2
	volume_envelope 2, 5
	note G_, 2
	volume_envelope 1, 5
	note G_, 2
	volume_envelope 2, 5
	note G_, 2
	rest 2
	volume_envelope 1, 5
	note G_, 2
	note A_, 2
	octave 3
	note C_, 2
	octave 2
	note G_, 2
	volume_envelope 2, 5
	note G_, 2
	volume_envelope 1, 5
	note G_, 2
	volume_envelope 2, 5
	note G_, 2
	rest 4
	volume_envelope 1, 5
	note F_, 2
	note F_, 2
;Bar 9
	note C_, 2
	volume_envelope 2, 5
	note C_, 2
	rest 2
	volume_envelope 1, 5
	note C_, 2
	volume_envelope 2, 5
	note C_, 2
	rest 2
	volume_envelope 1, 5
	note G_, 2
	volume_envelope 2, 5
	note G_, 2
	octave 1
	volume_envelope 1, 5
	note B_, 2
	volume_envelope 2, 5
	note B_, 2
	rest 2
	volume_envelope 1, 5
	note B_, 2
	volume_envelope 2, 5
	note B_, 2
	octave 2
	volume_envelope 1, 5
	note G_, 2
	volume_envelope 2, 5
	note G_, 2
	rest 2
;Bar 10
	volume_envelope 1, 5
	note C_, 2
	volume_envelope 2, 5
	note C_, 2
	rest 2
	volume_envelope 1, 5
	note C_, 2
	volume_envelope 2, 5
	note C_, 2
	rest 2
	volume_envelope 1, 5
	note E_, 2
	volume_envelope 2, 5
	note E_, 2
	octave 1
	volume_envelope 1, 5
	note B_, 2
	volume_envelope 2, 5
	note B_, 2
	rest 2
	octave 2
	volume_envelope 1, 5
	note E_, 2
	volume_envelope 2, 5
	note E_, 2
	volume_envelope 1, 5
	note E_, 2
	volume_envelope 2, 5
	note E_, 2
	volume_envelope 1, 5
	note D_, 2
;Bar 11
	note C_, 2
	volume_envelope 2, 5
	note C_, 2
	rest 2
	volume_envelope 1, 5
	note G_, 2
	octave 1
	note B_, 2
	volume_envelope 2, 5
	note B_, 2
	rest 2
	octave 2
	volume_envelope 1, 5
	note F#, 2
	note E_, 2
	volume_envelope 2, 5
	note E_, 2
	rest 2
	volume_envelope 1, 5
	note E_, 2
	note D_, 2
	volume_envelope 2, 5
	note D_, 2
	rest 2
	volume_envelope 1, 5
	note G_, 2
;Bar 12
	octave 3
	note C_, 2
	note C_, 2
	octave 2
	note G_, 2
	octave 3
	note C_, 2
	note C#, 2
	note C#, 2
	octave 2
	note A_, 2
	octave 3
	note C#, 2
	note D_, 2
	note D_, 2
	octave 2
	note A_, 2
	note G_, 2
	note D_, 2
	volume_envelope 2, 5
	note D_, 2
	rest 4
;Bar 13
	volume_envelope 1, 5
	note F_, 2
	volume_envelope 2, 5
	note F_, 2
	volume_envelope 1, 5
	note F_, 2
	note F_, 2
	note F_, 2
	note F_, 2
	note G_, 2
	note A_, 2
	note A#, 2
	volume_envelope 2, 5
	note A#, 2
	volume_envelope 1, 5
	note A#, 2
	note F_, 2
	note A#, 2
	note A#, 2
	note A_, 2
	note G_, 2
;Bar 14
	note F_, 2
	volume_envelope 2, 5
	note F_, 2
	volume_envelope 1, 5
	note F_, 2
	note F_, 2
	note F_, 2
	note F_, 2
	octave 3
	note C_, 2
	octave 2
	note A_, 2
	note A#, 2
	volume_envelope 2, 5
	note A#, 2
	volume_envelope 1, 5
	note A#, 2
	note F_, 2
	octave 3
	note C_, 2
	octave 2
	note A#, 2
	note A_, 2
	note G_, 2
;Bar 15
	note A_, 2
	volume_envelope 2, 5
	note A_, 2
	volume_envelope 1, 5
	note D_, 2
	volume_envelope 2, 5
	note D_, 2
	volume_envelope 1, 5
	note A_, 2
	volume_envelope 2, 5
	note A_, 2
	octave 3
	volume_envelope 1, 5
	note C_, 2
	volume_envelope 2, 5
	note C_, 2
	octave 2
	volume_envelope 1, 5
	note A#, 2
	volume_envelope 2, 5
	note A#, 2
	volume_envelope 1, 5
	note D_, 2
	volume_envelope 2, 5
	note D_, 2
	volume_envelope 1, 5
	note G_, 2
	volume_envelope 2, 5
	note G_, 2
	octave 3
	volume_envelope 1, 5
	note C_, 2
	volume_envelope 2, 5
	note C_, 2
;Bar 16
	octave 2
	volume_envelope 1, 5
	note F_, 2
	note F_, 2
	volume_envelope 2, 5
	note F_, 2
	octave 3
	volume_envelope 1, 5
	note C_, 2
	note C_, 2
	volume_envelope 2, 5
	note C_, 2
	volume_envelope 1, 5
	note F_, 2
	volume_envelope 2, 5
	note F_, 2
	volume_envelope 1, 5
	note D_, 2
	note D_, 2
	volume_envelope 2, 5
	note D_, 2
	octave 2
	volume_envelope 1, 5
	note D_, 2
	note D_, 2
	volume_envelope 2, 5
	note D_, 2
	volume_envelope 1, 5
	note D_, 2
	note D_, 2
;Bar 17
	note G_, 3
	volume_envelope 2, 5
	note G_, 2
	rest 16
	rest 3
	volume_envelope 1, 5
	note G_, 3
	volume_envelope 2, 5
	note G_, 2
	rest 11
;Bar 18
	volume_envelope 1, 5
	note G_, 3
	volume_envelope 2, 5
	note G_, 2
	rest 11
	volume_envelope 1, 5
	note B_, 3
	volume_envelope 2, 5
	note B_, 2
	rest 3
;Bar 19
	volume_envelope 1, 5
	note E_, 2
	volume_envelope 2, 5
	note E_, 2
	volume_envelope 1, 5
	note E_, 2
	volume_envelope 2, 5
	note E_, 2
	rest 4
	volume_envelope 1, 5
	note E_, 2
	note E_, 2
	octave 1
	note B_, 2
	volume_envelope 2, 5
	note B_, 2
	volume_envelope 1, 5
	note B_, 2
	volume_envelope 2, 5
	note B_, 2
	rest 4
	volume_envelope 1, 5
	note B_, 2
	octave 2
	note C_, 2
;Bar 20
	note D_, 2
	volume_envelope 2, 5
	note D_, 2
	rest 4
	volume_envelope 1, 5
	note E_, 2
	volume_envelope 2, 5
	note E_, 2
	rest 4
	volume_envelope 1, 5
	note C_, 2
	note C_, 2
	volume_envelope 2, 5
	note C_, 2
	rest 2
	volume_envelope 1, 5
	note D_, 2
	note D_, 2
	volume_envelope 2, 5
	note D_, 2
	volume_envelope 1, 5
	note D_, 2
	sound_loop 0, Music_Route205Day_Ch3

; ============================================================================================================

Music_Route205Day_Ch4:
	toggle_noise 1
	stereo_panning FALSE, TRUE
Music_Route205Day_Ch4_loop:
	drum_speed 6
;Bar 1
	drum_note 10, 4
	drum_note 10, 4
	drum_note 6, 4
	drum_note 10, 4
	drum_note 10, 4
	drum_note 10, 4
	drum_note 6, 4
	drum_note 10, 4
;Bar 2
	drum_note 10, 4
	drum_note 10, 2
	drum_note 10, 2
	drum_note 6, 4
	drum_note 10, 2
	drum_note 10, 2
	drum_note 10, 4
	drum_note 10, 2
	drum_note 10, 2
	drum_note 6, 4
	drum_note 10, 2
	drum_note 10, 2
;Bar 3
	drum_note 10, 4
	drum_note 10, 2
	drum_note 10, 2
	drum_note 6, 4
	drum_note 10, 4
	drum_note 10, 4
	drum_note 10, 2
	drum_note 10, 2
	drum_note 6, 4
	drum_note 10, 4
;Bar 4
	drum_note 3, 4
	drum_note 3, 4
	drum_note 10, 4
	drum_note 3, 4
	drum_note 10, 8
	drum_note 6, 8
;Bar 5
	sound_call Music_Route205Day_Ch4_Type1
	sound_call Music_Route205Day_Ch4_Type1
;Bar 6
	sound_call Music_Route205Day_Ch4_Type2
	sound_call Music_Route205Day_Ch4_Type1
;Bar 7
	sound_call Music_Route205Day_Ch4_Type1
	sound_call Music_Route205Day_Ch4_Type1
;Bar 8
	sound_call Music_Route205Day_Ch4_Type2
	sound_call Music_Route205Day_Ch4_Type1
;Bar 9
	drum_note 9, 16
	drum_note 6, 12
	drum_note 9, 2
	drum_note 9, 2
;Bar 10
	drum_note 9, 16
	drum_note 6, 12
	drum_note 9, 2
	drum_note 9, 2
;Bar 11
	drum_note 9, 6
	drum_note 9, 2
	drum_note 9, 2
	drum_note 9, 6
	drum_note 9, 6
	drum_note 9, 2
	drum_note 9, 2
	drum_note 9, 4
	drum_note 9, 2
;Bar 12
	drum_note 9, 4
	drum_note 9, 4
	drum_note 9, 4
	drum_note 9, 4
	drum_note 9, 2
	drum_note 9, 2
	drum_note 9, 2
	drum_note 9, 2
	drum_note 6, 4
	drum_note 10, 2
	drum_note 10, 2
;Bar 13
	drum_note 3, 4
	drum_note 10, 2
	drum_note 10, 2
	drum_note 9, 4
	drum_note 10, 4
	drum_note 3, 4
	drum_note 10, 2
	drum_note 10, 2
	drum_note 9, 4
	drum_note 10, 4
;Bar 14
	drum_note 3, 4
	drum_note 10, 2
	drum_note 10, 2
	drum_note 9, 4
	drum_note 10, 4
	drum_note 3, 4
	drum_note 10, 4
	drum_note 9, 4
	drum_note 10, 2
	drum_note 10, 2
;Bar 15
	drum_note 3, 4
	drum_note 10, 4
	drum_note 9, 2
	drum_note 10, 4
	drum_note 10, 2
	drum_note 10, 4
	drum_note 10, 4
	drum_note 9, 2
	drum_note 10, 4
	drum_note 10, 2
;Bar 16
	drum_note 6, 4
	drum_note 10, 4
	drum_note 10, 2
	drum_note 10, 4
	drum_note 10, 2
	drum_note 3, 4
	drum_note 3, 1
	drum_note 3, 2
	drum_note 3, 1
	drum_note 7, 4
	drum_note 3, 1
	drum_note 3, 2
	drum_note 3, 1
;Bar 17
	drum_note 6, 4
	drum_note 10, 2
	drum_note 10, 2
	drum_note 10, 4
	drum_speed 8
	drum_note 10, 1
	drum_note 10, 1
	drum_note 10, 1
	drum_speed 6
	drum_note 10, 4
	drum_note 10, 4
	drum_note 6, 3
	drum_note 10, 3
	drum_note 10, 2
;Bar 18
	drum_note 3, 4
	drum_note 10, 2
	drum_note 10, 2
	drum_note 6, 4
	drum_note 10, 1
	drum_note 10, 2
	drum_note 10, 1
	drum_note 10, 4
	drum_note 10, 4
	drum_note 6, 4
	drum_note 10, 4
;Bar 19
	drum_note 6, 4
	drum_note 3, 4
	drum_note 10, 4
	drum_speed 8
	drum_note 10, 1
	drum_note 10, 1
	drum_note 10, 1
	drum_speed 6
	drum_note 6, 4
	drum_note 3, 4
	drum_note 10, 4
	drum_speed 8
	drum_note 10, 1
	drum_note 10, 1
	drum_note 10, 1
	drum_speed 6
;Bar 20
	drum_note 3, 2
	drum_note 3, 2
	drum_note 10, 4
	drum_note 3, 2
	drum_note 3, 2
	drum_note 10, 4
	drum_note 6, 2
	drum_note 10, 6
	drum_note 6, 2
	drum_note 10, 6
	sound_loop 0, Music_Route205Day_Ch4_loop

Music_Route205Day_Ch4_Type1:
	drum_speed 6
	drum_note 10, 4;
	drum_note 10, 4
	drum_note 10, 4
	drum_speed 8
	drum_note 10, 1
	drum_note 10, 1
	drum_note 10, 1
	drum_speed 6
	sound_ret

Music_Route205Day_Ch4_Type2:
	drum_speed 8
	drum_note 10, 3
	drum_note 10, 1
	drum_note 10, 1
	drum_note 10, 1
	sound_loop 2, Music_Route205Day_Ch4_Type2
	sound_ret

Music_Route205Night:
	channel_count 4
	channel 1, Music_Route205Night_Ch1
	channel 2, Music_Route205Night_Ch2
	channel 3, Music_Route205Day_Ch3
	channel 4, Music_Route205Day_Ch4

Music_Route205Night_Ch1:
	volume 5, 5
	tempo 194
	sound_call Music_Route205_Ch1

Music_Route205Night_Ch2:
	duty_cycle $2
	sound_call Music_Route205_Ch2