;Coverted using MIDI2ASM
;Code by TriteHexagon
;Version 5.2.0 (16-Nov-2022)
;Visit github.com/TriteHexagon/Midi2ASM-Converter for up-to-date versions.

; ============================================================================================================

Music_TailCave:
	channel_count 2
	channel 1, Music_TailCave_Ch1
	channel 2, Music_TailCave_Ch2

Music_TailCave_Ch1:
	volume 7, 7
	duty_cycle 2
	note_type 12, 10, 7
	tempo 212
;Bar 1
	octave 2
	note B_, 2
	octave 3
	note C#, 2
	note D_, 2
	note A_, 2
	rest 2
	octave 1
	note B_, 2
	rest 4
;Bar 2
	octave 2
	note B_, 2
	octave 3
	note C#, 2
	note D_, 2
	note G#, 2
	rest 2
	octave 1
	note B_, 2
	rest 4
;Bar 3
	octave 2
	note B_, 2
	octave 3
	note C#, 2
	note D_, 2
	note G_, 2
	rest 2
	octave 1
	note B_, 2
	rest 4
;Bar 4
	octave 2
	note B_, 2
	octave 3
	note C#, 2
	note D_, 2
	note G#, 2
	rest 2
	octave 1
	note B_, 2
	rest 4
;Bar 5
	octave 3
	note C#, 2
	note D#, 2
	note E_, 2
	note B_, 2
	rest 2
	octave 2
	note C#, 2
	rest 4
;Bar 6
	octave 3
	note C#, 2
	note D#, 2
	note E_, 2
	note A#, 2
	rest 2
	octave 2
	note C#, 2
	rest 4
;Bar 7
	octave 3
	note C#, 2
	note D#, 2
	note E_, 2
	note A_, 2
	rest 2
	octave 2
	note C#, 2
	rest 4
;Bar 8
	octave 3
	note C#, 2
	note D#, 2
	note E_, 2
	note A#, 2
	rest 2
	octave 2
	note C#, 2
	rest 4
;Bar 9
	octave 3
	note E_, 2
	note F#, 2
	note G_, 2
	octave 4
	note D_, 2
	rest 2
	octave 2
	note E_, 2
	rest 4
;Bar 10
	octave 3
	note F_, 2
	note G_, 2
	note G#, 2
	octave 4
	note D#, 2
	rest 2
	octave 2
	note F_, 2
	rest 4
;Bar 11
	octave 3
	note F#, 2
	note G#, 2
	note A_, 2
	octave 4
	note E_, 2
	rest 2
	octave 2
	note F#, 2
	rest 16
	rest 4
;Bar 13
	note B_, 2
	octave 3
	note C#, 2
	note D_, 2
	note A_, 2
	rest 2
	octave 1
	note B_, 2
	rest 4
;Bar 14
	octave 2
	note B_, 2
	octave 3
	note C#, 2
	note D_, 2
	note G#, 2
	rest 2
	octave 1
	note B_, 2
	rest 4
;Bar 15
	octave 2
	note B_, 2
	octave 3
	note C#, 2
	note D_, 2
	note G_, 2
	rest 2
	octave 1
	note B_, 2
	rest 4
;Bar 16
	octave 2
	note B_, 2
	octave 3
	note C#, 2
	note D_, 2
	note G#, 2
	rest 2
	octave 1
	note B_, 2
	rest 4
;Bar 17
	octave 3
	note C#, 2
	note D#, 2
	note E_, 2
	note B_, 2
	rest 2
	octave 2
	note C#, 2
	rest 4
;Bar 18
	octave 3
	note C#, 2
	note D#, 2
	note E_, 2
	note A#, 2
	rest 2
	octave 2
	note C#, 2
	rest 4
;Bar 19
	octave 3
	note C#, 2
	note D#, 2
	note E_, 2
	note A_, 2
	rest 2
	octave 2
	note C#, 2
	rest 4
;Bar 20
	octave 3
	note C#, 2
	note D#, 2
	note E_, 2
	note A#, 2
	rest 2
	octave 2
	note C#, 2
	rest 4
;Bar 21
	octave 3
	note E_, 2
	note F#, 2
	note G_, 2
	octave 4
	note D_, 2
	rest 2
	octave 2
	note E_, 2
	rest 4
;Bar 22
	octave 3
	note F_, 2
	note G_, 2
	note G#, 2
	octave 4
	note D#, 2
	rest 2
	octave 2
	note F_, 2
	rest 4
;Bar 23
	octave 3
	note F#, 2
	note G#, 2
	note A_, 2
	octave 4
	note E_, 2
	rest 2
	octave 2
	note F#, 2
	rest 16
	rest 4
;Bar 25
	note_type 6, 10, 7
	note F_, 1
	note A_, 1
	note F_, 1
	note A_, 1
	note F_, 1
	note A_, 1
	note F_, 1
	note A_, 1
	note F_, 1
	note A_, 1
	note F_, 1
	note A_, 1
	note F_, 1
	note A_, 1
	note F_, 1
	note A_, 1
	note F_, 1
	note A_, 1
	note F_, 1
	note A_, 1
	note F_, 1
	note A_, 1
	note F_, 1
	note A_, 1
	note F_, 1
	note A_, 1
	note F_, 1
	note A_, 1
	note F_, 1
	note A_, 1
	note F_, 1
	note A_, 1
;Bar 26
	note E_, 1
	note G#, 1
	note E_, 1
	note G#, 1
	note E_, 1
	note G#, 1
	note E_, 1
	note G#, 1
	note E_, 1
	note G#, 1
	note E_, 1
	note G#, 1
	note E_, 1
	note G#, 1
	note E_, 1
	note G#, 1
	note E_, 1
	note G#, 1
	note E_, 1
	note G#, 1
	note E_, 1
	note G#, 1
	note E_, 1
	note G#, 1
	note E_, 1
	note G#, 1
	note E_, 1
	note G#, 1
	note E_, 1
	note G#, 1
	note E_, 1
	note G#, 1
;Bar 27
	note D#, 1
	note G_, 1
	note D#, 1
	note G_, 1
	note D#, 1
	note G_, 1
	note D#, 1
	note G_, 1
	note D#, 1
	note G_, 1
	note D#, 1
	note G_, 1
	note D#, 1
	note G_, 1
	note D#, 1
	note G_, 1
	note D#, 1
	note G_, 1
	note D#, 1
	note G_, 1
	note D#, 1
	note G_, 1
	note D#, 1
	note G_, 1
	note D#, 1
	note G_, 1
	note D#, 1
	note G_, 1
	note D#, 1
	note G_, 1
	note D#, 1
	note G_, 1
;Bar 28
	note E_, 1
	note G#, 1
	note E_, 1
	note G#, 1
	note E_, 1
	note G#, 1
	note E_, 1
	note G#, 1
	note E_, 1
	note G#, 1
	note E_, 1
	note G#, 1
	note E_, 1
	note G#, 1
	note E_, 1
	note G#, 1
	note E_, 1
	note G#, 1
	note E_, 1
	note G#, 1
	note E_, 1
	note G#, 1
	note E_, 1
	note G#, 1
	note E_, 1
	note G#, 1
	note E_, 1
	note G#, 1
	note E_, 1
	note G#, 1
	note E_, 1
	note G#, 1
;Bar 29
	note G_, 1
	note B_, 1
	note G_, 1
	note B_, 1
	note G_, 1
	note B_, 1
	note G_, 1
	note B_, 1
	note G_, 1
	note B_, 1
	note G_, 1
	note B_, 1
	note G_, 1
	note B_, 1
	note G_, 1
	note B_, 1
	note G_, 1
	note B_, 1
	note G_, 1
	note B_, 1
	note G_, 1
	note B_, 1
	note G_, 1
	note B_, 1
	note G_, 1
	note B_, 1
	note G_, 1
	note B_, 1
	note G_, 1
	note B_, 1
	note G_, 1
	note B_, 1
;Bar 30
	note F#, 1
	note A#, 1
	note F#, 1
	note A#, 1
	note F#, 1
	note A#, 1
	note F#, 1
	note A#, 1
	note F#, 1
	note A#, 1
	note F#, 1
	note A#, 1
	note F#, 1
	note A#, 1
	note F#, 1
	note A#, 1
	note F#, 1
	note A#, 1
	note F#, 1
	note A#, 1
	note F#, 1
	note A#, 1
	note F#, 1
	note A#, 1
	note F#, 1
	note A#, 1
	note F#, 1
	note A#, 1
	note F#, 1
	note A#, 1
	note F#, 1
	note A#, 1
;Bar 31
	note F_, 1
	note A_, 1
	note F_, 1
	note A_, 1
	note F_, 1
	note A_, 1
	note F_, 1
	note A_, 1
	note F_, 1
	note A_, 1
	note F_, 1
	note A_, 1
	note F_, 1
	note A_, 1
	note F_, 1
	note A_, 1
	note F_, 1
	note A_, 1
	note F_, 1
	note A_, 1
	note F_, 1
	note A_, 1
	note F_, 1
	note A_, 1
	note F_, 1
	note A_, 1
	note F_, 1
	note A_, 1
	note F_, 1
	note A_, 1
	note F_, 1
	note A_, 1
;Bar 32
	note F#, 1
	note A#, 1
	note F#, 1
	note A#, 1
	note F#, 1
	note A#, 1
	note F#, 1
	note A#, 1
	note F#, 1
	note A#, 1
	note F#, 1
	note A#, 1
	note F#, 1
	note A#, 1
	note F#, 1
	note A#, 1
	note F#, 1
	note A#, 1
	note F#, 1
	note A#, 1
	note F#, 1
	note A#, 1
	note F#, 1
	note A#, 1
	note F#, 1
	note A#, 1
	note F#, 1
	note A#, 1
	note F#, 1
	note A#, 1
	note F#, 1
	note A#, 1
;Bar 33
	note_type 12, 10, 7
	note D#, 1
	note F_, 1
	note F#, 1
	note D_, 1
	note E_, 1
	note_type 8, 10, 7
	note F_, 1
	rest 2
	note_type 12, 10, 7
	octave 1
	note F_, 16
;Bar 34
	rest 1
	octave 2
	note B_, 2
	octave 3
	note C#, 2
	note D_, 2
	note A_, 2
;Bar 35
	rest 2
	octave 1
	note B_, 2
	rest 4
	octave 2
	note B_, 2
	octave 3
	note C#, 2
	note D_, 2
	note G#, 2
;Bar 36
	rest 2
	octave 1
	note B_, 2
	rest 4
	octave 2
	note B_, 2
	octave 3
	note C#, 2
	note D_, 2
	note G_, 2
;Bar 37
	rest 2
	octave 1
	note B_, 2
	rest 4
	octave 2
	note B_, 2
	octave 3
	note C#, 2
	note D_, 2
	note G#, 2
;Bar 38
	rest 2
	octave 1
	note B_, 2
	rest 4
	octave 3
	note C#, 2
	note D#, 2
	note E_, 2
	note B_, 2
;Bar 39
	rest 2
	octave 2
	note C#, 2
	rest 4
	octave 3
	note C#, 2
	note D#, 2
	note E_, 2
	note A#, 2
;Bar 40
	rest 2
	octave 2
	note C#, 2
	rest 4
	octave 3
	note C#, 2
	note D#, 2
	note E_, 2
	note A_, 2
;Bar 41
	rest 2
	octave 2
	note C#, 2
	rest 4
	octave 3
	note C#, 2
	note D#, 2
	note E_, 2
	note A#, 2
;Bar 42
	rest 2
	octave 2
	note C#, 2
	rest 4
	octave 3
	note E_, 2
	note F#, 2
	note G_, 2
	octave 4
	note D_, 2
;Bar 43
	rest 2
	octave 2
	note E_, 2
	rest 4
	octave 3
	note F_, 2
	note G_, 2
	note G#, 2
	octave 4
	note D#, 2
;Bar 44
	rest 2
	octave 2
	note F_, 2
	rest 4
	octave 3
	note F#, 2
	note G#, 2
	note A_, 2
	octave 4
	note E_, 2
;Bar 45
	rest 2
	octave 2
	note F#, 2
	rest 16
	rest 4
;Bar 46
	note B_, 2
	octave 3
	note C#, 2
	note D_, 2
	note A_, 2
;Bar 47
	rest 2
	octave 1
	note B_, 2
	rest 4
	octave 2
	note B_, 2
	octave 3
	note C#, 2
	note D_, 2
	note G#, 2
;Bar 48
	rest 2
	octave 1
	note B_, 2
	rest 4
	octave 2
	note B_, 2
	octave 3
	note C#, 2
	note D_, 2
	note G_, 2
;Bar 49
	rest 2
	octave 1
	note B_, 2
	rest 4
	octave 2
	note B_, 2
	octave 3
	note C#, 2
	note D_, 2
	note G#, 2
;Bar 50
	rest 2
	octave 1
	note B_, 2
	rest 4
	octave 3
	note C#, 2
	note D#, 2
	note E_, 2
	note B_, 2
;Bar 51
	rest 2
	octave 2
	note C#, 2
	rest 4
	octave 3
	note C#, 2
	note D#, 2
	note E_, 2
	note A#, 2
;Bar 52
	rest 2
	octave 2
	note C#, 2
	rest 4
	octave 3
	note C#, 2
	note D#, 2
	note E_, 2
	note A_, 2
;Bar 53
	rest 2
	octave 2
	note C#, 2
	rest 4
	octave 3
	note C#, 2
	note D#, 2
	note E_, 2
	note A#, 2
;Bar 54
	rest 2
	octave 2
	note C#, 2
	rest 4
	octave 3
	note E_, 2
	note F#, 2
	note G_, 2
	octave 4
	note D_, 2
;Bar 55
	rest 2
	octave 2
	note E_, 2
	rest 4
	octave 3
	note F_, 2
	note G_, 2
	note G#, 2
	octave 4
	note D#, 2
;Bar 56
	rest 2
	octave 2
	note F_, 2
	rest 4
	octave 3
	note F#, 2
	note G#, 2
	note A_, 2
	octave 4
	note E_, 2
;Bar 57
	rest 2
	octave 2
	note F#, 2
	rest 16
	rest 4
;Bar 58
	note_type 6, 10, 7
	note F_, 1
	note A_, 1
	note F_, 1
	note A_, 1
	note F_, 1
	note A_, 1
	note F_, 1
	note A_, 1
	note F_, 1
	note A_, 1
	note F_, 1
	note A_, 1
	note F_, 1
	note A_, 1
	note F_, 1
	note A_, 1
;Bar 59
	note F_, 1
	note A_, 1
	note F_, 1
	note A_, 1
	note F_, 1
	note A_, 1
	note F_, 1
	note A_, 1
	note F_, 1
	note A_, 1
	note F_, 1
	note A_, 1
	note F_, 1
	note A_, 1
	note F_, 1
	note A_, 1
	note E_, 1
	note G#, 1
	note E_, 1
	note G#, 1
	note E_, 1
	note G#, 1
	note E_, 1
	note G#, 1
	note E_, 1
	note G#, 1
	note E_, 1
	note G#, 1
	note E_, 1
	note G#, 1
	note E_, 1
	note G#, 1
;Bar 60
	note E_, 1
	note G#, 1
	note E_, 1
	note G#, 1
	note E_, 1
	note G#, 1
	note E_, 1
	note G#, 1
	note E_, 1
	note G#, 1
	note E_, 1
	note G#, 1
	note E_, 1
	note G#, 1
	note E_, 1
	note G#, 1
	note D#, 1
	note G_, 1
	note D#, 1
	note G_, 1
	note D#, 1
	note G_, 1
	note D#, 1
	note G_, 1
	note D#, 1
	note G_, 1
	note D#, 1
	note G_, 1
	note D#, 1
	note G_, 1
	note D#, 1
	note G_, 1
;Bar 61
	note D#, 1
	note G_, 1
	note D#, 1
	note G_, 1
	note D#, 1
	note G_, 1
	note D#, 1
	note G_, 1
	note D#, 1
	note G_, 1
	note D#, 1
	note G_, 1
	note D#, 1
	note G_, 1
	note D#, 1
	note G_, 1
	note E_, 1
	note G#, 1
	note E_, 1
	note G#, 1
	note E_, 1
	note G#, 1
	note E_, 1
	note G#, 1
	note E_, 1
	note G#, 1
	note E_, 1
	note G#, 1
	note E_, 1
	note G#, 1
	note E_, 1
	note G#, 1
;Bar 62
	note E_, 1
	note G#, 1
	note E_, 1
	note G#, 1
	note E_, 1
	note G#, 1
	note E_, 1
	note G#, 1
	note E_, 1
	note G#, 1
	note E_, 1
	note G#, 1
	note E_, 1
	note G#, 1
	note E_, 1
	note G#, 1
	note G_, 1
	note B_, 1
	note G_, 1
	note B_, 1
	note G_, 1
	note B_, 1
	note G_, 1
	note B_, 1
	note G_, 1
	note B_, 1
	note G_, 1
	note B_, 1
	note G_, 1
	note B_, 1
	note G_, 1
	note B_, 1
;Bar 63
	note G_, 1
	note B_, 1
	note G_, 1
	note B_, 1
	note G_, 1
	note B_, 1
	note G_, 1
	note B_, 1
	note G_, 1
	note B_, 1
	note G_, 1
	note B_, 1
	note G_, 1
	note B_, 1
	note G_, 1
	note B_, 1
	note F#, 1
	note A#, 1
	note F#, 1
	note A#, 1
	note F#, 1
	note A#, 1
	note F#, 1
	note A#, 1
	note F#, 1
	note A#, 1
	note F#, 1
	note A#, 1
	note F#, 1
	note A#, 1
	note F#, 1
	note A#, 1
;Bar 64
	note F#, 1
	note A#, 1
	note F#, 1
	note A#, 1
	note F#, 1
	note A#, 1
	note F#, 1
	note A#, 1
	note F#, 1
	note A#, 1
	note F#, 1
	note A#, 1
	note F#, 1
	note A#, 1
	note F#, 1
	note A#, 1
	note F_, 1
	note A_, 1
	note F_, 1
	note A_, 1
	note F_, 1
	note A_, 1
	note F_, 1
	note A_, 1
	note F_, 1
	note A_, 1
	note F_, 1
	note A_, 1
	note F_, 1
	note A_, 1
	note F_, 1
	note A_, 1
;Bar 65
	note F_, 1
	note A_, 1
	note F_, 1
	note A_, 1
	note F_, 1
	note A_, 1
	note F_, 1
	note A_, 1
	note F_, 1
	note A_, 1
	note F_, 1
	note A_, 1
	note F_, 1
	note A_, 1
	note F_, 1
	note A_, 1
	note F#, 1
	note A#, 1
	note F#, 1
	note A#, 1
	note F#, 1
	note A#, 1
	note F#, 1
	note A#, 1
	note F#, 1
	note A#, 1
	note F#, 1
	note A#, 1
	note F#, 1
	note A#, 1
	note F#, 1
	note A#, 1
;Bar 66
	note F#, 1
	note A#, 1
	note F#, 1
	note A#, 1
	note F#, 1
	note A#, 1
	note F#, 1
	note A#, 1
	note F#, 1
	note A#, 1
	note F#, 1
	note A#, 1
	note F#, 1
	note A#, 1
	note F#, 1
	note A#, 1
	note_type 12, 10, 7
	note D#, 1
	note F_, 1
	note F#, 1
	note D_, 1
	note E_, 1
	note_type 8, 10, 7
	note F_, 1
	rest 2
	note_type 12, 10, 7
	octave 1
	note F_, 16
	sound_ret

; ============================================================================================================

Music_TailCave_Ch2:
	duty_cycle 1
	note_type 12, 10, 7
;Bar 1
	note_type 8, 10, 7
	note B_, 1
	rest 2
	note B_, 1
	rest 16
	rest 1
	note B_, 1
	rest 2
;Bar 2
	note B_, 1
	rest 2
	note B_, 1
	rest 16
	rest 1
	note B_, 1
	rest 2
;Bar 3
	note B_, 1
	rest 2
	note B_, 1
	rest 16
	rest 1
	note B_, 1
	rest 2
;Bar 4
	note B_, 1
	rest 2
	note B_, 1
	rest 16
	rest 1
	note B_, 1
	rest 2
;Bar 5
	octave 1
	note C#, 1
	rest 2
	note C#, 1
	rest 16
	rest 1
	note C#, 1
	rest 2
;Bar 6
	note C#, 1
	rest 2
	note C#, 1
	rest 16
	rest 1
	note C#, 1
	rest 2
;Bar 7
	note C#, 1
	rest 2
	note C#, 1
	rest 16
	rest 1
	note C#, 1
	rest 2
;Bar 8
	note C#, 1
	rest 2
	note C#, 1
	rest 16
	rest 1
	note C#, 1
	rest 2
;Bar 9
	note E_, 1
	rest 2
	note E_, 1
	rest 16
	rest 1
	note E_, 1
	rest 2
;Bar 10
	note F_, 1
	rest 2
	note F_, 1
	rest 16
	rest 1
	note F_, 1
	rest 2
;Bar 11
	note F#, 1
	rest 2
	note F#, 1
	rest 16
	rest 1
	note F#, 1
	rest 2
;Bar 12
	note F#, 1
	rest 2
	note F#, 1
	rest 16
	rest 1
	note F#, 1
	rest 2
;Bar 13
	note B_, 1
	rest 2
	note B_, 1
	rest 16
	rest 1
	note B_, 1
	rest 2
;Bar 14
	note B_, 1
	rest 2
	note B_, 1
	rest 16
	rest 1
	note B_, 1
	rest 2
;Bar 15
	note B_, 1
	rest 2
	note B_, 1
	rest 16
	rest 1
	note B_, 1
	rest 2
;Bar 16
	note B_, 1
	rest 2
	note B_, 1
	rest 16
	rest 1
	note B_, 1
	rest 2
;Bar 17
	octave 1
	note C#, 1
	rest 2
	note C#, 1
	rest 16
	rest 1
	note C#, 1
	rest 2
;Bar 18
	note C#, 1
	rest 2
	note C#, 1
	rest 16
	rest 1
	note C#, 1
	rest 2
;Bar 19
	note C#, 1
	rest 2
	note C#, 1
	rest 16
	rest 1
	note C#, 1
	rest 2
;Bar 20
	note C#, 1
	rest 2
	note C#, 1
	rest 16
	rest 1
	note C#, 1
	rest 2
;Bar 21
	note E_, 1
	rest 2
	note E_, 1
	rest 16
	rest 1
	note E_, 1
	rest 2
;Bar 22
	note F_, 1
	rest 2
	note F_, 1
	rest 16
	rest 1
	note F_, 1
	rest 2
;Bar 23
	note F#, 1
	rest 2
	note F#, 1
	rest 16
	rest 1
	note F#, 1
	rest 2
;Bar 24
	note F#, 1
	rest 2
	note F#, 1
	rest 16
	rest 1
	note F#, 1
	rest 2
;Bar 25
	note B_, 1
	rest 2
	note B_, 1
	rest 5
	note B_, 1
	rest 5
	octave 1
	note B_, 1
	rest 5
	note B_, 1
	rest 2
;Bar 26
	note B_, 1
	rest 2
	note B_, 1
	rest 5
	note B_, 1
	rest 5
	octave 1
	note B_, 1
	rest 5
	note B_, 1
	rest 2
;Bar 27
	note B_, 1
	rest 2
	note B_, 1
	rest 5
	note B_, 1
	rest 5
	octave 1
	note B_, 1
	rest 5
	note B_, 1
	rest 2
;Bar 28
	note B_, 1
	rest 2
	note B_, 1
	rest 5
	note B_, 1
	rest 5
	octave 1
	note B_, 1
	rest 5
	note B_, 1
	rest 2
;Bar 29
	octave 1
	note C#, 1
	rest 2
	note C#, 1
	rest 5
	note C#, 1
	rest 5
	octave 2
	note C#, 1
	rest 5
	octave 1
	note C#, 1
	rest 2
;Bar 30
	note C#, 1
	rest 2
	note C#, 1
	rest 5
	note C#, 1
	rest 5
	octave 2
	note C#, 1
	rest 5
	octave 1
	note C#, 1
	rest 2
;Bar 31
	note C#, 1
	rest 2
	note C#, 1
	rest 5
	note C#, 1
	rest 5
	octave 2
	note C#, 1
	rest 5
	octave 1
	note C#, 1
	rest 2
;Bar 32
	note C#, 1
	rest 2
	note C#, 1
	rest 5
	note C#, 1
	rest 5
	octave 2
	note C#, 1
	rest 5
	octave 1
	note C#, 1
	rest 2
;Bar 33
	note_type 12, 10, 7
	note D#, 1
	note F_, 1
	note F#, 1
	note D_, 1
	note E_, 1
	note_type 8, 10, 7
	note F_, 1
	rest 2
	note F_, 1
	note_type 4, 10, 7
	rest 16
	rest 16
	rest 16
	rest 1
;Bar 34
	note_type 8, 10, 7
	note B_, 1
	rest 2
	note B_, 1
	rest 16
	rest 1
;Bar 35
	note B_, 1
	rest 2
	note B_, 1
	rest 2
	note B_, 1
	rest 16
	rest 1
;Bar 36
	note B_, 1
	rest 2
	note B_, 1
	rest 2
	note B_, 1
	rest 16
	rest 1
;Bar 37
	note B_, 1
	rest 2
	note B_, 1
	rest 2
	note B_, 1
	rest 16
	rest 1
;Bar 38
	note B_, 1
	rest 2
	octave 1
	note C#, 1
	rest 2
	note C#, 1
	rest 16
	rest 1
;Bar 39
	note C#, 1
	rest 2
	note C#, 1
	rest 2
	note C#, 1
	rest 16
	rest 1
;Bar 40
	note C#, 1
	rest 2
	note C#, 1
	rest 2
	note C#, 1
	rest 16
	rest 1
;Bar 41
	note C#, 1
	rest 2
	note C#, 1
	rest 2
	note C#, 1
	rest 16
	rest 1
;Bar 42
	note C#, 1
	rest 2
	note E_, 1
	rest 2
	note E_, 1
	rest 16
	rest 1
;Bar 43
	note E_, 1
	rest 2
	note F_, 1
	rest 2
	note F_, 1
	rest 16
	rest 1
;Bar 44
	note F_, 1
	rest 2
	note F#, 1
	rest 2
	note F#, 1
	rest 16
	rest 1
;Bar 45
	note F#, 1
	rest 2
	note F#, 1
	rest 2
	note F#, 1
	rest 16
	rest 1
;Bar 46
	note F#, 1
	rest 2
	note B_, 1
	rest 2
	note B_, 1
	rest 16
	rest 1
;Bar 47
	note B_, 1
	rest 2
	note B_, 1
	rest 2
	note B_, 1
	rest 16
	rest 1
;Bar 48
	note B_, 1
	rest 2
	note B_, 1
	rest 2
	note B_, 1
	rest 16
	rest 1
;Bar 49
	note B_, 1
	rest 2
	note B_, 1
	rest 2
	note B_, 1
	rest 16
	rest 1
;Bar 50
	note B_, 1
	rest 2
	octave 1
	note C#, 1
	rest 2
	note C#, 1
	rest 16
	rest 1
;Bar 51
	note C#, 1
	rest 2
	note C#, 1
	rest 2
	note C#, 1
	rest 16
	rest 1
;Bar 52
	note C#, 1
	rest 2
	note C#, 1
	rest 2
	note C#, 1
	rest 16
	rest 1
;Bar 53
	note C#, 1
	rest 2
	note C#, 1
	rest 2
	note C#, 1
	rest 16
	rest 1
;Bar 54
	note C#, 1
	rest 2
	note E_, 1
	rest 2
	note E_, 1
	rest 16
	rest 1
;Bar 55
	note E_, 1
	rest 2
	note F_, 1
	rest 2
	note F_, 1
	rest 16
	rest 1
;Bar 56
	note F_, 1
	rest 2
	note F#, 1
	rest 2
	note F#, 1
	rest 16
	rest 1
;Bar 57
	note F#, 1
	rest 2
	note F#, 1
	rest 2
	note F#, 1
	rest 16
	rest 1
;Bar 58
	note F#, 1
	rest 2
	note B_, 1
	rest 2
	note B_, 1
	rest 5
	note B_, 1
	rest 5
;Bar 59
	octave 1
	note B_, 1
	rest 5
	note B_, 1
	rest 2
	note B_, 1
	rest 2
	note B_, 1
	rest 5
	note B_, 1
	rest 5
;Bar 60
	octave 1
	note B_, 1
	rest 5
	note B_, 1
	rest 2
	note B_, 1
	rest 2
	note B_, 1
	rest 5
	note B_, 1
	rest 5
;Bar 61
	octave 1
	note B_, 1
	rest 5
	note B_, 1
	rest 2
	note B_, 1
	rest 2
	note B_, 1
	rest 5
	note B_, 1
	rest 5
;Bar 62
	octave 1
	note B_, 1
	rest 5
	note B_, 1
	rest 2
	octave 1
	note C#, 1
	rest 2
	note C#, 1
	rest 5
	note C#, 1
	rest 5
;Bar 63
	octave 2
	note C#, 1
	rest 5
	octave 1
	note C#, 1
	rest 2
	note C#, 1
	rest 2
	note C#, 1
	rest 5
	note C#, 1
	rest 5
;Bar 64
	octave 2
	note C#, 1
	rest 5
	octave 1
	note C#, 1
	rest 2
	note C#, 1
	rest 2
	note C#, 1
	rest 5
	note C#, 1
	rest 5
;Bar 65
	octave 2
	note C#, 1
	rest 5
	octave 1
	note C#, 1
	rest 2
	note C#, 1
	rest 2
	note C#, 1
	rest 5
	note C#, 1
	rest 5
;Bar 66
	octave 2
	note C#, 1
	rest 5
	octave 1
	note C#, 1
	rest 2
	note_type 12, 10, 7
	note D#, 1
	note F_, 1
	note F#, 1
	note D_, 1
	note E_, 1
	note_type 8, 10, 7
	note F_, 1
	rest 2
	note F_, 1
	sound_ret

; ============================================================================================================

